<?xml version="1.0" encoding="UTF-8"?>
<svg width="14px" height="19px" viewBox="0 0 14 19" version="1.1" xmlns="http://www.w3.org/2000/svg" xmlns:xlink="http://www.w3.org/1999/xlink">
    <!-- Generator: Sketch 50.2 (55047) - http://www.bohemiancoding.com/sketch -->
    <title>lightbulb-icon</title>
    <desc>Created with Sketch.</desc>
    <defs></defs>
    <g id="Artboard" stroke="none" stroke-width="1" fill="none" fill-rule="evenodd">
        <g id="Desktop_Step-5_Background-check_1.1" transform="translate(-569.000000, -855.000000)" fill="#F1C204">
            <g id="Group-12" transform="translate(533.000000, 606.000000)">
                <g id="Group-11" transform="translate(36.000000, 248.000000)">
                    <path d="M4.37890625,18.9238281 L4.40039062,18 L9.90039062,18 L9.90039062,18.9238281 C9.90039062,19.1673189 9.81087329,19.3785798 9.63183594,19.5576172 C9.45279858,19.7366545 9.23437629,19.8261719 8.9765625,19.8261719 L5.30273438,19.8261719 C5.04492059,19.8261719 4.82649829,19.7366545 4.64746094,19.5576172 C4.46842358,19.3785798 4.37890625,19.1673189 4.37890625,18.9238281 Z M7.12890625,1.5 L7.15039062,1.5 C8.02409291,1.5 8.85481377,1.67187328 9.64257812,2.015625 C10.4160195,2.34505373 11.0927705,2.79980179 11.6728516,3.37988281 C12.2529326,3.95996384 12.7076806,4.63671488 13.0371094,5.41015625 C13.3808611,6.19792061 13.5527344,7.03580285 13.5527344,7.92382812 C13.5527344,8.99805225 13.3020858,9.99706569 12.8007812,10.9208984 C12.2994767,11.8447312 11.6334677,12.6002575 10.8027344,13.1875 L10.8027344,15.25 C10.8027344,15.5078138 10.713217,15.7262361 10.5341797,15.9052734 C10.3551423,16.0843108 10.13672,16.1738281 9.87890625,16.1738281 L4.37890625,16.1738281 C4.13541545,16.1738281 3.92415454,16.0843108 3.74511719,15.9052734 C3.56607983,15.7262361 3.4765625,15.5078138 3.4765625,15.25 L3.45507812,13.1660156 C2.6243448,12.5787731 1.96191653,11.8268275 1.46777344,10.9101562 C0.973630342,9.993485 0.7265625,8.99805225 0.7265625,7.92382812 C0.7265625,7.03580285 0.898435781,6.19792061 1.2421875,5.41015625 C1.57161623,4.63671488 2.02636429,3.95996384 2.60644531,3.37988281 C3.18652634,2.79980179 3.86327738,2.34505373 4.63671875,2.015625 C5.42448311,1.67187328 6.25520396,1.5 7.12890625,1.5 Z M9.75,11.6835938 L9.77148438,11.6621094 C10.3587269,11.2467427 10.8313784,10.7132194 11.1894531,10.0615234 C11.5475278,9.40982747 11.7265625,8.69010811 11.7265625,7.90234375 C11.7265625,7.27213227 11.6048189,6.67773717 11.3613281,6.11914062 C11.1178373,5.56054408 10.7884135,5.07715048 10.3730469,4.66894531 C9.95768021,4.26074015 9.4778673,3.93489705 8.93359375,3.69140625 C8.37499721,3.44791545 7.77344072,3.32617188 7.12890625,3.32617188 C6.49869477,3.32617188 5.90429967,3.44791545 5.34570312,3.69140625 C4.80142957,3.93489705 4.32161666,4.26074015 3.90625,4.66894531 C3.49088334,5.07715048 3.16145955,5.56054408 2.91796875,6.11914062 C2.67447795,6.67773717 2.55273438,7.27213227 2.55273438,7.90234375 C2.55273438,8.69010811 2.73176904,9.40982747 3.08984375,10.0615234 C3.44791846,10.7132194 3.92773137,11.2539041 4.52929688,11.6835938 L5.30273438,12.2207031 L5.30273438,14.3261719 L8.9765625,14.3261719 L8.9765625,12.2207031 L9.75,11.6835938 Z" id="lightbulb-icon"></path>
                </g>
            </g>
        </g>
    </g>
</svg>