<?xml version="1.0" encoding="UTF-8"?>
<svg width="20px" height="28px" viewBox="0 0 20 28" version="1.1" xmlns="http://www.w3.org/2000/svg" xmlns:xlink="http://www.w3.org/1999/xlink">
    <!-- Generator: Sketch 50.2 (55047) - http://www.bohemiancoding.com/sketch -->
    <title>pin-icon-orange</title>
    <desc>Created with Sketch.</desc>
    <defs></defs>
    <g id="Page-1" stroke="none" stroke-width="1" fill="none" fill-rule="evenodd">
        <g id="pin-icon-orange" fill="#F96302" fill-rule="nonzero">
            <path d="M9.985,0.143 C11.307,0.143 12.542,0.389 13.692,0.887 C14.8111181,1.37518911 15.8292339,2.06806409 16.694,2.93 C17.5580483,3.80092312 18.2402788,4.83497647 18.701,5.972 C19.187,7.128 19.429,8.377 19.429,9.713 C19.429,11.481 18.948,13.371 17.999,15.38 C17.1367525,17.2378322 16.136624,19.0285033 15.007,20.737 C13.917,22.377 12.911,23.734 11.991,24.807 L9.979,27.197 L9.324,26.402 L8.004,24.801 C7.084,23.688 6.081,22.314 4.994,20.678 C3.8619525,18.9657959 2.85243335,17.1756621 1.973,15.321 C1.043,13.33 0.57,11.461 0.57,9.713 C0.57,8.377 0.812,7.128 1.296,5.977 C1.75719515,4.83803029 2.44046814,3.80224283 3.306,2.93 C4.17265418,2.06609377 5.19318654,1.37183331 6.315,0.883 C7.47434083,0.386298296 8.72376677,0.134370449 9.985,0.143 Z M9.985,13.659 L9.987,13.66 C11.076,13.66 12.024,13.267 12.78,12.5 C13.531,11.737 13.916,10.793 13.916,9.713 C13.916,8.616 13.532,7.661 12.78,6.897 C12.024,6.13 11.077,5.737 9.987,5.737 C8.94454641,5.72450726 7.94350534,6.14447386 7.222,6.897 C6.47,7.661 6.086,8.616 6.086,9.713 C6.07152263,10.7575246 6.48145415,11.763228 7.222,12.5 C7.94320005,13.2516475 8.94338844,13.6711981 9.985,13.659 Z" id="Shape"></path>
        </g>
    </g>
</svg>