<svg width="20" height="19" xmlns="http://www.w3.org/2000/svg"><path d="M4.521 8.428c.373.73.795 1.418 1.268 2.062.473.645.988 1.25 1.547 1.816.559.565 1.16 1.077 1.805 1.536.63.472 1.296.895 1.998 1.267l2.341-2.213c.086-.085.19-.157.312-.214a.922.922 0 0 1 .397-.086c.058 0 .115.007.172.021.058.015.108.029.15.043.545.186 1.121.33 1.73.43.609.1 1.236.15 1.88.15h.022c.286 0 .53.097.73.29.2.194.3.434.3.72v3.566a.96.96 0 0 1-.3.72c-.2.193-.444.29-.73.29-2.392 0-4.634-.451-6.725-1.353-2.106-.903-3.942-2.138-5.51-3.706-1.57-1.569-2.804-3.406-3.707-5.511C1.285 6.15.826 3.902.826 1.51c0-.272.1-.509.301-.71.2-.2.444-.3.73-.3h3.567c.272 0 .508.1.709.3.2.201.3.438.3.71v.043c0 .644.05 1.274.151 1.89.1.616.25 1.218.451 1.805l.01.064a1.116 1.116 0 0 1-.064.559.797.797 0 0 1-.225.322L4.52 8.428z" fill="#FFF" fill-rule="evenodd"/></svg>