<svg width="20" height="29" xmlns="http://www.w3.org/2000/svg"><path d="M10.685 24.696c.874-1.02 1.84-2.323 2.894-3.908a39.34 39.34 0 0 0 2.868-5.137c.849-1.796 1.267-3.442 1.267-4.938 0-1.112-.198-2.136-.596-3.083a7.548 7.548 0 0 0-1.637-2.49 8.083 8.083 0 0 0-2.476-1.683c-.924-.4-1.928-.6-3.02-.6a7.44 7.44 0 0 0-2.983.597 8.094 8.094 0 0 0-2.483 1.687 7.557 7.557 0 0 0-1.64 2.494c-.395.942-.593 1.966-.593 3.078 0 1.478.41 3.105 1.237 4.876a41.793 41.793 0 0 0 2.898 5.14c1.056 1.59 2.025 2.916 2.905 3.98l.667.809.692-.822zm-.7-23.553c1.322 0 2.557.246 3.707.744a9.807 9.807 0 0 1 3.002 2.043 9.253 9.253 0 0 1 2.007 3.042c.486 1.156.728 2.405.728 3.741 0 1.768-.481 3.658-1.43 5.667a41.036 41.036 0 0 1-2.992 5.357c-1.09 1.64-2.096 2.997-3.016 4.07l-2.012 2.39-.655-.795-1.32-1.601c-.92-1.113-1.923-2.487-3.01-4.123a43.528 43.528 0 0 1-3.021-5.357C1.043 14.33.57 12.461.57 10.713c0-1.336.242-2.585.726-3.736A9.26 9.26 0 0 1 3.306 3.93a9.817 9.817 0 0 1 3.009-2.047 9.16 9.16 0 0 1 3.67-.74zm0 13.516A3.768 3.768 0 0 1 7.222 13.5a3.856 3.856 0 0 1-1.136-2.787c0-1.097.384-2.052 1.136-2.816a3.768 3.768 0 0 1 2.765-1.16c1.09 0 2.037.393 2.793 1.16.752.764 1.136 1.719 1.136 2.816 0 1.08-.385 2.024-1.136 2.787-.756.767-1.704 1.16-2.793 1.16zm0-1.714c.634 0 1.14-.21 1.572-.648.435-.441.644-.954.644-1.584 0-.651-.21-1.173-.644-1.613-.431-.438-.938-.648-1.571-.648-.613 0-1.11.21-1.543.648-.434.44-.644.962-.644 1.613 0 .63.209 1.143.644 1.584.432.439.93.648 1.543.648z" fill="#66686D" fill-rule="nonzero" stroke="#66686D" stroke-width=".4"/></svg>