<?xml version="1.0" encoding="UTF-8"?>
<svg width="162px" height="80px" viewBox="0 0 162 80" version="1.1" xmlns="http://www.w3.org/2000/svg" xmlns:xlink="http://www.w3.org/1999/xlink">
    <!-- Generator: Sketch 46.2 (44496) - http://www.bohemiancoding.com/sketch -->
    <title>pr-logo-tagline-white</title>
    <desc>Created with Sketch.</desc>
    <defs></defs>
    <g id="Page-1" stroke="none" stroke-width="1" fill="none" fill-rule="evenodd">
        <g id="pr-logo-tagline-white" fill-rule="nonzero">
            <path d="M2.076,72.536 L2.076,69.392 L4.308,69.392 C4.956,69.392 5.43,69.526 5.73,69.794 C6.03,70.062 6.18,70.452 6.18,70.964 C6.18,71.476 6.03,71.868 5.73,72.14 C5.43,72.412 4.956,72.544 4.308,72.536 L2.076,72.536 Z M0.936,68.432 L0.936,77 L2.076,77 L2.076,73.496 L4.692,73.496 C5.556,73.504 6.21,73.284 6.654,72.836 C7.098,72.388 7.32,71.764 7.32,70.964 C7.32,70.164 7.098,69.542 6.654,69.098 C6.21,68.654 5.556,68.432 4.692,68.432 L0.936,68.432 L0.936,68.432 Z M9.288,73.904 C9.288,73.528 9.338,73.194 9.438,72.902 C9.538,72.61 9.676,72.364 9.852,72.164 C10.028,71.964 10.234,71.812 10.47,71.708 C10.706,71.604 10.956,71.552 11.22,71.552 C11.484,71.552 11.734,71.604 11.97,71.708 C12.206,71.812 12.412,71.964 12.588,72.164 C12.764,72.364 12.902,72.61 13.002,72.902 C13.102,73.194 13.152,73.528 13.152,73.904 C13.152,74.28 13.102,74.614 13.002,74.906 C12.902,75.198 12.764,75.442 12.588,75.638 C12.412,75.834 12.206,75.984 11.97,76.088 C11.734,76.192 11.484,76.244 11.22,76.244 C10.956,76.244 10.706,76.192 10.47,76.088 C10.234,75.984 10.028,75.834 9.852,75.638 C9.676,75.442 9.538,75.198 9.438,74.906 C9.338,74.614 9.288,74.28 9.288,73.904 Z M8.208,73.904 C8.208,74.36 8.272,74.784 8.4,75.176 C8.528,75.568 8.72,75.91 8.976,76.202 C9.232,76.494 9.548,76.722 9.924,76.886 C10.3,77.05 10.732,77.132 11.22,77.132 C11.716,77.132 12.15,77.05 12.522,76.886 C12.894,76.722 13.208,76.494 13.464,76.202 C13.72,75.91 13.912,75.568 14.04,75.176 C14.168,74.784 14.232,74.36 14.232,73.904 C14.232,73.448 14.168,73.022 14.04,72.626 C13.912,72.23 13.72,71.886 13.464,71.594 C13.208,71.302 12.894,71.072 12.522,70.904 C12.15,70.736 11.716,70.652 11.22,70.652 C10.732,70.652 10.3,70.736 9.924,70.904 C9.548,71.072 9.232,71.302 8.976,71.594 C8.72,71.886 8.528,72.23 8.4,72.626 C8.272,73.022 8.208,73.448 8.208,73.904 Z M21.576,77 L23.556,70.796 L22.5,70.796 L21.108,75.872 L21.084,75.872 L19.788,70.796 L18.672,70.796 L17.424,75.872 L17.4,75.872 L15.996,70.796 L14.868,70.796 L16.86,77 L17.964,77 L19.212,72.068 L19.236,72.068 L20.496,77 L21.576,77 Z M28.836,73.304 L25.272,73.304 C25.288,73.064 25.34,72.838 25.428,72.626 C25.516,72.414 25.636,72.228 25.788,72.068 C25.94,71.908 26.122,71.782 26.334,71.69 C26.546,71.598 26.784,71.552 27.048,71.552 C27.304,71.552 27.538,71.598 27.75,71.69 C27.962,71.782 28.146,71.906 28.302,72.062 C28.458,72.218 28.582,72.404 28.674,72.62 C28.766,72.836 28.82,73.064 28.836,73.304 L28.836,73.304 Z M29.82,75.032 L28.812,75.032 C28.724,75.44 28.542,75.744 28.266,75.944 C27.99,76.144 27.636,76.244 27.204,76.244 C26.868,76.244 26.576,76.188 26.328,76.076 C26.08,75.964 25.876,75.814 25.716,75.626 C25.556,75.438 25.44,75.222 25.368,74.978 C25.296,74.734 25.264,74.476 25.272,74.204 L29.916,74.204 C29.932,73.828 29.898,73.432 29.814,73.016 C29.73,72.6 29.578,72.216 29.358,71.864 C29.138,71.512 28.846,71.222 28.482,70.994 C28.118,70.766 27.66,70.652 27.108,70.652 C26.684,70.652 26.294,70.732 25.938,70.892 C25.582,71.052 25.274,71.276 25.014,71.564 C24.754,71.852 24.552,72.192 24.408,72.584 C24.264,72.976 24.192,73.408 24.192,73.88 C24.208,74.352 24.278,74.788 24.402,75.188 C24.526,75.588 24.712,75.932 24.96,76.22 C25.208,76.508 25.514,76.732 25.878,76.892 C26.242,77.052 26.672,77.132 27.168,77.132 C27.872,77.132 28.456,76.956 28.92,76.604 C29.384,76.252 29.684,75.728 29.82,75.032 L29.82,75.032 Z M30.936,70.796 L30.936,77 L31.956,77 L31.956,74.24 C31.956,73.84 31.996,73.486 32.076,73.178 C32.156,72.87 32.284,72.608 32.46,72.392 C32.636,72.176 32.868,72.012 33.156,71.9 C33.444,71.788 33.792,71.732 34.2,71.732 L34.2,70.652 C33.648,70.636 33.192,70.748 32.832,70.988 C32.472,71.228 32.168,71.6 31.92,72.104 L31.896,72.104 L31.896,70.796 L30.936,70.796 L30.936,70.796 Z M39.276,73.304 L35.712,73.304 C35.728,73.064 35.78,72.838 35.868,72.626 C35.956,72.414 36.076,72.228 36.228,72.068 C36.38,71.908 36.562,71.782 36.774,71.69 C36.986,71.598 37.224,71.552 37.488,71.552 C37.744,71.552 37.978,71.598 38.19,71.69 C38.402,71.782 38.586,71.906 38.742,72.062 C38.898,72.218 39.022,72.404 39.114,72.62 C39.206,72.836 39.26,73.064 39.276,73.304 L39.276,73.304 Z M40.26,75.032 L39.252,75.032 C39.164,75.44 38.982,75.744 38.706,75.944 C38.43,76.144 38.076,76.244 37.644,76.244 C37.308,76.244 37.016,76.188 36.768,76.076 C36.52,75.964 36.316,75.814 36.156,75.626 C35.996,75.438 35.88,75.222 35.808,74.978 C35.736,74.734 35.704,74.476 35.712,74.204 L40.356,74.204 C40.372,73.828 40.338,73.432 40.254,73.016 C40.17,72.6 40.018,72.216 39.798,71.864 C39.578,71.512 39.286,71.222 38.922,70.994 C38.558,70.766 38.1,70.652 37.548,70.652 C37.124,70.652 36.734,70.732 36.378,70.892 C36.022,71.052 35.714,71.276 35.454,71.564 C35.194,71.852 34.992,72.192 34.848,72.584 C34.704,72.976 34.632,73.408 34.632,73.88 C34.648,74.352 34.718,74.788 34.842,75.188 C34.966,75.588 35.152,75.932 35.4,76.22 C35.648,76.508 35.954,76.732 36.318,76.892 C36.682,77.052 37.112,77.132 37.608,77.132 C38.312,77.132 38.896,76.956 39.36,76.604 C39.824,76.252 40.124,75.728 40.26,75.032 L40.26,75.032 Z M42.156,73.952 C42.156,73.648 42.188,73.352 42.252,73.064 C42.316,72.776 42.42,72.52 42.564,72.296 C42.708,72.072 42.9,71.892 43.14,71.756 C43.38,71.62 43.672,71.552 44.016,71.552 C44.368,71.552 44.668,71.618 44.916,71.75 C45.164,71.882 45.366,72.056 45.522,72.272 C45.678,72.488 45.792,72.738 45.864,73.022 C45.936,73.306 45.972,73.6 45.972,73.904 C45.972,74.192 45.938,74.476 45.87,74.756 C45.802,75.036 45.692,75.286 45.54,75.506 C45.388,75.726 45.192,75.904 44.952,76.04 C44.712,76.176 44.42,76.244 44.076,76.244 C43.748,76.244 43.462,76.18 43.218,76.052 C42.974,75.924 42.774,75.752 42.618,75.536 C42.462,75.32 42.346,75.074 42.27,74.798 C42.194,74.522 42.156,74.24 42.156,73.952 Z M46.956,77 L46.956,68.432 L45.936,68.432 L45.936,71.624 L45.912,71.624 C45.8,71.44 45.662,71.286 45.498,71.162 C45.334,71.038 45.16,70.938 44.976,70.862 C44.792,70.786 44.608,70.732 44.424,70.7 C44.24,70.668 44.068,70.652 43.908,70.652 C43.436,70.652 43.022,70.738 42.666,70.91 C42.31,71.082 42.014,71.314 41.778,71.606 C41.542,71.898 41.366,72.24 41.25,72.632 C41.134,73.024 41.076,73.44 41.076,73.88 C41.076,74.32 41.136,74.736 41.256,75.128 C41.376,75.52 41.554,75.864 41.79,76.16 C42.026,76.456 42.322,76.692 42.678,76.868 C43.034,77.044 43.452,77.132 43.932,77.132 C44.364,77.132 44.76,77.056 45.12,76.904 C45.48,76.752 45.744,76.504 45.912,76.16 L45.936,76.16 L45.936,77 L46.956,77 L46.956,77 Z M51.9,68.432 L51.9,77 L52.92,77 L52.92,76.172 L52.944,76.172 C53.056,76.356 53.194,76.51 53.358,76.634 C53.522,76.758 53.696,76.856 53.88,76.928 C54.064,77 54.25,77.052 54.438,77.084 C54.626,77.116 54.796,77.132 54.948,77.132 C55.42,77.132 55.834,77.048 56.19,76.88 C56.546,76.712 56.842,76.482 57.078,76.19 C57.314,75.898 57.49,75.556 57.606,75.164 C57.722,74.772 57.78,74.356 57.78,73.916 C57.78,73.476 57.72,73.06 57.6,72.668 C57.48,72.276 57.302,71.93 57.066,71.63 C56.83,71.33 56.534,71.092 56.178,70.916 C55.822,70.74 55.404,70.652 54.924,70.652 C54.492,70.652 54.096,70.73 53.736,70.886 C53.376,71.042 53.112,71.292 52.944,71.636 L52.92,71.636 L52.92,68.432 L51.9,68.432 L51.9,68.432 Z M56.7,73.844 C56.7,74.148 56.668,74.444 56.604,74.732 C56.54,75.02 56.436,75.276 56.292,75.5 C56.148,75.724 55.958,75.904 55.722,76.04 C55.486,76.176 55.192,76.244 54.84,76.244 C54.488,76.244 54.188,76.178 53.94,76.046 C53.692,75.914 53.49,75.74 53.334,75.524 C53.178,75.308 53.064,75.058 52.992,74.774 C52.92,74.49 52.884,74.196 52.884,73.892 C52.884,73.604 52.918,73.32 52.986,73.04 C53.054,72.76 53.164,72.51 53.316,72.29 C53.468,72.07 53.664,71.892 53.904,71.756 C54.144,71.62 54.436,71.552 54.78,71.552 C55.108,71.552 55.394,71.616 55.638,71.744 C55.882,71.872 56.082,72.044 56.238,72.26 C56.394,72.476 56.51,72.722 56.586,72.998 C56.662,73.274 56.7,73.556 56.7,73.844 Z M61.416,77.828 C61.296,78.132 61.178,78.388 61.062,78.596 C60.946,78.804 60.818,78.974 60.678,79.106 C60.538,79.238 60.382,79.334 60.21,79.394 C60.038,79.454 59.84,79.484 59.616,79.484 C59.496,79.484 59.376,79.476 59.256,79.46 C59.136,79.444 59.02,79.416 58.908,79.376 L58.908,78.44 C58.996,78.48 59.098,78.514 59.214,78.542 C59.33,78.57 59.428,78.584 59.508,78.584 C59.716,78.584 59.89,78.534 60.03,78.434 C60.17,78.334 60.276,78.192 60.348,78.008 L60.768,76.964 L58.308,70.796 L59.46,70.796 L61.272,75.872 L61.296,75.872 L63.036,70.796 L64.116,70.796 L61.416,77.828 L61.416,77.828 Z M70.428,69.392 L70.428,77 L71.568,77 L71.568,69.392 L74.424,69.392 L74.424,68.432 L67.572,68.432 L67.572,69.392 L70.428,69.392 L70.428,69.392 Z M75.204,68.432 L75.204,77 L76.224,77 L76.224,73.496 C76.224,73.216 76.262,72.958 76.338,72.722 C76.414,72.486 76.528,72.28 76.68,72.104 C76.832,71.928 77.022,71.792 77.25,71.696 C77.478,71.6 77.748,71.552 78.06,71.552 C78.452,71.552 78.76,71.664 78.984,71.888 C79.208,72.112 79.32,72.416 79.32,72.8 L79.32,77 L80.34,77 L80.34,72.92 C80.34,72.584 80.306,72.278 80.238,72.002 C80.17,71.726 80.052,71.488 79.884,71.288 C79.716,71.088 79.496,70.932 79.224,70.82 C78.952,70.708 78.612,70.652 78.204,70.652 C78.02,70.652 77.83,70.672 77.634,70.712 C77.438,70.752 77.25,70.814 77.07,70.898 C76.89,70.982 76.728,71.09 76.584,71.222 C76.44,71.354 76.328,71.516 76.248,71.708 L76.224,71.708 L76.224,68.432 L75.204,68.432 L75.204,68.432 Z M86.184,73.304 L82.62,73.304 C82.636,73.064 82.688,72.838 82.776,72.626 C82.864,72.414 82.984,72.228 83.136,72.068 C83.288,71.908 83.47,71.782 83.682,71.69 C83.894,71.598 84.132,71.552 84.396,71.552 C84.652,71.552 84.886,71.598 85.098,71.69 C85.31,71.782 85.494,71.906 85.65,72.062 C85.806,72.218 85.93,72.404 86.022,72.62 C86.114,72.836 86.168,73.064 86.184,73.304 L86.184,73.304 Z M87.168,75.032 L86.16,75.032 C86.072,75.44 85.89,75.744 85.614,75.944 C85.338,76.144 84.984,76.244 84.552,76.244 C84.216,76.244 83.924,76.188 83.676,76.076 C83.428,75.964 83.224,75.814 83.064,75.626 C82.904,75.438 82.788,75.222 82.716,74.978 C82.644,74.734 82.612,74.476 82.62,74.204 L87.264,74.204 C87.28,73.828 87.246,73.432 87.162,73.016 C87.078,72.6 86.926,72.216 86.706,71.864 C86.486,71.512 86.194,71.222 85.83,70.994 C85.466,70.766 85.008,70.652 84.456,70.652 C84.032,70.652 83.642,70.732 83.286,70.892 C82.93,71.052 82.622,71.276 82.362,71.564 C82.102,71.852 81.9,72.192 81.756,72.584 C81.612,72.976 81.54,73.408 81.54,73.88 C81.556,74.352 81.626,74.788 81.75,75.188 C81.874,75.588 82.06,75.932 82.308,76.22 C82.556,76.508 82.862,76.732 83.226,76.892 C83.59,77.052 84.02,77.132 84.516,77.132 C85.22,77.132 85.804,76.956 86.268,76.604 C86.732,76.252 87.032,75.728 87.168,75.032 L87.168,75.032 Z M91.824,68.432 L91.824,77 L92.964,77 L92.964,73.076 L97.476,73.076 L97.476,77 L98.616,77 L98.616,68.432 L97.476,68.432 L97.476,72.116 L92.964,72.116 L92.964,68.432 L91.824,68.432 Z M101.064,73.904 C101.064,73.528 101.114,73.194 101.214,72.902 C101.314,72.61 101.452,72.364 101.628,72.164 C101.804,71.964 102.01,71.812 102.246,71.708 C102.482,71.604 102.732,71.552 102.996,71.552 C103.26,71.552 103.51,71.604 103.746,71.708 C103.982,71.812 104.188,71.964 104.364,72.164 C104.54,72.364 104.678,72.61 104.778,72.902 C104.878,73.194 104.928,73.528 104.928,73.904 C104.928,74.28 104.878,74.614 104.778,74.906 C104.678,75.198 104.54,75.442 104.364,75.638 C104.188,75.834 103.982,75.984 103.746,76.088 C103.51,76.192 103.26,76.244 102.996,76.244 C102.732,76.244 102.482,76.192 102.246,76.088 C102.01,75.984 101.804,75.834 101.628,75.638 C101.452,75.442 101.314,75.198 101.214,74.906 C101.114,74.614 101.064,74.28 101.064,73.904 Z M99.984,73.904 C99.984,74.36 100.048,74.784 100.176,75.176 C100.304,75.568 100.496,75.91 100.752,76.202 C101.008,76.494 101.324,76.722 101.7,76.886 C102.076,77.05 102.508,77.132 102.996,77.132 C103.492,77.132 103.926,77.05 104.298,76.886 C104.67,76.722 104.984,76.494 105.24,76.202 C105.496,75.91 105.688,75.568 105.816,75.176 C105.944,74.784 106.008,74.36 106.008,73.904 C106.008,73.448 105.944,73.022 105.816,72.626 C105.688,72.23 105.496,71.886 105.24,71.594 C104.984,71.302 104.67,71.072 104.298,70.904 C103.926,70.736 103.492,70.652 102.996,70.652 C102.508,70.652 102.076,70.736 101.7,70.904 C101.324,71.072 101.008,71.302 100.752,71.594 C100.496,71.886 100.304,72.23 100.176,72.626 C100.048,73.022 99.984,73.448 99.984,73.904 Z M107.208,70.796 L107.208,77 L108.228,77 L108.228,73.136 C108.228,73.016 108.258,72.866 108.318,72.686 C108.378,72.506 108.474,72.332 108.606,72.164 C108.738,71.996 108.91,71.852 109.122,71.732 C109.334,71.612 109.588,71.552 109.884,71.552 C110.116,71.552 110.306,71.586 110.454,71.654 C110.602,71.722 110.72,71.818 110.808,71.942 C110.896,72.066 110.958,72.212 110.994,72.38 C111.03,72.548 111.048,72.732 111.048,72.932 L111.048,77 L112.068,77 L112.068,73.136 C112.068,72.656 112.212,72.272 112.5,71.984 C112.788,71.696 113.184,71.552 113.688,71.552 C113.936,71.552 114.138,71.588 114.294,71.66 C114.45,71.732 114.572,71.83 114.66,71.954 C114.748,72.078 114.808,72.224 114.84,72.392 C114.872,72.56 114.888,72.74 114.888,72.932 L114.888,77 L115.908,77 L115.908,72.452 C115.908,72.132 115.858,71.858 115.758,71.63 C115.658,71.402 115.518,71.216 115.338,71.072 C115.158,70.928 114.942,70.822 114.69,70.754 C114.438,70.686 114.156,70.652 113.844,70.652 C113.436,70.652 113.062,70.744 112.722,70.928 C112.382,71.112 112.108,71.372 111.9,71.708 C111.772,71.324 111.552,71.052 111.24,70.892 C110.928,70.732 110.58,70.652 110.196,70.652 C109.324,70.652 108.656,71.004 108.192,71.708 L108.168,71.708 L108.168,70.796 L107.208,70.796 L107.208,70.796 Z M121.752,73.304 L118.188,73.304 C118.204,73.064 118.256,72.838 118.344,72.626 C118.432,72.414 118.552,72.228 118.704,72.068 C118.856,71.908 119.038,71.782 119.25,71.69 C119.462,71.598 119.7,71.552 119.964,71.552 C120.22,71.552 120.454,71.598 120.666,71.69 C120.878,71.782 121.062,71.906 121.218,72.062 C121.374,72.218 121.498,72.404 121.59,72.62 C121.682,72.836 121.736,73.064 121.752,73.304 L121.752,73.304 Z M122.736,75.032 L121.728,75.032 C121.64,75.44 121.458,75.744 121.182,75.944 C120.906,76.144 120.552,76.244 120.12,76.244 C119.784,76.244 119.492,76.188 119.244,76.076 C118.996,75.964 118.792,75.814 118.632,75.626 C118.472,75.438 118.356,75.222 118.284,74.978 C118.212,74.734 118.18,74.476 118.188,74.204 L122.832,74.204 C122.848,73.828 122.814,73.432 122.73,73.016 C122.646,72.6 122.494,72.216 122.274,71.864 C122.054,71.512 121.762,71.222 121.398,70.994 C121.034,70.766 120.576,70.652 120.024,70.652 C119.6,70.652 119.21,70.732 118.854,70.892 C118.498,71.052 118.19,71.276 117.93,71.564 C117.67,71.852 117.468,72.192 117.324,72.584 C117.18,72.976 117.108,73.408 117.108,73.88 C117.124,74.352 117.194,74.788 117.318,75.188 C117.442,75.588 117.628,75.932 117.876,76.22 C118.124,76.508 118.43,76.732 118.794,76.892 C119.158,77.052 119.588,77.132 120.084,77.132 C120.788,77.132 121.372,76.956 121.836,76.604 C122.3,76.252 122.6,75.728 122.736,75.032 L122.736,75.032 Z M128.532,76.04 L128.532,69.392 L130.452,69.392 C130.98,69.392 131.424,69.466 131.784,69.614 C132.144,69.762 132.438,69.978 132.666,70.262 C132.894,70.546 133.058,70.89 133.158,71.294 C133.258,71.698 133.308,72.156 133.308,72.668 C133.308,73.196 133.254,73.646 133.146,74.018 C133.038,74.39 132.9,74.7 132.732,74.948 C132.564,75.196 132.374,75.392 132.162,75.536 C131.95,75.68 131.736,75.79 131.52,75.866 C131.304,75.942 131.1,75.99 130.908,76.01 C130.716,76.03 130.556,76.04 130.428,76.04 L128.532,76.04 L128.532,76.04 Z M127.392,68.432 L127.392,77 L130.332,77 C131.044,77 131.66,76.9 132.18,76.7 C132.7,76.5 133.128,76.21 133.464,75.83 C133.8,75.45 134.048,74.982 134.208,74.426 C134.368,73.87 134.448,73.232 134.448,72.512 C134.448,71.136 134.092,70.112 133.38,69.44 C132.668,68.768 131.652,68.432 130.332,68.432 L127.392,68.432 L127.392,68.432 Z M139.98,73.304 L136.416,73.304 C136.432,73.064 136.484,72.838 136.572,72.626 C136.66,72.414 136.78,72.228 136.932,72.068 C137.084,71.908 137.266,71.782 137.478,71.69 C137.69,71.598 137.928,71.552 138.192,71.552 C138.448,71.552 138.682,71.598 138.894,71.69 C139.106,71.782 139.29,71.906 139.446,72.062 C139.602,72.218 139.726,72.404 139.818,72.62 C139.91,72.836 139.964,73.064 139.98,73.304 L139.98,73.304 Z M140.964,75.032 L139.956,75.032 C139.868,75.44 139.686,75.744 139.41,75.944 C139.134,76.144 138.78,76.244 138.348,76.244 C138.012,76.244 137.72,76.188 137.472,76.076 C137.224,75.964 137.02,75.814 136.86,75.626 C136.7,75.438 136.584,75.222 136.512,74.978 C136.44,74.734 136.408,74.476 136.416,74.204 L141.06,74.204 C141.076,73.828 141.042,73.432 140.958,73.016 C140.874,72.6 140.722,72.216 140.502,71.864 C140.282,71.512 139.99,71.222 139.626,70.994 C139.262,70.766 138.804,70.652 138.252,70.652 C137.828,70.652 137.438,70.732 137.082,70.892 C136.726,71.052 136.418,71.276 136.158,71.564 C135.898,71.852 135.696,72.192 135.552,72.584 C135.408,72.976 135.336,73.408 135.336,73.88 C135.352,74.352 135.422,74.788 135.546,75.188 C135.67,75.588 135.856,75.932 136.104,76.22 C136.352,76.508 136.658,76.732 137.022,76.892 C137.386,77.052 137.816,77.132 138.312,77.132 C139.016,77.132 139.6,76.956 140.064,76.604 C140.528,76.252 140.828,75.728 140.964,75.032 L140.964,75.032 Z M142.152,70.796 L142.152,79.364 L143.172,79.364 L143.172,76.172 L143.196,76.172 C143.308,76.356 143.446,76.51 143.61,76.634 C143.774,76.758 143.948,76.856 144.132,76.928 C144.316,77 144.502,77.052 144.69,77.084 C144.878,77.116 145.048,77.132 145.2,77.132 C145.672,77.132 146.086,77.048 146.442,76.88 C146.798,76.712 147.094,76.482 147.33,76.19 C147.566,75.898 147.742,75.556 147.858,75.164 C147.974,74.772 148.032,74.356 148.032,73.916 C148.032,73.476 147.972,73.06 147.852,72.668 C147.732,72.276 147.554,71.93 147.318,71.63 C147.082,71.33 146.786,71.092 146.43,70.916 C146.074,70.74 145.656,70.652 145.176,70.652 C144.744,70.652 144.348,70.73 143.988,70.886 C143.628,71.042 143.364,71.292 143.196,71.636 L143.172,71.636 L143.172,70.796 L142.152,70.796 L142.152,70.796 Z M146.952,73.844 C146.952,74.148 146.92,74.444 146.856,74.732 C146.792,75.02 146.688,75.276 146.544,75.5 C146.4,75.724 146.21,75.904 145.974,76.04 C145.738,76.176 145.444,76.244 145.092,76.244 C144.74,76.244 144.44,76.178 144.192,76.046 C143.944,75.914 143.742,75.74 143.586,75.524 C143.43,75.308 143.316,75.058 143.244,74.774 C143.172,74.49 143.136,74.196 143.136,73.892 C143.136,73.604 143.17,73.32 143.238,73.04 C143.306,72.76 143.416,72.51 143.568,72.29 C143.72,72.07 143.916,71.892 144.156,71.756 C144.396,71.62 144.688,71.552 145.032,71.552 C145.36,71.552 145.646,71.616 145.89,71.744 C146.134,71.872 146.334,72.044 146.49,72.26 C146.646,72.476 146.762,72.722 146.838,72.998 C146.914,73.274 146.952,73.556 146.952,73.844 Z M149.976,73.904 C149.976,73.528 150.026,73.194 150.126,72.902 C150.226,72.61 150.364,72.364 150.54,72.164 C150.716,71.964 150.922,71.812 151.158,71.708 C151.394,71.604 151.644,71.552 151.908,71.552 C152.172,71.552 152.422,71.604 152.658,71.708 C152.894,71.812 153.1,71.964 153.276,72.164 C153.452,72.364 153.59,72.61 153.69,72.902 C153.79,73.194 153.84,73.528 153.84,73.904 C153.84,74.28 153.79,74.614 153.69,74.906 C153.59,75.198 153.452,75.442 153.276,75.638 C153.1,75.834 152.894,75.984 152.658,76.088 C152.422,76.192 152.172,76.244 151.908,76.244 C151.644,76.244 151.394,76.192 151.158,76.088 C150.922,75.984 150.716,75.834 150.54,75.638 C150.364,75.442 150.226,75.198 150.126,74.906 C150.026,74.614 149.976,74.28 149.976,73.904 Z M148.896,73.904 C148.896,74.36 148.96,74.784 149.088,75.176 C149.216,75.568 149.408,75.91 149.664,76.202 C149.92,76.494 150.236,76.722 150.612,76.886 C150.988,77.05 151.42,77.132 151.908,77.132 C152.404,77.132 152.838,77.05 153.21,76.886 C153.582,76.722 153.896,76.494 154.152,76.202 C154.408,75.91 154.6,75.568 154.728,75.176 C154.856,74.784 154.92,74.36 154.92,73.904 C154.92,73.448 154.856,73.022 154.728,72.626 C154.6,72.23 154.408,71.886 154.152,71.594 C153.896,71.302 153.582,71.072 153.21,70.904 C152.838,70.736 152.404,70.652 151.908,70.652 C151.42,70.652 150.988,70.736 150.612,70.904 C150.236,71.072 149.92,71.302 149.664,71.594 C149.408,71.886 149.216,72.23 149.088,72.626 C148.96,73.022 148.896,73.448 148.896,73.904 Z M157.536,70.796 L157.536,68.936 L156.516,68.936 L156.516,70.796 L155.46,70.796 L155.46,71.696 L156.516,71.696 L156.516,75.644 C156.516,75.932 156.544,76.164 156.6,76.34 C156.656,76.516 156.742,76.652 156.858,76.748 C156.974,76.844 157.126,76.91 157.314,76.946 C157.502,76.982 157.728,77 157.992,77 L158.772,77 L158.772,76.1 L158.304,76.1 C158.144,76.1 158.014,76.094 157.914,76.082 C157.814,76.07 157.736,76.044 157.68,76.004 C157.624,75.964 157.586,75.908 157.566,75.836 C157.546,75.764 157.536,75.668 157.536,75.548 L157.536,71.696 L158.772,71.696 L158.772,70.796 L157.536,70.796 L157.536,70.796 Z" id="tagline" fill="#FFFFFF"></path>
            <g id="pr-logo-white">
                <g id="Referral" transform="translate(66.000000, 46.000000)" fill="#FFFFFF">
                    <polygon id="L" points="86.734 17 86.734 0.392 91.081 0.392 91.081 13.462 95.614 13.462 95.614 17"></polygon>
                    <path d="M72.412,17 L76.382,0.393 L81.85,0.393 L85.946,17 L81.29,17 L80.846,14.11 L77.388,14.11 L76.943,17 L72.413,17 L72.412,17 Z M77.902,10.824 L80.332,10.824 L79.124,3.794 L79.101,3.794 L77.903,10.824 L77.902,10.824 Z" id="A"></path>
                    <path d="M60.192,17 L60.192,0.392 L67.277,0.392 C68.084,0.407 68.799,0.57 69.423,0.879 C69.689,1.017 69.95,1.191 70.205,1.403 C70.46,1.617 70.69,1.881 70.895,2.193 C71.1,2.51 71.263,2.881 71.385,3.309 C71.507,3.737 71.568,4.232 71.568,4.794 C71.568,5.771 71.421,6.524 71.125,7.051 C70.83,7.579 70.498,7.974 70.13,8.241 C69.708,8.535 69.233,8.707 68.704,8.751 L68.704,8.796 C68.911,8.796 69.122,8.826 69.336,8.888 C69.528,8.933 69.731,9.004 69.946,9.098 C70.161,9.193 70.364,9.328 70.556,9.501 C70.794,9.721 71.006,10.067 71.183,10.537 C71.363,11.007 71.453,11.612 71.453,12.355 L71.453,16.995 L67.106,16.995 L67.106,12.177 C67.106,12.039 67.099,11.865 67.083,11.653 C67.068,11.441 67.023,11.238 66.947,11.045 C66.87,10.852 66.751,10.685 66.587,10.545 C66.424,10.403 66.187,10.335 65.873,10.335 L64.539,10.335 L64.539,16.999 L60.189,16.999 L60.192,17 Z M64.562,7.547 L65.666,7.547 C65.976,7.547 66.261,7.475 66.523,7.331 C66.74,7.211 66.943,7.009 67.127,6.731 C67.311,6.449 67.403,6.027 67.403,5.467 C67.403,4.967 67.346,4.587 67.231,4.324 C67.119,4.062 66.971,3.871 66.787,3.75 C66.597,3.627 66.394,3.552 66.177,3.526 C65.96,3.499 65.78,3.486 65.635,3.486 L64.563,3.486 L64.563,7.546 L64.562,7.547 Z" id="R"></path>
                    <path d="M47.035,17 L47.035,0.392 L54.12,0.392 C54.928,0.407 55.64,0.57 56.266,0.879 C56.533,1.017 56.794,1.191 57.046,1.403 C57.302,1.617 57.532,1.881 57.739,2.193 C57.943,2.51 58.106,2.881 58.227,3.309 C58.35,3.737 58.411,4.232 58.411,4.794 C58.411,5.771 58.263,6.524 57.968,7.051 C57.672,7.579 57.34,7.974 56.972,8.241 C56.55,8.535 56.074,8.707 55.545,8.751 L55.545,8.796 C55.752,8.796 55.963,8.826 56.178,8.888 C56.37,8.933 56.573,9.004 56.788,9.098 C57.002,9.193 57.206,9.328 57.398,9.501 C57.635,9.721 57.844,10.067 58.025,10.537 C58.205,11.007 58.295,11.612 58.295,12.355 L58.295,16.995 L53.948,16.995 L53.948,12.177 C53.948,12.039 53.94,11.865 53.925,11.653 C53.909,11.441 53.863,11.238 53.789,11.045 C53.713,10.852 53.592,10.685 53.429,10.545 C53.266,10.403 53.029,10.335 52.716,10.335 L51.381,10.335 L51.381,16.999 L47.034,16.999 L47.035,17 Z M51.405,7.547 L52.51,7.547 C52.818,7.547 53.104,7.475 53.367,7.331 C53.584,7.211 53.785,7.009 53.969,6.731 C54.152,6.449 54.244,6.027 54.244,5.467 C54.244,4.967 54.188,4.587 54.074,4.324 C53.96,4.062 53.814,3.871 53.629,3.75 C53.439,3.627 53.235,3.552 53.019,3.526 C52.802,3.499 52.619,3.486 52.476,3.486 L51.404,3.486 L51.404,7.546 L51.405,7.547 Z" id="R"></path>
                    <polygon id="E" points="35.921 17 35.921 0.392 44.971 0.392 44.994 3.928 40.269 3.928 40.269 6.748 44.619 6.748 44.619 10.128 40.269 10.128 40.269 13.461 45.176 13.461 45.176 17 35.922 17"></polygon>
                    <polygon id="F" points="25.06 17 25.06 0.392 34.132 0.392 34.132 3.928 29.407 3.928 29.407 6.728 33.777 6.728 33.777 10.148 29.407 10.148 29.407 17"></polygon>
                    <polygon id="E" points="13.946 17 13.946 0.392 22.996 0.392 23.018 3.928 18.29 3.928 18.29 6.748 22.64 6.748 22.64 10.128 18.29 10.128 18.29 13.461 23.2 13.461 23.2 17 13.944 17"></polygon>
                    <path d="M0.787,17 L0.787,0.392 L7.875,0.392 C8.68,0.407 9.395,0.57 10.018,0.879 C10.285,1.017 10.546,1.191 10.801,1.403 C11.057,1.617 11.287,1.881 11.491,2.193 C11.697,2.51 11.861,2.881 11.983,3.309 C12.103,3.737 12.165,4.232 12.165,4.794 C12.165,5.771 12.018,6.524 11.722,7.051 C11.428,7.579 11.096,7.974 10.728,8.241 C10.306,8.535 9.831,8.707 9.301,8.751 L9.301,8.796 C9.507,8.796 9.718,8.826 9.933,8.888 C10.127,8.933 10.328,9.004 10.543,9.098 C10.758,9.193 10.961,9.328 11.153,9.501 C11.393,9.721 11.6,10.067 11.78,10.537 C11.96,11.007 12.05,11.612 12.05,12.355 L12.05,16.995 L7.702,16.995 L7.702,12.177 C7.702,12.039 7.694,11.865 7.679,11.653 C7.663,11.441 7.619,11.238 7.542,11.045 C7.465,10.852 7.346,10.685 7.182,10.545 C7.018,10.403 6.782,10.335 6.468,10.335 L5.132,10.335 L5.132,16.999 L0.785,16.999 L0.787,17 Z M5.159,7.547 L6.264,7.547 C6.574,7.547 6.858,7.475 7.121,7.331 C7.339,7.211 7.541,7.009 7.724,6.731 C7.908,6.449 8,6.027 8,5.467 C8,4.967 7.942,4.587 7.83,4.324 C7.714,4.062 7.566,3.871 7.384,3.75 C7.192,3.627 6.991,3.552 6.772,3.526 C6.555,3.499 6.375,3.486 6.232,3.486 L5.157,3.486 L5.157,7.546 L5.159,7.547 Z" id="R"></path>
                </g>
                <g id="PRO" transform="translate(66.000000, 0.000000)" fill="#FFFFFF">
                    <path d="M77.51,20.37 C77.51,22.4 77.518,24.425 77.535,26.448 C77.555,28.47 77.705,30.2 77.985,31.638 C78.208,32.822 78.54,33.718 78.977,34.318 C79.417,34.921 80.167,35.221 81.231,35.221 C82.221,35.221 82.967,34.846 83.471,34.091 C83.976,33.336 84.319,32.275 84.507,30.911 C84.674,29.669 84.757,28.221 84.757,26.571 L84.757,26.086 C84.739,24.216 84.729,22.186 84.729,19.992 C84.729,18.485 84.712,17.022 84.674,15.6 C84.637,14.18 84.562,12.995 84.449,12.04 C84.376,11.556 84.292,11.068 84.199,10.573 C84.104,10.079 83.951,9.633 83.736,9.225 C83.523,8.822 83.206,8.489 82.786,8.229 C82.366,7.967 81.811,7.837 81.12,7.837 C80.354,7.837 79.733,8.067 79.257,8.525 C78.782,8.982 78.414,9.72 78.153,10.735 C77.893,11.752 77.72,13.05 77.635,14.63 C77.551,16.21 77.509,18.126 77.509,20.372 M66.397,20.425 C66.397,16.465 66.742,13.23 67.433,10.715 C68.123,8.197 69.107,6.205 70.386,4.738 C71.663,3.27 73.239,2.262 75.114,1.716 C76.99,1.169 79.13,0.896 81.538,0.896 C84.013,0.896 86.155,1.246 87.961,1.946 C89.767,2.643 91.261,3.79 92.444,5.384 C93.628,6.976 94.506,9.086 95.084,11.711 C95.662,14.331 95.95,17.571 95.95,21.421 C95.95,25.139 95.72,28.305 95.267,30.918 C94.807,33.531 94.007,35.662 92.861,37.315 C91.717,38.967 90.161,40.171 88.196,40.925 C86.229,41.677 83.758,42.055 80.778,42.055 C77.831,42.055 75.424,41.615 73.558,40.737 C71.692,39.857 70.224,38.514 69.15,36.709 C68.078,34.903 67.35,32.649 66.968,29.947 C66.584,27.244 66.394,24.069 66.394,20.424" id="Shape"></path>
                    <path d="M44.416,18.586 L47.156,18.586 C47.921,18.586 48.629,18.408 49.283,18.051 C49.821,17.751 50.32,17.253 50.778,16.557 C51.235,15.861 51.463,14.817 51.463,13.424 C51.463,12.184 51.321,11.238 51.039,10.588 C50.754,9.942 50.386,9.466 49.934,9.166 C49.462,8.864 48.958,8.682 48.421,8.616 C47.881,8.548 47.433,8.516 47.075,8.516 L44.415,8.516 L44.415,18.586 L44.416,18.586 Z M33.576,42.03 L33.576,0.842 L51.152,0.842 C53.15,0.878 54.926,1.284 56.474,2.054 C57.134,2.392 57.779,2.826 58.41,3.352 C59.043,3.879 59.614,4.532 60.123,5.312 C60.633,6.092 61.039,7.014 61.34,8.077 C61.64,9.14 61.793,10.367 61.793,11.76 C61.793,14.186 61.427,16.05 60.696,17.36 C59.962,18.666 59.139,19.65 58.226,20.306 C57.181,21.04 56.002,21.463 54.688,21.576 L54.688,21.69 C55.202,21.69 55.726,21.765 56.258,21.916 C56.734,22.028 57.238,22.202 57.772,22.436 C58.305,22.673 58.809,23.006 59.285,23.439 C59.873,23.983 60.391,24.839 60.84,26.005 C61.287,27.171 61.51,28.675 61.51,30.518 L61.51,42.028 L50.727,42.028 L50.727,30.068 C50.727,29.73 50.707,29.298 50.671,28.77 C50.634,28.244 50.521,27.742 50.333,27.262 C50.143,26.782 49.845,26.369 49.441,26.02 C49.034,25.672 48.446,25.498 47.673,25.498 L44.361,25.498 L44.361,42.03 L33.576,42.03 Z" id="Shape"></path>
                    <path d="M0.75,42.03 L0.75,0.898 L17.276,0.898 C19.446,0.936 21.37,1.395 23.05,2.278 C23.786,2.653 24.503,3.15 25.2,3.768 C25.9,4.388 26.517,5.148 27.054,6.048 C27.594,6.95 28.026,8.024 28.356,9.272 C28.686,10.52 28.852,11.969 28.852,13.62 C28.852,15.316 28.668,16.797 28.3,18.06 C27.932,19.322 27.44,20.408 26.827,21.312 C26.217,22.216 25.531,22.965 24.777,23.56 C24.022,24.154 23.237,24.647 22.427,25.043 C20.577,25.93 18.455,26.373 16.057,26.373 L11.531,26.373 L11.531,42.03 L0.75,42.03 Z M11.53,18.925 L14.73,18.925 C15.39,18.885 15.964,18.67 16.455,18.273 C16.889,17.971 17.295,17.48 17.673,16.797 C18.049,16.117 18.239,15.144 18.239,13.877 C18.239,12.514 18.049,11.474 17.672,10.755 C17.294,10.037 16.869,9.525 16.397,9.225 C15.85,8.845 15.229,8.628 14.531,8.57 L11.531,8.57 L11.531,18.925 L11.53,18.925 Z" id="Combined-Shape"></path>
                </g>
                <g id="icon">
                    <polygon id="Shape" fill="#F96302" points="62.26 62.966 0 62.966 0 0.904 62.26 0.904"></polygon>
                    <path d="M51.427,54.393 C52.369,53.527 52.369,51.868 51.427,50.93 C50.487,49.99 48.967,49.99 47.952,50.93 C47.086,51.868 47.086,53.455 47.952,54.32 C48.967,55.26 50.486,55.402 51.427,54.393 Z M35.362,33.223 L53.092,49.413 C54.902,51.218 54.829,54.105 53.022,55.98 C51.138,57.784 48.242,57.784 46.434,55.91 L29.79,38.85 L14.4,56.512 C13.386,57.594 11.576,57.594 10.49,56.512 L7.666,53.626 C6.581,52.616 6.581,50.812 7.666,49.728 L24.65,33.58 L18.643,27.81 C16.687,25.934 15.53,25.357 13.937,25.86 C12.345,26.436 10.102,26.436 8.002,25.068 C3.515,22.182 3.804,16.77 3.804,16.77 L4.164,16.193 C4.164,16.193 8.219,18.791 8.727,19.079 C9.377,19.585 11.622,20.596 13.647,17.492 C15.747,14.39 14.01,12.442 13.431,12.082 C12.925,11.792 8.871,9.124 8.871,9.124 L9.234,8.547 C9.234,8.547 13.938,6.165 18.354,8.763 C18.354,8.908 19.439,9.556 19.874,9.917 C22.697,12.442 22.697,15.257 22.191,17.565 C21.756,19.658 22.191,20.378 23.855,22.183 L29.863,28.171 L37.027,20.883 L42.239,26.223 L35.363,33.221 L35.362,33.223 Z M58.886,23.483 C59.682,24.275 59.682,25.503 58.886,26.368 L54.976,30.336 C54.181,31.131 52.95,31.131 52.083,30.336 L51.213,29.396 C50.563,28.82 50.273,27.738 50.635,27.234 C51.285,26.8 51.068,25.502 49.837,24.347 C48.102,22.545 45.857,22.472 44.99,23.409 C44.627,23.697 43.47,24.924 43.47,24.924 L38.113,19.658 L38.98,18.791 C38.98,18.791 39.2,18.573 39.632,18.068 C41.299,16.408 39.559,14.534 39.559,14.534 C34.855,9.918 28.27,9.99 28.27,9.99 L28.196,8.33 C41.442,4.94 46.436,10.71 48.246,12.516 L52.083,16.339 C53.023,17.276 52.083,19.944 53.458,21.459 C54.108,22.109 54.976,22.399 55.628,22.399 C56.353,21.749 57.512,21.967 58.091,22.615 L58.887,23.481 L58.886,23.483 Z" id="hammer-wrench" fill="#FFFFFF"></path>
                </g>
            </g>
        </g>
    </g>
</svg>