<?xml version="1.0" encoding="UTF-8"?>
<svg width="63px" height="63px" viewBox="0 0 63 63" version="1.1" xmlns="http://www.w3.org/2000/svg" xmlns:xlink="http://www.w3.org/1999/xlink">
    <!-- Generator: Sketch 49.3 (51167) - http://www.bohemiancoding.com/sketch -->
    <title>pr-logo-white</title>
    <desc>Created with Sketch.</desc>
    <defs></defs>
    <g id="Page-1" stroke="none" stroke-width="1" fill="none" fill-rule="evenodd">
        <g id="pr-logo-white" fill-rule="nonzero">
            <g id="icon">
                <polygon id="Shape" fill="#F96302" points="62.26 62.966 0 62.966 0 0.904 62.26 0.904"></polygon>
                <path d="M51.427,54.393 C52.369,53.527 52.369,51.868 51.427,50.93 C50.487,49.99 48.967,49.99 47.952,50.93 C47.086,51.868 47.086,53.455 47.952,54.32 C48.967,55.26 50.486,55.402 51.427,54.393 Z M35.362,33.223 L53.092,49.413 C54.902,51.218 54.829,54.105 53.022,55.98 C51.138,57.784 48.242,57.784 46.434,55.91 L29.79,38.85 L14.4,56.512 C13.386,57.594 11.576,57.594 10.49,56.512 L7.666,53.626 C6.581,52.616 6.581,50.812 7.666,49.728 L24.65,33.58 L18.643,27.81 C16.687,25.934 15.53,25.357 13.937,25.86 C12.345,26.436 10.102,26.436 8.002,25.068 C3.515,22.182 3.804,16.77 3.804,16.77 L4.164,16.193 C4.164,16.193 8.219,18.791 8.727,19.079 C9.377,19.585 11.622,20.596 13.647,17.492 C15.747,14.39 14.01,12.442 13.431,12.082 C12.925,11.792 8.871,9.124 8.871,9.124 L9.234,8.547 C9.234,8.547 13.938,6.165 18.354,8.763 C18.354,8.908 19.439,9.556 19.874,9.917 C22.697,12.442 22.697,15.257 22.191,17.565 C21.756,19.658 22.191,20.378 23.855,22.183 L29.863,28.171 L37.027,20.883 L42.239,26.223 L35.363,33.221 L35.362,33.223 Z M58.886,23.483 C59.682,24.275 59.682,25.503 58.886,26.368 L54.976,30.336 C54.181,31.131 52.95,31.131 52.083,30.336 L51.213,29.396 C50.563,28.82 50.273,27.738 50.635,27.234 C51.285,26.8 51.068,25.502 49.837,24.347 C48.102,22.545 45.857,22.472 44.99,23.409 C44.627,23.697 43.47,24.924 43.47,24.924 L38.113,19.658 L38.98,18.791 C38.98,18.791 39.2,18.573 39.632,18.068 C41.299,16.408 39.559,14.534 39.559,14.534 C34.855,9.918 28.27,9.99 28.27,9.99 L28.196,8.33 C41.442,4.94 46.436,10.71 48.246,12.516 L52.083,16.339 C53.023,17.276 52.083,19.944 53.458,21.459 C54.108,22.109 54.976,22.399 55.628,22.399 C56.353,21.749 57.512,21.967 58.091,22.615 L58.887,23.481 L58.886,23.483 Z" id="hammer-wrench" fill="#FFFFFF"></path>
            </g>
        </g>
    </g>
</svg>