<?xml version="1.0" encoding="UTF-8"?>
<svg width="48px" height="48px" viewBox="0 0 48 48" version="1.1" xmlns="http://www.w3.org/2000/svg" xmlns:xlink="http://www.w3.org/1999/xlink">
    <!-- Generator: Sketch 50.2 (55047) - http://www.bohemiancoding.com/sketch -->
    <title>pro-icon</title>
    <desc>Created with Sketch.</desc>
    <defs>
        <radialGradient cx="51.352948%" cy="65.2628581%" fx="51.352948%" fy="65.2628581%" r="84.3241374%" id="radialGradient-1">
            <stop stop-color="#FAD961" stop-opacity="0" offset="0%"></stop>
            <stop stop-color="#F99F02" offset="100%"></stop>
        </radialGradient>
        <circle id="path-2" cx="24" cy="24" r="24"></circle>
        <filter x="-7.3%" y="-6.8%" width="114.6%" height="113.6%" filterUnits="objectBoundingBox" id="filter-4">
            <feOffset dx="0" dy="0" in="SourceAlpha" result="shadowOffsetOuter1"></feOffset>
            <feGaussianBlur stdDeviation="1" in="shadowOffsetOuter1" result="shadowBlurOuter1"></feGaussianBlur>
            <feColorMatrix values="0 0 0 0 0   0 0 0 0 0   0 0 0 0 0  0 0 0 0.252943841 0" type="matrix" in="shadowBlurOuter1" result="shadowMatrixOuter1"></feColorMatrix>
            <feMerge>
                <feMergeNode in="shadowMatrixOuter1"></feMergeNode>
                <feMergeNode in="SourceGraphic"></feMergeNode>
            </feMerge>
        </filter>
        <polygon id="path-5" points="0.115 14.728 39.931 14.728 39.931 0.115 0.115 0.115"></polygon>
        <polygon id="path-7" points="0.058 4.66 25.824 4.66 25.824 0.23 0.058 0.23"></polygon>
    </defs>
    <g id="Page-1" stroke="none" stroke-width="1" fill="none" fill-rule="evenodd">
        <g id="pro-icon">
            <g id="a-link" fill="url(#radialGradient-1)" fill-rule="nonzero">
                <circle id="a" cx="24" cy="24" r="24"></circle>
            </g>
            <g id="Clipped">
                <mask id="mask-3" fill="white">
                    <use xlink:href="#path-2"></use>
                </mask>
                <g id="a"></g>
                <g id="Group" filter="url(#filter-4)" mask="url(#mask-3)">
                    <g transform="translate(3.000000, 5.000000)">
                        <path d="M5.59,38.986 C5.80132879,38.9771889 6.00048695,39.0849108 6.10877714,39.2665993 C6.21706734,39.4482878 6.21706734,39.6747122 6.10877714,39.8564007 C6.00048695,40.0380892 5.80132879,40.1458111 5.59,40.137 C5.28148535,40.1241368 5.03799479,39.8702827 5.03799479,39.5615 C5.03799479,39.2527173 5.28148535,38.9988632 5.59,38.986" id="Shape" fill="#F96302" fill-rule="nonzero"></path>
                        <path d="M29.918,29.752 L26.376,28.774 L24.764,28.314 L24.764,25.783 L16.732,25.783 L16.732,28.199 L15.206,28.602 L11.521,29.58 L11.55,38.64 L30.695,38.64 L29.918,29.752 Z M11.78,16.549 C11.722,16.578 11.694,16.578 11.636,16.606 C11.204,16.606 10.888,15.657 10.888,14.449 C10.888,13.241 11.233,12.291 11.636,12.291 C11.665,12.291 11.694,12.291 11.722,12.321 C12.068,12.435 12.269,12.751 12.241,13.126 C12.241,14.248 12.356,16.29 11.781,16.549 L11.78,16.549 Z M30.609,14.449 C30.609,15.629 30.263,16.606 29.859,16.606 C29.831,16.606 29.802,16.606 29.745,16.577 C29.543,16.232 29.515,15.312 29.457,14.794 C29.457,14.736 29.457,14.65 29.428,14.564 C29.342,13.471 29.774,12.09 29.774,12.291 L29.831,12.291 C30.091,12.291 30.321,12.665 30.436,13.241 C30.551,13.615 30.609,14.017 30.609,14.449 Z" id="Shape" fill="#F3F5F5" fill-rule="nonzero"></path>
                        <path d="M20.647,3.72 C25.433,3.72 29.313,8.96 29.313,15.427 C29.313,21.893 25.433,27.134 20.647,27.134 C15.861,27.134 11.982,21.893 11.982,15.427 C11.982,8.961 15.862,3.719 20.647,3.719" id="Shape" fill="#F3F5F5" fill-rule="nonzero"></path>
                        <g id="Group" stroke-width="1" fill="none" fill-rule="evenodd" transform="translate(0.840000, 28.343000)">
                            <g id="Clipped">
                                <mask id="mask-6" fill="white">
                                    <use xlink:href="#path-5"></use>
                                </mask>
                                <g id="c"></g>
                                <path d="M39.931,14.814 L34.634,20.711 L5.413,20.711 L0.115,14.843 L0.115,14.728 C0.403,11.248 0.749,7.536 0.806,7.306 C1.324,5.091 3.196,3.251 5.786,2.532 L7.658,2.013 L10.681,1.151 L10.739,1.121 L14.366,0.116 L14.366,0.145 C14.366,0.202 14.395,0.231 14.395,0.26 C14.654,1.18 15.201,1.986 15.921,2.59 C16.5821187,3.14061324 17.3596848,3.5338415 18.195,3.74 C19.3835831,4.05682118 20.6344169,4.05682118 21.823,3.74 C22.5959803,3.54339424 23.3207472,3.1912188 23.953,2.705 C24.7064886,2.12564548 25.2681795,1.33293648 25.565,0.43 C25.595,0.344 25.623,0.23 25.651,0.114 L28.703,0.977 L29.106,1.092 L31.784,1.84 L32.129,1.926 L34.259,2.531 C37.023,3.307 39.01,5.378 39.356,7.823 C39.384,7.938 39.672,11.419 39.931,14.727 L39.931,14.813 L39.931,14.814 Z" id="Shape" fill="#696969" fill-rule="nonzero" mask="url(#mask-6)"></path>
                            </g>
                        </g>
                        <g id="Group" stroke-width="1" fill="none" fill-rule="evenodd" transform="translate(7.750000, 38.410000)">
                            <g id="Clipped">
                                <mask id="mask-8" fill="white">
                                    <use xlink:href="#path-7"></use>
                                </mask>
                                <g id="e"></g>
                                <path d="M25.824,10.643 L0.058,10.643 L0.058,0.92 C0.0633742549,0.541171942 0.369171942,0.235374255 0.748,0.23 L24.961,0.23 C25.335,0.23 25.623,0.518 25.651,0.892 L25.738,4.66 L25.824,10.643 Z" id="Shape" fill="#CC9956" fill-rule="nonzero" mask="url(#mask-8)"></path>
                            </g>
                        </g>
                        <path d="M32.97,30.27 L32.94,30.587 L32.681,34.959 L32.307,41.172 C32.3095133,41.256963 32.2786406,41.3395294 32.221,41.402 L30.983,42.898 C30.8397759,43.0727345 30.5821852,43.0986725 30.407,42.956 L30.321,42.869 L29.284,41.259 C29.226,41.172 29.226,41.086 29.226,40.999 L29.917,29.752 L29.947,29.436 L32.624,30.184 L32.969,30.27 L32.97,30.27 Z" id="Shape" fill="#CC9956" fill-rule="nonzero"></path>
                        <path d="M30.136,40.468 C30.1445917,40.227494 30.2830267,40.0105953 30.4975511,39.9015254 C30.7120754,39.7924554 30.9688928,39.8083972 31.1682814,39.9431604 C31.36767,40.0779237 31.4782181,40.3102778 31.457,40.55 C31.4253627,40.9074377 31.1147096,41.1745936 30.7565638,41.152362 C30.3984181,41.1301304 30.1231894,40.8266063 30.136,40.468" id="Shape" fill="#2C2A35" fill-rule="nonzero"></path>
                        <path d="M12.154,41.23 L11.118,42.87 C11.003,43.07 10.744,43.1 10.571,42.984 L10.484,42.898 L9.247,41.402 C9.18917988,41.3395727 9.15797079,41.2570659 9.16,41.172 L8.642,32.945 L8.498,30.356 L8.498,30.328 L11.521,29.465 L11.521,29.551 L12.154,39.762 L12.241,40.971 C12.211,41.057 12.211,41.172 12.154,41.23" id="Shape" fill="#CC9956" fill-rule="nonzero"></path>
                        <path d="M10.588,39.85 C10.9530602,39.8273563 11.2673563,40.1049398 11.29,40.47 C11.3126437,40.8350602 11.0350602,41.1493563 10.67,41.172 C10.4338474,41.1866479 10.2078189,41.0741972 10.0770572,40.877007 C9.94629549,40.6798169 9.93066637,40.4278451 10.0360572,40.216007 C10.141448,40.004169 10.3518474,39.8646479 10.588,39.85" id="Shape" fill="#2C2A35" fill-rule="nonzero"></path>
                        <path d="M28.881,16.088 C28.737,17.009 28.622,17.843 28.622,17.843 C28.3032124,19.8855053 27.2733161,21.7498018 25.714,23.107 C25.3095543,22.3323188 24.6485405,21.7222065 23.844,21.381 C21.8592826,20.5754917 19.6387174,20.5754917 17.654,21.381 C16.847,21.727 16.214,22.331 15.811,23.107 L15.781,23.165 C14.285,21.957 13.306,20.058 12.989,18.045 C12.7302175,16.9211245 12.5858154,15.7739487 12.558,14.621 C12.558,13.557 12.673,12.493 12.903,11.428 C13.191,10.824 13.508,10.22 13.853,9.645 C13.997,9.415 14.113,9.242 14.199,9.098 C14.745,8.264 16.041,6.998 16.789,6.251 C16.962,6.078 17.135,5.905 17.279,5.704 C17.394,5.532 18.978,6.884 22.548,7.056 C23.268,7.085 23.987,7.171 24.678,7.315 C25.081,7.401 25.513,7.516 25.916,7.66 C26.693,7.948 27.269,8.58 27.499,9.357 L27.614,9.645 L28.363,11.544 L28.449,11.744 C28.939,13.126 29.082,14.621 28.881,16.088 Z M24.16,23.654 C24.16,24.172 23.152,24.632 21.77,24.776 L21.77,24.344 C21.7713527,24.2215907 21.7233231,24.1038003 21.6367614,24.0172386 C21.5501997,23.9306769 21.4324093,23.8826473 21.31,23.884 L20.302,23.884 C20.042,23.884 19.842,24.085 19.842,24.344 L19.842,24.804 C18.402,24.661 17.336,24.2 17.336,23.654 C17.336,22.992 18.862,22.474 20.734,22.474 C22.604,22.474 24.16,23.021 24.16,23.654 Z M29.745,10.681 C29.745,10.105 29.745,9.559 29.715,9.041 L29.715,8.724 C29.687,7.516 28.852,6.654 28.766,6.222 C28.7066474,5.9956934 28.6297479,5.77435659 28.536,5.56 C26.98,3.777 24.102,2.57 20.82,2.57 C16.156,2.57 12.356,4.957 11.924,8.006 L11.924,13.557 C11.924,13.96 11.924,14.363 11.895,14.679 C11.895,15.254 11.895,15.829 11.925,16.376 L12.039,18.016 C12.202347,20.6545885 13.2004272,23.1729023 14.889,25.207 C15.005,25.322 15.091,25.437 15.206,25.552 L15.321,25.667 C15.436,25.783 15.551,25.927 15.667,26.041 C15.983,26.358 16.329,26.645 16.674,26.904 L16.732,26.962 C19.0911644,28.7455814 22.3478356,28.7455814 24.707,26.962 L24.764,26.904 C25.167,26.617 25.541,26.3 25.887,25.984 L26.117,25.754 L26.29,25.581 C27.0041,24.7792375 27.61363,23.8901435 28.104,22.935 C28.798814,21.5870051 29.2471926,20.1257109 29.428,18.62 L29.688,16.319 L29.688,16.289 C29.716,16.059 29.745,14.334 29.745,12.349 L29.745,10.681 Z" id="Shape" fill="#F3F5F5" fill-rule="nonzero"></path>
                        <path d="M29.946,10.422 L30.119,11.889 C30.1480493,12.1069184 30.0880482,12.3273481 29.9525552,12.500478 C29.8170623,12.6736079 29.617513,12.784826 29.399,12.809 C29.2433425,12.8326661 29.0841733,12.8129429 28.939,12.752 C27.759,12.205 26.031,11.457 24.851,11.198 C22.0843993,10.5651188 19.2106007,10.5651188 16.444,11.198 C15.264,11.486 13.536,12.205 12.356,12.752 C11.953,12.953 11.434,12.78 11.262,12.349 C11.2004135,12.2040039 11.1803331,12.0447454 11.204,11.889 L11.377,10.422 C11.377,5.272 15.35,1.878 20.676,1.878 C26.002,1.878 29.946,5.301 29.946,10.422" id="Shape" fill="#AA7D41" fill-rule="nonzero"></path>
                        <path d="M29.946,8.81 L29.946,10.767 L29.687,10.767 C28.1467953,9.84367225 26.4638793,9.1826715 24.707,8.811 C22.0282644,8.26441576 19.2667356,8.26441576 16.588,8.811 C14.8234905,9.15688023 13.136243,9.81958228 11.608,10.767 L11.348,10.767 L11.348,8.81 C11.348,4.294 15.523,0.64 20.648,0.64 C25.772,0.64 29.946,4.322 29.946,8.81" id="Shape" fill="#DBAD65" fill-rule="nonzero"></path>
                    </g>
                </g>
            </g>
        </g>
    </g>
</svg>