<svg width="48" height="48" xmlns="http://www.w3.org/2000/svg" xmlns:xlink="http://www.w3.org/1999/xlink"><defs><circle id="a" cx="24" cy="24" r="24"/><path id="c" d="M.115 14.728h39.816V.115H.115z"/><path id="e" d="M.058 4.66h25.766V.23H.058v4.43z"/></defs><g fill="none" fill-rule="evenodd"><mask id="b" fill="#fff"><use xlink:href="#a"/></mask><use fill="#E6E6E6" xlink:href="#a"/><g mask="url(#b)"><path d="M8.59 43.986a.576.576 0 1 1 0 1.151.576.576 0 0 1 0-1.151" fill="#DFE9EE"/><path fill="#F3F5F5" d="M32.918 34.752l-3.542-.978-1.612-.46v-2.531h-8.032v2.416l-1.526.403-3.685.978.029 9.06h19.145zM14.78 21.549c-.058.029-.086.029-.144.057-.432 0-.748-.949-.748-2.157 0-1.208.345-2.158.748-2.158.029 0 .058 0 .086.03.346.114.547.43.519.805 0 1.122.115 3.164-.46 3.423M33.609 19.449c0 1.18-.346 2.157-.75 2.157-.028 0-.057 0-.114-.029-.202-.345-.23-1.265-.288-1.783 0-.058 0-.144-.029-.23-.086-1.093.346-2.474.346-2.273h.057c.26 0 .49.374.605.95.115.374.173.776.173 1.208"/><path d="M23.647 8.72c4.786 0 8.666 5.24 8.666 11.707 0 6.466-3.88 11.707-8.666 11.707-4.786 0-8.665-5.241-8.665-11.707 0-6.466 3.88-11.708 8.665-11.708" fill="#F3F5F5"/><g transform="translate(3.84 33.343)"><mask id="d" fill="#fff"><use xlink:href="#c"/></mask><path d="M39.931 14.814l-5.297 5.897H5.413L.115 14.843v-.115c.288-3.48.634-7.192.691-7.422.518-2.215 2.39-4.055 4.98-4.774l1.872-.519 3.023-.862.058-.03L14.366.116v.029c0 .057.029.086.029.115.259.92.806 1.726 1.526 2.33a5.68 5.68 0 0 0 2.274 1.15 7.043 7.043 0 0 0 3.628 0 5.866 5.866 0 0 0 2.13-1.035A4.735 4.735 0 0 0 25.565.43c.03-.086.058-.2.086-.316l3.052.863.403.115 2.678.748.345.086 2.13.605c2.764.776 4.751 2.847 5.097 5.292.028.115.316 3.596.575 6.904v.086z" fill="#696969" mask="url(#d)"/></g><g transform="translate(10.75 43.41)"><mask id="f" fill="#fff"><use xlink:href="#e"/></mask><path d="M25.824 10.643H.058V.92a.7.7 0 0 1 .69-.69h24.213c.374 0 .662.288.69.662l.087 3.768.086 5.983z" fill="#CC9956" mask="url(#f)"/></g><path d="M35.97 35.27l-.03.317-.259 4.372-.374 6.213a.325.325 0 0 1-.086.23l-1.238 1.496a.41.41 0 0 1-.576.058l-.086-.087-1.037-1.61c-.058-.087-.058-.173-.058-.26l.691-11.247.03-.316 2.677.748.345.086z" fill="#CC9956"/><path d="M33.136 45.468a.662.662 0 1 1 1.321.082.662.662 0 0 1-1.321-.082" fill="#2C2A35"/><path d="M15.154 46.23l-1.036 1.64c-.115.2-.374.23-.547.114l-.087-.086-1.237-1.496a.327.327 0 0 1-.087-.23l-.518-8.227-.144-2.589v-.028l3.023-.863v.086l.633 10.211.087 1.209c-.03.086-.03.201-.087.259" fill="#CC9956"/><path d="M13.588 44.85a.662.662 0 1 1 .082 1.322.662.662 0 0 1-.082-1.322" fill="#2C2A35"/><path d="M31.881 21.088c-.144.921-.259 1.755-.259 1.755a8.772 8.772 0 0 1-2.908 5.264 3.77 3.77 0 0 0-1.87-1.726 8.23 8.23 0 0 0-6.19 0c-.807.346-1.44.95-1.843 1.726l-.03.058c-1.496-1.208-2.475-3.107-2.792-5.12a17.097 17.097 0 0 1-.431-3.424c0-1.064.115-2.128.345-3.193.288-.604.605-1.208.95-1.783.144-.23.26-.403.346-.547.546-.834 1.842-2.1 2.59-2.847.173-.173.346-.346.49-.547.115-.172 1.699 1.18 5.269 1.352.72.029 1.439.115 2.13.259.403.086.835.201 1.238.345.777.288 1.353.92 1.583 1.697l.115.288.749 1.899.086.2c.49 1.382.633 2.877.432 4.344zm-4.721 7.566c0 .518-1.008.978-2.39 1.122v-.432a.455.455 0 0 0-.46-.46h-1.008c-.26 0-.46.201-.46.46v.46c-1.44-.143-2.506-.604-2.506-1.15 0-.662 1.526-1.18 3.398-1.18 1.87 0 3.426.547 3.426 1.18zm5.585-12.973c0-.576 0-1.122-.03-1.64v-.317c-.028-1.208-.863-2.07-.949-2.502a4.503 4.503 0 0 0-.23-.662C29.98 8.777 27.102 7.57 23.82 7.57c-4.664 0-8.464 2.387-8.896 5.436V18.557c0 .403 0 .806-.029 1.122 0 .575 0 1.15.03 1.697l.114 1.64a12.464 12.464 0 0 0 2.85 7.191c.116.115.202.23.317.345l.115.115c.115.116.23.26.346.374.316.317.662.604 1.007.863l.058.058a6.612 6.612 0 0 0 7.975 0l.057-.058c.403-.287.777-.604 1.123-.92l.23-.23.173-.173a12.698 12.698 0 0 0 1.814-2.646 12.731 12.731 0 0 0 1.324-4.315l.26-2.301v-.03c.028-.23.057-1.955.057-3.94v-1.668z" fill="#F3F5F5"/><path d="M32.946 15.422l.173 1.467a.817.817 0 0 1-.72.92.856.856 0 0 1-.46-.057c-1.18-.547-2.908-1.295-4.088-1.554a18.85 18.85 0 0 0-8.407 0c-1.18.288-2.908 1.007-4.088 1.554-.403.201-.922.028-1.094-.403a.85.85 0 0 1-.058-.46l.173-1.467c0-5.15 3.973-8.544 9.299-8.544s9.27 3.423 9.27 8.544" fill="#AA7D41"/><path d="M32.946 13.81v1.957h-.259a16.211 16.211 0 0 0-4.98-1.956 20.305 20.305 0 0 0-8.119 0 14.886 14.886 0 0 0-4.98 1.956h-.26V13.81c0-4.516 4.175-8.17 9.3-8.17 5.124 0 9.298 3.682 9.298 8.17" fill="#DBAD65"/></g></g></svg>