<svg width="29" height="31" xmlns="http://www.w3.org/2000/svg"><path d="M22.206 24.435c-.395-.107-.813.11-.927.487l-.911 3.017-2.57-5.831 2.269.162c.32.023.6-.136.733-.4l1.017-2.002c.006-.013.02-.029.03-.042l3.71 5.515-3.351-.906zM14.5 22.129l-1.514-.978c-.479-.31-1.247-.506-1.826-.463l-1.829.13-.796-1.565c-.25-.494-.813-1.025-1.335-1.263l-1.656-.753.139-1.73c.044-.548-.162-1.274-.489-1.727l-1.036-1.433 1.035-1.434c.327-.452.534-1.177.49-1.726l-.137-1.732 1.654-.75c.523-.24 1.085-.771 1.335-1.264l.795-1.566 1.828.132c.586.04 1.347-.153 1.826-.462l1.516-.98 1.516.98c.48.31 1.249.505 1.826.462l1.829-.132.794 1.564c.25.495.812 1.027 1.337 1.265l1.653.75-.138 1.733c-.043.549.163 1.274.49 1.726l1.035 1.434-1.036 1.433c-.327.453-.533 1.18-.489 1.726l.14 1.73-1.656.754c-.523.238-1.085.77-1.336 1.263l-.796 1.566-1.828-.131c-.584-.043-1.348.153-1.826.462l-1.515.98zm-5.867 5.81l-.911-3.017c-.114-.376-.532-.594-.927-.487l-3.352.906 3.71-5.515c.01.013.024.029.03.042l1.018 2.002c.133.263.403.42.733.4l2.268-.162-2.57 5.83zm19.25-1.784l-4.82-7.164 1.505-.685a.704.704 0 0 0 .423-.693l-.178-2.214c-.018-.222.099-.635.23-.818l1.326-1.832a.68.68 0 0 0 .001-.801l-1.325-1.836c-.133-.183-.25-.597-.232-.818l.176-2.216a.705.705 0 0 0-.423-.693l-2.115-.96c-.212-.097-.532-.398-.633-.599l-1.017-2.003a.758.758 0 0 0-.733-.4l-2.34.17c-.238.014-.67-.094-.864-.22L14.925 1.12c-.005-.003-.01-.003-.015-.005A1.046 1.046 0 0 0 14.5 1c-.164 0-.369.089-.41.114-.005.002-.01.002-.014.005l-1.94 1.255c-.194.126-.636.23-.864.219l-2.34-.17a.762.762 0 0 0-.733.4L7.182 4.827c-.1.2-.42.501-.632.598l-2.116.96a.705.705 0 0 0-.423.693l.177 2.215c.018.222-.1.636-.233.82L2.63 11.947a.68.68 0 0 0 .001.8l1.326 1.833c.132.183.249.596.23.818l-.177 2.214a.704.704 0 0 0 .422.693l1.505.685-4.82 7.164a.68.68 0 0 0 .031.806.776.776 0 0 0 .808.257l4.53-1.224 1.293 4.284a.744.744 0 0 0 .721.515.751.751 0 0 0 .692-.436L12.6 22.62l1.477.954c.01.007.022.009.033.015a.775.775 0 0 0 .131.06c.021.008.04.016.061.022a.822.822 0 0 0 .191.027h.014c.065 0 .13-.012.192-.027l.06-.021a.81.81 0 0 0 .132-.06c.01-.007.022-.009.033-.016l1.476-.954 3.408 7.737c.116.264.39.436.692.436h.044a.745.745 0 0 0 .678-.515l1.293-4.284 4.53 1.224c.297.08.619-.021.806-.257a.68.68 0 0 0 .032-.806zm-13.393-7.42c-3.728 0-6.75-2.86-6.75-6.386 0-3.526 3.022-6.385 6.75-6.385s6.75 2.859 6.75 6.385c0 3.527-3.022 6.385-6.75 6.385zm0-1.42c2.9 0 5.25-2.223 5.25-4.966 0-2.743-2.35-4.966-5.25-4.966s-5.25 2.223-5.25 4.966c0 2.743 2.35 4.966 5.25 4.966z" fill="#F96302" stroke="#F96302" stroke-width=".4" fill-rule="evenodd"/></svg>