<?xml version="1.0" encoding="utf-8"?>

<svg version="1.1" id="Layer_1" xmlns="http://www.w3.org/2000/svg" xmlns:xlink="http://www.w3.org/1999/xlink" x="0px" y="0px"
	 viewBox="0 0 62 62" style="enable-background:new 0 0 62 62;" xml:space="preserve">
<style type="text/css">
	.st0{fill:none;stroke:#F15A29;stroke-miterlimit:10;}
	.st1{fill:none;stroke:#F26422;stroke-miterlimit:10;}
	.st2{fill:#010101;}
	.st3{fill:#FFFFFF;}
	.st4{fill:#F15A29;}
</style>
<g>
	<path class="st1" d="M30.5,1c0.3,0,0.7,0,1,0c-0.4,0.7-0.8,1.5-1.1,2.2c-0.2,0.4-0.3,1.2-0.2,1.3c0.4,0.2,1.1,0.4,1.5,0.2
		c0.8-0.2,1.5-0.7,2.2-1.1c2-1.3,4-1.5,6.4-0.8c-0.3,0.4-0.4,0.5-0.5,0.7C39.4,4.3,39,5,38.5,5.7c0.9,0.1,1.8,0.4,2.7,0.3
		c2.6-0.3,5.2-1.1,7.5,1.2c-0.6,0.3-1.2,0.4-1.6,0.8C46.6,8.4,46.3,9,46,9.5c0.5,0.3,0.9,0.7,1.4,0.9c0.7,0.2,1.5,0.2,2.2,0.3
		c2.3,0.2,4.3,1,5.4,2.9c-1.1,0.6-2.1,1.1-3.1,1.7c0.9,0.7,1.7,1.5,2.6,2c2.2,1,4.1,2.2,4.7,4.8c-0.4,0-0.8,0-1.2,0
		c-0.8,0.1-1.5,0.2-2.3,0.3c0.3,0.7,0.5,1.5,1.1,2c1.9,1.7,3.6,3.6,4.2,6.2c0,0.3,0,0.7,0,1c-0.7-0.4-1.5-0.8-2.2-1.1
		c-0.4-0.2-1.2-0.3-1.3-0.2c-0.2,0.4-0.4,1.1-0.2,1.5c0.2,0.8,0.7,1.5,1.1,2.2c1.3,2,1.5,4,0.8,6.4c-0.4-0.3-0.5-0.4-0.7-0.5
		c-0.7-0.5-1.5-0.9-2.2-1.3c-0.1,0.9-0.4,1.8-0.3,2.7c0.3,2.6,1.1,5.2-1.2,7.5c-0.3-0.6-0.4-1.2-0.8-1.6c-0.4-0.4-0.9-0.7-1.4-1.1
		c-0.3,0.5-0.7,0.9-0.9,1.4c-0.2,0.7-0.2,1.5-0.3,2.2c-0.2,2.3-1,4.3-2.9,5.4c-0.6-1.1-1.1-2.1-1.7-3.1c-0.7,0.9-1.5,1.7-2,2.6
		c-1,2.2-2.2,4.1-4.8,4.7c0-0.4,0-0.8,0-1.2c-0.1-0.8-0.2-1.5-0.3-2.3c-0.7,0.3-1.5,0.5-2,1.1c-1.7,1.9-3.6,3.6-6.2,4.2
		c-0.3,0-0.7,0-1,0c0.4-0.7,0.8-1.5,1.1-2.2c0.2-0.4,0.3-1.2,0.2-1.3c-0.4-0.2-1.1-0.4-1.5-0.2c-0.8,0.2-1.5,0.7-2.2,1.1
		c-2,1.3-4,1.5-6.4,0.8c0.3-0.4,0.4-0.5,0.5-0.7c0.5-0.7,0.9-1.5,1.3-2.2c-0.9-0.1-1.8-0.4-2.7-0.3c-2.6,0.3-5.2,1.1-7.5-1.2
		c0.6-0.3,1.2-0.4,1.6-0.8c0.4-0.4,0.7-0.9,1.1-1.4c-0.5-0.3-0.9-0.7-1.4-0.9c-0.7-0.2-1.5-0.2-2.2-0.3c-2.3-0.2-4.3-1-5.4-2.9
		c1.1-0.6,2.1-1.1,3.1-1.7c-0.9-0.7-1.7-1.5-2.6-2c-2.2-1-4.1-2.2-4.7-4.8c0.4,0,0.8,0,1.2,0c0.8-0.1,1.5-0.2,2.3-0.3
		c-0.3-0.7-0.5-1.5-1.1-2C3.2,36,1.6,34.1,1,31.5c0-0.3,0-0.7,0-1c0.7,0.4,1.5,0.8,2.2,1.1c0.4,0.2,1.2,0.3,1.3,0.2
		c0.2-0.4,0.4-1.1,0.2-1.5c-0.2-0.8-0.7-1.5-1.1-2.2c-1.3-2-1.5-4-0.8-6.4c0.4,0.3,0.5,0.4,0.7,0.5C4.3,22.6,5,23,5.7,23.5
		c0.1-0.9,0.4-1.8,0.3-2.7c-0.3-2.6-1.1-5.2,1.2-7.5c0.3,0.6,0.4,1.2,0.8,1.6C8.4,15.4,9,15.7,9.5,16c0.3-0.5,0.7-0.9,0.9-1.4
		c0.2-0.7,0.2-1.5,0.3-2.2c0.2-2.3,1-4.3,2.9-5.4c0.6,1.1,1.1,2.1,1.7,3.1c0.7-0.9,1.5-1.7,2-2.6c1-2.2,2.2-4.1,4.8-4.7
		c0,0.4,0,0.8,0,1.2c0.1,0.8,0.2,1.5,0.3,2.3c0.7-0.3,1.5-0.5,2-1.1C26,3.2,27.9,1.6,30.5,1z"/>
	<g>
		<circle class="st1" cx="31" cy="31" r="6"/>
		<circle class="st1" cx="16.8" cy="31" r="2"/>
		<circle class="st1" cx="45.2" cy="31" r="2"/>
	</g>
</g>
</svg>
