<?xml version="1.0" encoding="UTF-8"?>
<svg width="18px" height="17px" viewBox="0 0 18 17" version="1.1" xmlns="http://www.w3.org/2000/svg" xmlns:xlink="http://www.w3.org/1999/xlink">
    <!-- Generator: Sketch 50.2 (55047) - http://www.bohemiancoding.com/sketch -->
    <title>Shape</title>
    <desc>Created with Sketch.</desc>
    <defs></defs>
    <g id="Page-1" stroke="none" stroke-width="1" fill="none" fill-rule="evenodd">
        <g id="Service-icons" transform="translate(-343.000000, -88.000000)" fill="#2AB68C" fill-rule="nonzero">
            <path d="M346.272724,98.8709334 L343,98.8709334 L343,94.0877344 L346.272724,94.0877344 L346.272724,98.8709334 Z M347.500017,98.8709334 L356.500051,98.8709334 L356.500051,94.0877344 L347.500017,94.0877344 L347.500017,98.8709334 Z M351.386354,88 L343,88 L343,92.7831991 L351.386354,92.7831991 L351.386354,88 Z M343,104.958668 L351.386354,104.958668 L351.386354,100.175469 L343,100.175469 L343,104.958668 Z M352.613612,88 L352.613612,92.7831991 L360.999966,92.7831991 L360.999966,88 L352.613612,88 Z M352.613612,104.958668 L360.999966,104.958668 L360.999966,100.175469 L352.613612,100.175469 L352.613612,104.958668 Z M357.727276,98.8709334 L361,98.8709334 L361,94.0877344 L357.727276,94.0877344 L357.727276,98.8709334 Z" id="Shape"></path>
        </g>
    </g>
</svg>