<?xml version="1.0" encoding="UTF-8"?>
<svg width="21px" height="17px" viewBox="0 0 21 17" version="1.1" xmlns="http://www.w3.org/2000/svg" xmlns:xlink="http://www.w3.org/1999/xlink">
    <!-- Generator: Sketch 50.2 (55047) - http://www.bohemiancoding.com/sketch -->
    <title>GC</title>
    <desc>Created with Sketch.</desc>
    <defs></defs>
    <g id="Page-1" stroke="none" stroke-width="1" fill="none" fill-rule="evenodd">
        <g id="Service-icons" transform="translate(-28.000000, -134.000000)" fill="#2AB68C">
            <path d="M47.3203125,138.203125 L49.0078125,138.203125 L47.3203125,139.796875 L45.6796875,139.796875 L47.3203125,138.203125 Z M43.9921875,138.203125 L45.6796875,138.203125 L43.9921875,139.796875 L42.328125,139.796875 L43.9921875,138.203125 Z M40.6640625,136.609375 L42.3515625,136.609375 L42.3515625,141.390625 L40.6640625,141.390625 L40.6640625,143.007812 L37.3359375,143.007812 L35.671875,151 L30.6796875,151 L32.34375,143.007812 L32.2734375,143.007812 C31.382808,143.007812 30.6210969,142.695316 29.9882812,142.070312 C29.3554656,141.445309 29.0234377,140.687504 28.9921875,139.796875 L28.9921875,138.203125 C29.0234377,137.312496 29.3554656,136.554691 29.9882812,135.929688 C30.6210969,135.304684 31.382808,134.992188 32.2734375,134.992188 L40.6640625,134.992188 L40.6640625,136.609375 Z M39,138.203125 L39,136.609375 L32.3203125,136.609375 L32.3203125,138.203125 L39,138.203125 Z" id="GC"></path>
        </g>
    </g>
</svg>