<?xml version="1.0" encoding="UTF-8"?>
<svg width="21px" height="20px" viewBox="0 0 21 20" version="1.1" xmlns="http://www.w3.org/2000/svg" xmlns:xlink="http://www.w3.org/1999/xlink">
    <!-- Generator: Sketch 50.2 (55047) - http://www.bohemiancoding.com/sketch -->
    <title>Handyman</title>
    <desc>Created with Sketch.</desc>
    <defs></defs>
    <g id="Page-1" stroke="none" stroke-width="1" fill="none" fill-rule="evenodd">
        <g id="Service-icons" transform="translate(-29.000000, -37.000000)" fill="#2AB68C">
            <path d="M48.890625,53.359375 C48.9687504,53.4218753 49.0273436,53.5039057 49.0664062,53.6054688 C49.1054689,53.7070318 49.125,53.8203119 49.125,53.9453125 C49.125,54.0859382 49.0937503,54.2148432 49.03125,54.3320312 C48.9687497,54.4492193 48.8750006,54.5468746 48.75,54.625 L46.6640625,56.734375 C46.5859371,56.8125004 46.4882818,56.8749998 46.3710938,56.921875 C46.2539057,56.9687502 46.1328131,56.9921875 46.0078125,56.9921875 C45.8828119,56.9921875 45.7656255,56.9687502 45.65625,56.921875 C45.5468745,56.8749998 45.4531254,56.8125004 45.375,56.734375 L37.1015625,48.4140625 C36.7734359,48.5390631 36.4335955,48.6328122 36.0820312,48.6953125 C35.730467,48.7578128 35.3750018,48.7890625 35.015625,48.7890625 C34.1874959,48.7890625 33.4101599,48.6289079 32.6835938,48.3085938 C31.9570276,47.9882796 31.3281277,47.5546902 30.796875,47.0078125 C30.2499973,46.4609348 29.8203141,45.8281286 29.5078125,45.109375 C29.1953109,44.3906214 29.0390625,43.6250041 29.0390625,42.8125 C29.0390625,42.3593727 29.0898432,41.9179709 29.1914062,41.4882812 C29.2929693,41.0585916 29.4296866,40.6562519 29.6015625,40.28125 L33.6328125,44.21875 L36.375,41.4765625 L32.4140625,37.5625 C32.8046895,37.3749991 33.2187478,37.2304693 33.65625,37.1289062 C34.0937522,37.0273432 34.5390602,36.9765625 34.9921875,36.9765625 C35.8203166,36.9765625 36.5937464,37.1289047 37.3125,37.4335938 C38.0312536,37.7382828 38.6640598,38.1562473 39.2109375,38.6875 C39.7421902,39.2187527 40.1679671,39.8437464 40.4882812,40.5625 C40.8085954,41.2812536 40.96875,42.0546834 40.96875,42.8828125 C40.96875,43.2578144 40.9335941,43.6249982 40.8632812,43.984375 C40.7929684,44.3437518 40.6953131,44.6796859 40.5703125,44.9921875 L48.890625,53.359375 Z" id="Handyman"></path>
        </g>
    </g>
</svg>