<svg version="1" xmlns="http://www.w3.org/2000/svg" width="933.333" height="933.333" viewBox="0 0 700 700"><path d="M0 355v345l345.8-.2 345.7-.3.3-344.8L692 10H0v345zM434.5 83.9c20.3 3.5 34.8 8.2 50.9 16.2 20.6 10.4 28.9 17.1 66.5 54.3 19.7 19.6 27.9 28.3 29.3 31.5 1.4 3.1 2.4 8.9 3.4 19.9 2.2 25.1 5.6 32.2 19.2 39.1 7.2 3.7 12.8 4.3 17.5 1.8 5.1-2.6 12.4-2.5 18.1.3 5.3 2.5 17 15.3 19.8 21.6 2.6 5.9 2 13.7-1.4 19.4-3 5.2-49.3 51.5-53.2 53.4-5.5 2.6-10.1 2.9-16.3 1.1-5.1-1.5-6.8-2.7-14.2-10.3-12.8-13.3-16.1-22.7-10.6-30.2 4.9-6.6 2.6-17.3-5.7-27-5.7-6.5-14.2-13.1-21.7-16.7-6.2-3-8.7-3.6-16-4-11.8-.7-15.1.9-27.7 13.1l-9.9 9.5-29-28.7c-15.9-15.8-29.2-29-29.3-29.5-.2-.4 4.1-5.4 9.6-11.2 11.3-11.9 14.2-16.8 14.2-24.3 0-11-6.1-20.6-20-31.7-27.3-21.8-63.4-35.8-101.5-39.5-6.6-.7-12.1-1.2-12.1-1.3-.1-.1-.3-4.2-.5-9.2l-.4-9 12-2.7c13.6-3.2 33.7-6.5 47-7.8 14.6-1.4 49.3-.4 62 1.9zm-256.3 3c17.8 4.7 31.9 13.3 47.9 29.1 9.7 9.6 15.5 18.7 19.5 30.6 3.9 11.8 4.5 29.6 1.4 46.9-3.9 22.1-2.2 28.9 11.9 45.6 4.4 5.2 22.5 23.9 40.3 41.7l32.4 32.3 39.9-40.6 39.9-40.6 28.5 29.2c15.8 16 28.7 29.5 28.9 29.9.1.4-16.9 18.2-37.8 39.5-21 21.3-37.8 39.1-37.3 39.5 10.9 9.5 196.8 179.7 199 182.3 7.6 8.7 11.5 19.5 11.5 32.2.1 20-10.5 37.5-28.1 46.3-16.5 8.3-34.1 7.8-49.6-1.3-6.5-3.7-7-4.2-107.6-107.5-47.9-49.2-87.5-89.5-87.9-89.5-.3 0-38.7 43.7-85.3 97.1-46.5 53.5-86.5 98.8-88.9 100.8-8 6.9-20.6 8.4-31.4 3.7-6.8-2.9-42.5-39.2-46-46.7-4.6-9.7-4.1-19.9 1.5-29.1 1.5-2.5 41.5-41.3 97.3-94.3 52.1-49.6 94.8-90.5 94.8-90.9 0-1.5-73.4-71.3-80.9-76.8-13.9-10.5-24-12.6-39.1-8.1-6.2 1.8-10 2.2-22 2.3-12.6 0-15.4-.3-21.4-2.3-37.2-12.5-61.6-45-66.8-89.2-1.2-10.2-.8-13.2 1.9-16.7l1.8-2.3 28.4 18c30.5 19.3 33.7 20.7 44.4 19.8 22.2-1.8 47.1-37 42.9-60.6-2.7-15.1-5.3-17.8-34.5-36.7-13.6-8.8-25.6-16.7-26.8-17.6l-2.2-1.6 2.2-3.6c1.9-3.1 3.3-3.9 13.4-7.1 16.6-5.4 24.8-6.6 41.7-6.2 10.4.3 16.7 1 22.2 2.5z"/><path d="M544.8 559.3c-11.6 3.3-18.8 13.1-18.8 25.7 0 23.7 29.5 36 45.6 18.8 4.7-4.9 6.6-9.5 7.2-16.9.5-7.1-1.4-13.1-6.2-19.4-5.5-7.1-18.2-10.9-27.8-8.2z"/></svg>