<?xml version="1.0" encoding="UTF-8"?>
<svg width="20px" height="20px" viewBox="0 0 20 20" version="1.1" xmlns="http://www.w3.org/2000/svg" xmlns:xlink="http://www.w3.org/1999/xlink">
    <!-- Generator: Sketch 50.2 (55047) - http://www.bohemiancoding.com/sketch -->
    <title>alert-icon</title>
    <desc>Created with Sketch.</desc>
    <defs></defs>
    <g id="Artboard" stroke="none" stroke-width="1" fill="none" fill-rule="evenodd">
        <g id="Desktop_Add-license_all-licenses-invalid" transform="translate(-550.000000, -444.000000)" fill="#FFFFFF">
            <g id="Group-6" transform="translate(532.000000, 430.000000)">
                <path d="M28,14 C29.3750069,14 30.6718689,14.2656223 31.890625,14.796875 C33.093756,15.3125026 34.148433,16.023433 35.0546875,16.9296875 C35.960942,17.835942 36.6796848,18.8984314 37.2109375,20.1171875 C37.7421902,21.3359436 38.0078125,22.6328056 38.0078125,24.0078125 C38.0078125,25.3828194 37.7421902,26.671869 37.2109375,27.875 C36.6796848,29.0937561 35.960942,30.1562455 35.0546875,31.0625 C34.148433,31.9687545 33.093756,32.6874973 31.890625,33.21875 C30.6718689,33.7343776 29.3750069,33.9921875 28,33.9921875 C26.6249931,33.9921875 25.3281311,33.7343776 24.109375,33.21875 C22.906244,32.6874973 21.851567,31.9687545 20.9453125,31.0625 C20.039058,30.1562455 19.3203152,29.0937561 18.7890625,27.875 C18.2578098,26.671869 17.9921875,25.3828194 17.9921875,24.0078125 C17.9921875,22.6328056 18.2578098,21.3359436 18.7890625,20.1171875 C19.3203152,18.8984314 20.039058,17.835942 20.9453125,16.9296875 C21.851567,16.023433 22.906244,15.3125026 24.109375,14.796875 C25.3281311,14.2656223 26.6249931,14 28,14 Z M28,32 C29.0937555,32 30.1328076,31.7890646 31.1171875,31.3671875 C32.0859423,30.9453104 32.9296839,30.3710974 33.6484375,29.6445312 C34.3671911,28.9179651 34.9374979,28.0703173 35.359375,27.1015625 C35.7812521,26.1328077 35.9921875,25.101568 35.9921875,24.0078125 C35.9921875,22.898432 35.7812521,21.8593798 35.359375,20.890625 C34.9374979,19.9218702 34.3671911,19.0742224 33.6484375,18.3476562 C32.9296839,17.6210901 32.0859423,17.0468771 31.1171875,16.625 C30.1328076,16.2031229 29.0937555,15.9921875 28,15.9921875 C26.9062445,15.9921875 25.8671924,16.2031229 24.8828125,16.625 C23.9140577,17.0468771 23.0703161,17.6210901 22.3515625,18.3476562 C21.6328089,19.0742224 21.0625021,19.9218702 20.640625,20.890625 C20.2187479,21.8593798 20.0078125,22.898432 20.0078125,24.0078125 C20.0078125,25.101568 20.2187479,26.1328077 20.640625,27.1015625 C21.0625021,28.0703173 21.6328089,28.9179651 22.3515625,29.6445312 C23.0703161,30.3710974 23.9140577,30.9453104 24.8828125,31.3671875 C25.8671924,31.7890646 26.9062445,32 28,32 Z M29.0078125,27.0078125 L29.0078125,29 L26.9921875,29 L26.9921875,27.0078125 L29.0078125,27.0078125 Z M29.0078125,18.9921875 L29.0078125,24.9921875 L26.9921875,24.9921875 L26.9921875,18.9921875 L29.0078125,18.9921875 Z" id="alert-icon"></path>
            </g>
        </g>
    </g>
</svg>