<?xml version="1.0" encoding="UTF-8"?>
<svg width="14px" height="14px" viewBox="0 0 14 14" version="1.1" xmlns="http://www.w3.org/2000/svg" xmlns:xlink="http://www.w3.org/1999/xlink">
    <!-- Generator: Sketch 50.2 (55047) - http://www.bohemiancoding.com/sketch -->
    <title>edit-pencil</title>
    <desc>Created with Sketch.</desc>
    <defs></defs>
    <g id="Artboard" stroke="none" stroke-width="1" fill="none" fill-rule="evenodd">
        <g id="Desktop_Step-3_Coverage-area_work-radius-map_1.2" transform="translate(-882.000000, -543.000000)" fill="#F96302">
            <g id="Group-11" transform="translate(882.000000, 538.000000)">
                <path d="M0.328125,15.546875 L8.53125,7.359375 L11.296875,10.140625 L3.109375,18.328125 L0.328125,18.328125 L0.328125,15.546875 Z M13.453125,8 L12.09375,9.34375 L9.3125,6.578125 L10.671875,5.21875 C10.7343753,5.14583297 10.8124995,5.09114602 10.90625,5.0546875 C11.0000005,5.01822898 11.0937495,5 11.1875,5 C11.2916672,5 11.3880204,5.01822898 11.4765625,5.0546875 C11.5651046,5.09114602 11.645833,5.14583297 11.71875,5.21875 L13.453125,6.953125 C13.5156253,7.01562531 13.5677081,7.09114539 13.609375,7.1796875 C13.6510419,7.26822961 13.671875,7.36458281 13.671875,7.46875 C13.671875,7.57291719 13.6510419,7.66927039 13.609375,7.7578125 C13.5677081,7.84635461 13.5156253,7.92708297 13.453125,8 Z" id="edit-pencil"></path>
            </g>
        </g>
    </g>
</svg>