<?xml version="1.0" encoding="UTF-8"?>
<svg width="24px" height="28px" viewBox="0 0 24 28" version="1.1" xmlns="http://www.w3.org/2000/svg" xmlns:xlink="http://www.w3.org/1999/xlink">
    <!-- Generator: Sketch 50.2 (55047) - http://www.bohemiancoding.com/sketch -->
    <title>png</title>
    <desc>Created with Sketch.</desc>
    <defs></defs>
    <g id="Icons" stroke="none" stroke-width="1" fill="none" fill-rule="evenodd">
        <g id="Service-icons" transform="translate(-106.000000, -512.000000)" fill-rule="nonzero">
            <g id="png" transform="translate(106.000000, 512.000000)">
                <path d="M5.14285714,0 C4.2,0 3.42857143,0.771428571 3.42857143,1.71428571 L3.42857143,25.7142857 C3.42857143,26.6571429 4.2,27.4285714 5.14285714,27.4285714 L22.2857143,27.4285714 C23.2285714,27.4285714 24,26.6571429 24,25.7142857 L24,6.85714286 L17.1428571,0 L5.14285714,0 Z" id="Shape" fill="#E2E5E7"></path>
                <path d="M18.8571429,6.85714286 L24,6.85714286 L17.1428571,0 L17.1428571,5.14285714 C17.1428571,6.08571429 17.9142857,6.85714286 18.8571429,6.85714286 Z" id="Shape" fill="#B0B7BD"></path>
                <polygon id="Shape" fill="#CAD1D8" points="24 12 18.8571429 6.85714286 24 6.85714286"></polygon>
                <path d="M20.5714286,22.2857143 C20.5714286,22.7571429 20.1857143,23.1428571 19.7142857,23.1428571 L0.857142857,23.1428571 C0.385714286,23.1428571 0,22.7571429 0,22.2857143 L0,13.7142857 C0,13.2428571 0.385714286,12.8571429 0.857142857,12.8571429 L19.7142857,12.8571429 C20.1857143,12.8571429 20.5714286,13.2428571 20.5714286,13.7142857 L20.5714286,22.2857143 Z" id="Shape" fill="#008EFF"></path>
                <g id="Group" transform="translate(3.214286, 15.696429)" fill="#FFFFFF">
                    <path d="M0.0437142857,0.543857143 C0.0437142857,0.317571429 0.221142857,0.0698571429 0.509142857,0.0698571429 L2.09314286,0.0698571429 C2.98371429,0.0698571429 3.786,0.666428571 3.786,1.81071429 C3.786,2.89414286 2.98371429,3.49671429 2.09314286,3.49671429 L0.947142857,3.49671429 L0.947142857,4.40185714 C0.947142857,4.70442857 0.756857143,4.875 0.509142857,4.875 C0.282857143,4.875 0.0437142857,4.70442857 0.0437142857,4.40185714 C0.0437142857,4.40185714 0.0437142857,0.543857143 0.0437142857,0.543857143 Z M0.947142857,0.933857143 L0.947142857,2.64042857 L2.09228571,2.64042857 C2.55085714,2.64042857 2.91428571,2.23585714 2.91428571,1.81071429 C2.91428571,1.33071429 2.55085714,0.933857143 2.09228571,0.933857143 L0.947142857,0.933857143 Z" id="Shape"></path>
                    <path d="M4.65942857,0.612428571 C4.65942857,0.364714286 4.71428571,0.125571429 5.07085714,0.125571429 C5.31685714,0.125571429 5.37257143,0.187285714 5.55685714,0.364714286 L7.82485714,3.20271429 L7.82485714,0.543857143 C7.82485714,0.317571429 8.02285714,0.0698571429 8.25685714,0.0698571429 C8.50371429,0.0698571429 8.74285714,0.317571429 8.74285714,0.543857143 L8.74285714,4.40185714 C8.74285714,4.70442857 8.55771429,4.81928571 8.37942857,4.875 C8.14028571,4.875 8.02285714,4.82014286 7.82485714,4.63585714 L5.55685714,1.75671429 L5.55685714,4.40271429 C5.55685714,4.70528571 5.37171429,4.87585714 5.12485714,4.87585714 C4.878,4.87585714 4.65857143,4.70528571 4.65857143,4.40271429 L4.65857143,0.612428571 L4.65942857,0.612428571 Z" id="Shape"></path>
                    <path d="M13.8985714,4.34785714 C13.4117143,4.75157143 12.8151429,4.92385714 12.2125714,4.92385714 C10.7725714,4.92385714 9.75171429,4.101 9.75171429,2.46985714 C9.75171429,1.08557143 10.8282857,0.00985714286 12.2734286,0.00985714286 C12.8151429,0.00985714286 13.4108571,0.195 13.836,0.613285714 C14.2542857,1.02385714 13.6508571,1.63414286 13.2402857,1.27157143 C12.9865714,1.02385714 12.63,0.839571429 12.2734286,0.839571429 C11.4445714,0.839571429 10.6431429,1.50385714 10.6431429,2.46985714 C10.6431429,3.48471429 11.3142857,4.101 12.2125714,4.101 C12.63,4.101 12.9865714,3.97757143 13.2402857,3.79242857 L13.2402857,2.95071429 L12.2125714,2.95071429 C11.6022857,2.95071429 11.664,2.11328571 12.2125714,2.11328571 L13.5831429,2.11328571 C13.8368571,2.11328571 14.0691429,2.30614286 14.0691429,2.51871429 L14.0691429,3.97842857 C14.0691429,4.101 14.0151429,4.21671429 13.8985714,4.34785714 Z" id="Shape"></path>
                </g>
                <path d="M19.7142857,23.1428571 L3.42857143,23.1428571 L3.42857143,24 L19.7142857,24 C20.1857143,24 20.5714286,23.6142857 20.5714286,23.1428571 L20.5714286,22.2857143 C20.5714286,22.7571429 20.1857143,23.1428571 19.7142857,23.1428571 Z" id="Shape" fill="#CAD1D8"></path>
            </g>
        </g>
    </g>
</svg>