<?xml version="1.0" encoding="UTF-8"?>
<svg width="24px" height="28px" viewBox="0 0 24 28" version="1.1" xmlns="http://www.w3.org/2000/svg" xmlns:xlink="http://www.w3.org/1999/xlink">
    <!-- Generator: Sketch 50.2 (55047) - http://www.bohemiancoding.com/sketch -->
    <title>jpg</title>
    <desc>Created with Sketch.</desc>
    <defs></defs>
    <g id="Icons" stroke="none" stroke-width="1" fill="none" fill-rule="evenodd">
        <g id="Service-icons" transform="translate(-29.000000, -512.000000)" fill-rule="nonzero">
            <g id="jpg" transform="translate(29.000000, 512.000000)">
                <path d="M5.14285714,0 C4.2,0 3.42857143,0.771428571 3.42857143,1.71428571 L3.42857143,25.7142857 C3.42857143,26.6571429 4.2,27.4285714 5.14285714,27.4285714 L22.2857143,27.4285714 C23.2285714,27.4285714 24,26.6571429 24,25.7142857 L24,6.85714286 L17.1428571,0 L5.14285714,0 Z" id="Shape" fill="#E2E5E7"></path>
                <path d="M18.8571429,6.85714286 L24,6.85714286 L17.1428571,0 L17.1428571,5.14285714 C17.1428571,6.08571429 17.9142857,6.85714286 18.8571429,6.85714286 Z" id="Shape" fill="#B0B7BD"></path>
                <polygon id="Shape" fill="#CAD1D8" points="24 12 18.8571429 6.85714286 24 6.85714286"></polygon>
                <path d="M20.5714286,22.2857143 C20.5714286,22.7571429 20.1857143,23.1428571 19.7142857,23.1428571 L0.857142857,23.1428571 C0.385714286,23.1428571 0,22.7571429 0,22.2857143 L0,13.7142857 C0,13.2428571 0.385714286,12.8571429 0.857142857,12.8571429 L19.7142857,12.8571429 C20.1857143,12.8571429 20.5714286,13.2428571 20.5714286,13.7142857 L20.5714286,22.2857143 Z" id="Shape" fill="#008EFF"></path>
                <g id="Group" transform="translate(3.482143, 15.696429)" fill="#FFFFFF">
                    <path d="M2.409,0.543857143 C2.409,-0.0321428571 3.31414286,-0.0321428571 3.31414286,0.543857143 L3.31414286,3.25071429 C3.31414286,4.32728571 2.79985714,4.97871429 1.61442857,4.97871429 C1.03157143,4.97871429 0.545571429,4.82014286 0.120428571,4.27242857 C-0.229285714,3.85414286 0.429,3.25157143 0.785571429,3.68957143 C1.07357143,4.04614286 1.38214286,4.12842857 1.683,4.11471429 C2.06614286,4.101 2.403,3.92871429 2.40985714,3.25071429 L2.40985714,0.543857143 L2.409,0.543857143 Z" id="Shape"></path>
                    <path d="M4.51842857,0.543857143 C4.51842857,0.317571429 4.69671429,0.0707142857 4.98471429,0.0707142857 L6.56785714,0.0707142857 C7.45928571,0.0707142857 8.26157143,0.667285714 8.26157143,1.81071429 C8.26157143,2.89414286 7.45928571,3.49757143 6.56785714,3.49757143 L5.42357143,3.49757143 L5.42357143,4.40271429 C5.42357143,4.70442857 5.23157143,4.875 4.98471429,4.875 C4.75842857,4.875 4.51842857,4.70442857 4.51842857,4.40271429 L4.51842857,0.543857143 Z M5.42357143,0.933857143 L5.42357143,2.64128571 L6.56785714,2.64128571 C7.02728571,2.64128571 7.39071429,2.23585714 7.39071429,1.81071429 C7.39071429,1.33157143 7.02728571,0.933857143 6.56785714,0.933857143 L5.42357143,0.933857143 Z" id="Shape"></path>
                    <path d="M13.1558571,4.34785714 C12.669,4.75242857 12.0724286,4.92385714 11.4698571,4.92385714 C10.0298571,4.92385714 9.009,4.10185714 9.009,2.46985714 C9.009,1.08642857 10.0855714,0.0107142857 11.5307143,0.0107142857 C12.0724286,0.0107142857 12.6681429,0.195 13.0932857,0.613285714 C13.5107143,1.02385714 12.9081429,1.63414286 12.4975714,1.27157143 C12.2438571,1.02471429 11.8872857,0.839571429 11.5307143,0.839571429 C10.7018571,0.839571429 9.90042857,1.50385714 9.90042857,2.46985714 C9.90042857,3.48471429 10.5715714,4.10185714 11.4698571,4.10185714 C11.8872857,4.10185714 12.2438571,3.97757143 12.4975714,3.79328571 L12.4975714,2.95071429 L11.4698571,2.95071429 C10.8595714,2.95071429 10.9212857,2.11414286 11.4698571,2.11414286 L12.8404286,2.11414286 C13.0941429,2.11414286 13.3264286,2.30614286 13.3264286,2.51871429 L13.3264286,3.97842857 C13.3264286,4.10185714 13.2724286,4.21671429 13.1558571,4.34785714 Z" id="Shape"></path>
                </g>
                <path d="M19.7142857,23.1428571 L3.42857143,23.1428571 L3.42857143,24 L19.7142857,24 C20.1857143,24 20.5714286,23.6142857 20.5714286,23.1428571 L20.5714286,22.2857143 C20.5714286,22.7571429 20.1857143,23.1428571 19.7142857,23.1428571 Z" id="Shape" fill="#CAD1D8"></path>
            </g>
        </g>
    </g>
</svg>