<?xml version="1.0" encoding="UTF-8"?>
<svg width="162px" height="63px" viewBox="0 0 162 63" version="1.1" xmlns="http://www.w3.org/2000/svg" xmlns:xlink="http://www.w3.org/1999/xlink">
    <!-- Generator: Sketch 46.2 (44496) - http://www.bohemiancoding.com/sketch -->
    <title>pr-logo-white</title>
    <desc>Created with Sketch.</desc>
    <defs></defs>
    <g id="Page-1" stroke="none" stroke-width="1" fill="none" fill-rule="evenodd">
        <g id="pr-logo-tagline-white" fill-rule="nonzero">
            <g id="pr-logo-white">
                <g id="Referral" transform="translate(66.000000, 46.000000)" fill="#FFFFFF">
                    <polygon id="L" points="86.734 17 86.734 0.392 91.081 0.392 91.081 13.462 95.614 13.462 95.614 17"></polygon>
                    <path d="M72.412,17 L76.382,0.393 L81.85,0.393 L85.946,17 L81.29,17 L80.846,14.11 L77.388,14.11 L76.943,17 L72.413,17 L72.412,17 Z M77.902,10.824 L80.332,10.824 L79.124,3.794 L79.101,3.794 L77.903,10.824 L77.902,10.824 Z" id="A"></path>
                    <path d="M60.192,17 L60.192,0.392 L67.277,0.392 C68.084,0.407 68.799,0.57 69.423,0.879 C69.689,1.017 69.95,1.191 70.205,1.403 C70.46,1.617 70.69,1.881 70.895,2.193 C71.1,2.51 71.263,2.881 71.385,3.309 C71.507,3.737 71.568,4.232 71.568,4.794 C71.568,5.771 71.421,6.524 71.125,7.051 C70.83,7.579 70.498,7.974 70.13,8.241 C69.708,8.535 69.233,8.707 68.704,8.751 L68.704,8.796 C68.911,8.796 69.122,8.826 69.336,8.888 C69.528,8.933 69.731,9.004 69.946,9.098 C70.161,9.193 70.364,9.328 70.556,9.501 C70.794,9.721 71.006,10.067 71.183,10.537 C71.363,11.007 71.453,11.612 71.453,12.355 L71.453,16.995 L67.106,16.995 L67.106,12.177 C67.106,12.039 67.099,11.865 67.083,11.653 C67.068,11.441 67.023,11.238 66.947,11.045 C66.87,10.852 66.751,10.685 66.587,10.545 C66.424,10.403 66.187,10.335 65.873,10.335 L64.539,10.335 L64.539,16.999 L60.189,16.999 L60.192,17 Z M64.562,7.547 L65.666,7.547 C65.976,7.547 66.261,7.475 66.523,7.331 C66.74,7.211 66.943,7.009 67.127,6.731 C67.311,6.449 67.403,6.027 67.403,5.467 C67.403,4.967 67.346,4.587 67.231,4.324 C67.119,4.062 66.971,3.871 66.787,3.75 C66.597,3.627 66.394,3.552 66.177,3.526 C65.96,3.499 65.78,3.486 65.635,3.486 L64.563,3.486 L64.563,7.546 L64.562,7.547 Z" id="R"></path>
                    <path d="M47.035,17 L47.035,0.392 L54.12,0.392 C54.928,0.407 55.64,0.57 56.266,0.879 C56.533,1.017 56.794,1.191 57.046,1.403 C57.302,1.617 57.532,1.881 57.739,2.193 C57.943,2.51 58.106,2.881 58.227,3.309 C58.35,3.737 58.411,4.232 58.411,4.794 C58.411,5.771 58.263,6.524 57.968,7.051 C57.672,7.579 57.34,7.974 56.972,8.241 C56.55,8.535 56.074,8.707 55.545,8.751 L55.545,8.796 C55.752,8.796 55.963,8.826 56.178,8.888 C56.37,8.933 56.573,9.004 56.788,9.098 C57.002,9.193 57.206,9.328 57.398,9.501 C57.635,9.721 57.844,10.067 58.025,10.537 C58.205,11.007 58.295,11.612 58.295,12.355 L58.295,16.995 L53.948,16.995 L53.948,12.177 C53.948,12.039 53.94,11.865 53.925,11.653 C53.909,11.441 53.863,11.238 53.789,11.045 C53.713,10.852 53.592,10.685 53.429,10.545 C53.266,10.403 53.029,10.335 52.716,10.335 L51.381,10.335 L51.381,16.999 L47.034,16.999 L47.035,17 Z M51.405,7.547 L52.51,7.547 C52.818,7.547 53.104,7.475 53.367,7.331 C53.584,7.211 53.785,7.009 53.969,6.731 C54.152,6.449 54.244,6.027 54.244,5.467 C54.244,4.967 54.188,4.587 54.074,4.324 C53.96,4.062 53.814,3.871 53.629,3.75 C53.439,3.627 53.235,3.552 53.019,3.526 C52.802,3.499 52.619,3.486 52.476,3.486 L51.404,3.486 L51.404,7.546 L51.405,7.547 Z" id="R"></path>
                    <polygon id="E" points="35.921 17 35.921 0.392 44.971 0.392 44.994 3.928 40.269 3.928 40.269 6.748 44.619 6.748 44.619 10.128 40.269 10.128 40.269 13.461 45.176 13.461 45.176 17 35.922 17"></polygon>
                    <polygon id="F" points="25.06 17 25.06 0.392 34.132 0.392 34.132 3.928 29.407 3.928 29.407 6.728 33.777 6.728 33.777 10.148 29.407 10.148 29.407 17"></polygon>
                    <polygon id="E" points="13.946 17 13.946 0.392 22.996 0.392 23.018 3.928 18.29 3.928 18.29 6.748 22.64 6.748 22.64 10.128 18.29 10.128 18.29 13.461 23.2 13.461 23.2 17 13.944 17"></polygon>
                    <path d="M0.787,17 L0.787,0.392 L7.875,0.392 C8.68,0.407 9.395,0.57 10.018,0.879 C10.285,1.017 10.546,1.191 10.801,1.403 C11.057,1.617 11.287,1.881 11.491,2.193 C11.697,2.51 11.861,2.881 11.983,3.309 C12.103,3.737 12.165,4.232 12.165,4.794 C12.165,5.771 12.018,6.524 11.722,7.051 C11.428,7.579 11.096,7.974 10.728,8.241 C10.306,8.535 9.831,8.707 9.301,8.751 L9.301,8.796 C9.507,8.796 9.718,8.826 9.933,8.888 C10.127,8.933 10.328,9.004 10.543,9.098 C10.758,9.193 10.961,9.328 11.153,9.501 C11.393,9.721 11.6,10.067 11.78,10.537 C11.96,11.007 12.05,11.612 12.05,12.355 L12.05,16.995 L7.702,16.995 L7.702,12.177 C7.702,12.039 7.694,11.865 7.679,11.653 C7.663,11.441 7.619,11.238 7.542,11.045 C7.465,10.852 7.346,10.685 7.182,10.545 C7.018,10.403 6.782,10.335 6.468,10.335 L5.132,10.335 L5.132,16.999 L0.785,16.999 L0.787,17 Z M5.159,7.547 L6.264,7.547 C6.574,7.547 6.858,7.475 7.121,7.331 C7.339,7.211 7.541,7.009 7.724,6.731 C7.908,6.449 8,6.027 8,5.467 C8,4.967 7.942,4.587 7.83,4.324 C7.714,4.062 7.566,3.871 7.384,3.75 C7.192,3.627 6.991,3.552 6.772,3.526 C6.555,3.499 6.375,3.486 6.232,3.486 L5.157,3.486 L5.157,7.546 L5.159,7.547 Z" id="R"></path>
                </g>
                <g id="PRO" transform="translate(66.000000, 0.000000)" fill="#FFFFFF">
                    <path d="M77.51,20.37 C77.51,22.4 77.518,24.425 77.535,26.448 C77.555,28.47 77.705,30.2 77.985,31.638 C78.208,32.822 78.54,33.718 78.977,34.318 C79.417,34.921 80.167,35.221 81.231,35.221 C82.221,35.221 82.967,34.846 83.471,34.091 C83.976,33.336 84.319,32.275 84.507,30.911 C84.674,29.669 84.757,28.221 84.757,26.571 L84.757,26.086 C84.739,24.216 84.729,22.186 84.729,19.992 C84.729,18.485 84.712,17.022 84.674,15.6 C84.637,14.18 84.562,12.995 84.449,12.04 C84.376,11.556 84.292,11.068 84.199,10.573 C84.104,10.079 83.951,9.633 83.736,9.225 C83.523,8.822 83.206,8.489 82.786,8.229 C82.366,7.967 81.811,7.837 81.12,7.837 C80.354,7.837 79.733,8.067 79.257,8.525 C78.782,8.982 78.414,9.72 78.153,10.735 C77.893,11.752 77.72,13.05 77.635,14.63 C77.551,16.21 77.509,18.126 77.509,20.372 M66.397,20.425 C66.397,16.465 66.742,13.23 67.433,10.715 C68.123,8.197 69.107,6.205 70.386,4.738 C71.663,3.27 73.239,2.262 75.114,1.716 C76.99,1.169 79.13,0.896 81.538,0.896 C84.013,0.896 86.155,1.246 87.961,1.946 C89.767,2.643 91.261,3.79 92.444,5.384 C93.628,6.976 94.506,9.086 95.084,11.711 C95.662,14.331 95.95,17.571 95.95,21.421 C95.95,25.139 95.72,28.305 95.267,30.918 C94.807,33.531 94.007,35.662 92.861,37.315 C91.717,38.967 90.161,40.171 88.196,40.925 C86.229,41.677 83.758,42.055 80.778,42.055 C77.831,42.055 75.424,41.615 73.558,40.737 C71.692,39.857 70.224,38.514 69.15,36.709 C68.078,34.903 67.35,32.649 66.968,29.947 C66.584,27.244 66.394,24.069 66.394,20.424" id="Shape"></path>
                    <path d="M44.416,18.586 L47.156,18.586 C47.921,18.586 48.629,18.408 49.283,18.051 C49.821,17.751 50.32,17.253 50.778,16.557 C51.235,15.861 51.463,14.817 51.463,13.424 C51.463,12.184 51.321,11.238 51.039,10.588 C50.754,9.942 50.386,9.466 49.934,9.166 C49.462,8.864 48.958,8.682 48.421,8.616 C47.881,8.548 47.433,8.516 47.075,8.516 L44.415,8.516 L44.415,18.586 L44.416,18.586 Z M33.576,42.03 L33.576,0.842 L51.152,0.842 C53.15,0.878 54.926,1.284 56.474,2.054 C57.134,2.392 57.779,2.826 58.41,3.352 C59.043,3.879 59.614,4.532 60.123,5.312 C60.633,6.092 61.039,7.014 61.34,8.077 C61.64,9.14 61.793,10.367 61.793,11.76 C61.793,14.186 61.427,16.05 60.696,17.36 C59.962,18.666 59.139,19.65 58.226,20.306 C57.181,21.04 56.002,21.463 54.688,21.576 L54.688,21.69 C55.202,21.69 55.726,21.765 56.258,21.916 C56.734,22.028 57.238,22.202 57.772,22.436 C58.305,22.673 58.809,23.006 59.285,23.439 C59.873,23.983 60.391,24.839 60.84,26.005 C61.287,27.171 61.51,28.675 61.51,30.518 L61.51,42.028 L50.727,42.028 L50.727,30.068 C50.727,29.73 50.707,29.298 50.671,28.77 C50.634,28.244 50.521,27.742 50.333,27.262 C50.143,26.782 49.845,26.369 49.441,26.02 C49.034,25.672 48.446,25.498 47.673,25.498 L44.361,25.498 L44.361,42.03 L33.576,42.03 Z" id="Shape"></path>
                    <path d="M0.75,42.03 L0.75,0.898 L17.276,0.898 C19.446,0.936 21.37,1.395 23.05,2.278 C23.786,2.653 24.503,3.15 25.2,3.768 C25.9,4.388 26.517,5.148 27.054,6.048 C27.594,6.95 28.026,8.024 28.356,9.272 C28.686,10.52 28.852,11.969 28.852,13.62 C28.852,15.316 28.668,16.797 28.3,18.06 C27.932,19.322 27.44,20.408 26.827,21.312 C26.217,22.216 25.531,22.965 24.777,23.56 C24.022,24.154 23.237,24.647 22.427,25.043 C20.577,25.93 18.455,26.373 16.057,26.373 L11.531,26.373 L11.531,42.03 L0.75,42.03 Z M11.53,18.925 L14.73,18.925 C15.39,18.885 15.964,18.67 16.455,18.273 C16.889,17.971 17.295,17.48 17.673,16.797 C18.049,16.117 18.239,15.144 18.239,13.877 C18.239,12.514 18.049,11.474 17.672,10.755 C17.294,10.037 16.869,9.525 16.397,9.225 C15.85,8.845 15.229,8.628 14.531,8.57 L11.531,8.57 L11.531,18.925 L11.53,18.925 Z" id="Combined-Shape"></path>
                </g>
                <g id="icon">
                    <polygon id="Shape" fill="#F96302" points="62.26 62.966 0 62.966 0 0.904 62.26 0.904"></polygon>
                    <path d="M51.427,54.393 C52.369,53.527 52.369,51.868 51.427,50.93 C50.487,49.99 48.967,49.99 47.952,50.93 C47.086,51.868 47.086,53.455 47.952,54.32 C48.967,55.26 50.486,55.402 51.427,54.393 Z M35.362,33.223 L53.092,49.413 C54.902,51.218 54.829,54.105 53.022,55.98 C51.138,57.784 48.242,57.784 46.434,55.91 L29.79,38.85 L14.4,56.512 C13.386,57.594 11.576,57.594 10.49,56.512 L7.666,53.626 C6.581,52.616 6.581,50.812 7.666,49.728 L24.65,33.58 L18.643,27.81 C16.687,25.934 15.53,25.357 13.937,25.86 C12.345,26.436 10.102,26.436 8.002,25.068 C3.515,22.182 3.804,16.77 3.804,16.77 L4.164,16.193 C4.164,16.193 8.219,18.791 8.727,19.079 C9.377,19.585 11.622,20.596 13.647,17.492 C15.747,14.39 14.01,12.442 13.431,12.082 C12.925,11.792 8.871,9.124 8.871,9.124 L9.234,8.547 C9.234,8.547 13.938,6.165 18.354,8.763 C18.354,8.908 19.439,9.556 19.874,9.917 C22.697,12.442 22.697,15.257 22.191,17.565 C21.756,19.658 22.191,20.378 23.855,22.183 L29.863,28.171 L37.027,20.883 L42.239,26.223 L35.363,33.221 L35.362,33.223 Z M58.886,23.483 C59.682,24.275 59.682,25.503 58.886,26.368 L54.976,30.336 C54.181,31.131 52.95,31.131 52.083,30.336 L51.213,29.396 C50.563,28.82 50.273,27.738 50.635,27.234 C51.285,26.8 51.068,25.502 49.837,24.347 C48.102,22.545 45.857,22.472 44.99,23.409 C44.627,23.697 43.47,24.924 43.47,24.924 L38.113,19.658 L38.98,18.791 C38.98,18.791 39.2,18.573 39.632,18.068 C41.299,16.408 39.559,14.534 39.559,14.534 C34.855,9.918 28.27,9.99 28.27,9.99 L28.196,8.33 C41.442,4.94 46.436,10.71 48.246,12.516 L52.083,16.339 C53.023,17.276 52.083,19.944 53.458,21.459 C54.108,22.109 54.976,22.399 55.628,22.399 C56.353,21.749 57.512,21.967 58.091,22.615 L58.887,23.481 L58.886,23.483 Z" id="hammer-wrench" fill="#FFFFFF"></path>
                </g>
            </g>
        </g>
    </g>
</svg>