<?xml version="1.0" encoding="UTF-8"?>
<svg width="32px" height="25px" viewBox="0 0 32 25" version="1.1" xmlns="http://www.w3.org/2000/svg" xmlns:xlink="http://www.w3.org/1999/xlink">
    <!-- Generator: Sketch 50.2 (55047) - http://www.bohemiancoding.com/sketch -->
    <title>proxtra-icon</title>
    <desc>Created with Sketch.</desc>
    <defs></defs>
    <g id="Artboard" stroke="none" stroke-width="1" fill="none" fill-rule="evenodd">
        <g id="Desktop_Step-1_General-Liability_No-business-name-when-contractor-license-submitted" transform="translate(-178.000000, -430.000000)" fill="#F96302">
            <g id="Group-7" transform="translate(170.000000, 418.000000)">
                <path d="M16.6071429,19.7142857 L16.6875,19.7142857 C16.9285726,19.7142857 17.1428562,19.8080348 17.3303571,19.9955357 C17.5178581,20.1830367 17.6116071,20.4107129 17.6116071,20.6785714 L17.6116071,20.7991071 C17.5848213,20.9598222 17.5312504,21.1071422 17.4508929,21.2410714 C17.3705353,21.3750007 17.2633935,21.4955352 17.1294643,21.6026786 L16.8883929,21.8035714 L15.5223214,20.4776786 L15.8035714,20.1964286 C15.9107148,20.0624993 16.0312493,19.9553575 16.1651786,19.875 C16.2991078,19.7946425 16.4464278,19.7410716 16.6071429,19.7142857 Z M21.5491071,17.7857143 C21.4419638,17.6785709 21.3482147,17.5647327 21.2678571,17.4441964 C21.1874996,17.3236601 21.120536,17.209822 21.0669643,17.1026786 C21.0133926,16.9687493 20.9732144,16.8348221 20.9464286,16.7008929 C20.9196427,16.5669636 20.90625,16.4196437 20.90625,16.2589286 C20.90625,16.1249993 20.9196427,15.9843757 20.9464286,15.8370536 C20.9732144,15.6897314 21.0133926,15.5625005 21.0669643,15.4553571 C21.1741077,15.1874987 21.328124,14.953126 21.5290179,14.7522321 C21.7299117,14.5513383 21.9642844,14.397322 22.2321429,14.2901786 C22.3660721,14.2366069 22.4999993,14.1964287 22.6339286,14.1696429 L23.0357143,14.0892857 L23.1160714,14.0892857 C23.2500007,14.0892857 23.3839279,14.1026784 23.5178571,14.1294643 C23.6517864,14.1562501 23.7723209,14.1964283 23.8794643,14.25 C24.1473228,14.3571434 24.3883918,14.5111597 24.6026786,14.7120536 C24.8169654,14.9129474 24.977678,15.1473201 25.0848214,15.4151786 C25.1116073,15.5491078 25.1383927,15.6763387 25.1651786,15.796875 C25.1919644,15.9174113 25.2053571,16.0446422 25.2053571,16.1785714 L25.2053571,16.2589286 C25.2053571,16.4196437 25.1919644,16.5669636 25.1651786,16.7008929 C25.1383927,16.8348221 25.0982146,16.9687493 25.0446429,17.1026786 C24.9374995,17.3437512 24.7834831,17.5647311 24.5825893,17.765625 C24.3816954,17.9665189 24.1473228,18.1339279 23.8794643,18.2678571 C23.745535,18.294643 23.6116078,18.3281248 23.4776786,18.3683036 C23.3437493,18.4084823 23.2098221,18.4285714 23.0758929,18.4285714 C22.9151778,18.4285714 22.7678578,18.4084823 22.6339286,18.3683036 C22.4999993,18.3281248 22.3660721,18.294643 22.2321429,18.2678571 C22.0982136,18.2142854 21.9709827,18.1473218 21.8504464,18.0669643 C21.7299101,17.9866067 21.6294647,17.8928577 21.5491071,17.7857143 Z M28.21875,21.3616071 L28.1785714,21.3214286 L28.2589286,21.3214286 C28.5000012,21.3214286 28.7075884,21.4151776 28.8816964,21.6026786 C29.0558044,21.7901795 29.1428571,22.0044631 29.1428571,22.2455357 L29.1428571,22.3258929 C29.1160713,22.4598221 29.0691968,22.5937493 29.0022321,22.7276786 C28.9352675,22.8616078 28.8348221,22.9821423 28.7008929,23.0892857 L28.4598214,23.3303571 L27.1741071,22.0446429 L27.4151786,21.8035714 C27.522322,21.696428 27.6428565,21.602679 27.7767857,21.5223214 C27.910715,21.4419639 28.0580349,21.388393 28.21875,21.3616071 Z M11.625,24.4955357 C12.1339311,23.9866046 12.6160692,23.9598192 13.0714286,24.4151786 C13.526788,24.8437521 13.4866098,25.3258902 12.9508929,25.8616071 L12.5089286,26.34375 L11.1428571,24.9776786 L11.625,24.4955357 Z M19.1785714,14.8125 L19.1785714,14.7723214 C19.071428,15.0401799 18.9910717,15.3080344 18.9375,15.5758929 C18.8839283,15.8437513 18.8571429,16.1249985 18.8571429,16.4196429 C18.8571429,17.5446485 19.2522282,18.5022282 20.0424107,19.2924107 C20.8325932,20.0825932 21.7767802,20.4776786 22.875,20.4776786 C23.1696443,20.4776786 23.4575879,20.4508931 23.7388393,20.3973214 C24.0200907,20.3437497 24.2946415,20.2500007 24.5625,20.1160714 C25.0714311,19.8749988 25.5334801,19.5468771 25.9486607,19.1316964 C26.3638414,18.7165158 26.6919631,18.2544668 26.9330357,17.7455357 C27.0401791,17.4776772 27.1272318,17.2098228 27.1941964,16.9419643 C27.261161,16.6741058 27.2946429,16.4062513 27.2946429,16.1383929 L27.2946429,16.0580357 C27.2946429,15.7901772 27.2678574,15.5290191 27.2142857,15.2745536 C27.160714,15.020088 27.0803577,14.7857154 26.9732143,14.5714286 C26.7857133,14.0624975 26.4977698,13.6138412 26.109375,13.2254464 C25.7209802,12.8370516 25.272324,12.5357154 24.7633929,12.3214286 C24.5223202,12.2142852 24.2745548,12.1339288 24.0200893,12.0803571 C23.7656237,12.0267854 23.5044656,12 23.2366071,12 L23.1964286,12 C22.9017842,12 22.6205371,12.0334818 22.3526786,12.1004464 C22.0848201,12.167411 21.8303583,12.2544638 21.5892857,12.3616071 C21.0535687,12.6026798 20.5781271,12.9374979 20.1629464,13.3660714 C19.7477658,13.794645 19.4196441,14.276783 19.1785714,14.8125 Z M15.2008929,18.6294643 L13.03125,20.8392857 L18.4553571,26.3035714 L19.9017857,24.8571429 L17.8125,22.7276786 L21.2276786,23.4910714 L22.9553571,21.7633929 L18.9776786,21.2410714 C19.084822,21.0803563 19.1718747,20.8995546 19.2388393,20.6986607 C19.3058039,20.4977669 19.3392857,20.2767869 19.3392857,20.0357143 L19.3392857,19.8348214 C19.285714,19.5937488 19.1986613,19.3593761 19.078125,19.1316964 C18.9575887,18.9040167 18.8035724,18.7098222 18.6160714,18.5491071 C18.508928,18.4419638 18.3950899,18.3415183 18.2745536,18.2477679 C18.1540173,18.1540174 18.0267864,18.0803574 17.8928571,18.0267857 C17.7589279,17.973214 17.6183043,17.9263395 17.4709821,17.8861607 C17.32366,17.8459819 17.1696437,17.8258929 17.0089286,17.8258929 C16.8482135,17.8258929 16.6941972,17.8459819 16.546875,17.8861607 C16.3995528,17.9263395 16.2589292,17.973214 16.125,18.0267857 C15.9642849,18.1071433 15.8035722,18.194196 15.6428571,18.2879464 C15.4821421,18.3816969 15.3348221,18.495535 15.2008929,18.6294643 Z M14.0357143,30.7232143 L15.4419643,29.3169643 L13.7142857,27.5089286 L14.4776786,26.5848214 C14.7455371,26.3705346 14.9598206,26.1026802 15.1205357,25.78125 C15.2812508,25.4598198 15.3883926,25.1250017 15.4419643,24.7767857 C15.4151784,24.4017838 15.3281257,24.0602694 15.1808036,23.7522321 C15.0334814,23.4441949 14.8258942,23.1696441 14.5580357,22.9285714 C14.3169631,22.6874988 14.0424123,22.4866079 13.734375,22.3258929 C13.4263377,22.1651778 13.0848233,22.0848214 12.7098214,22.0848214 C12.3348196,22.1116073 11.9866088,22.2053563 11.6651786,22.3660714 C11.3437484,22.5267865 11.0625012,22.7410701 10.8214286,23.0089286 L8.57142857,25.2589286 L14.0357143,30.7232143 Z M27.4151786,30.2008929 L28.7410714,28.875 L24.6428571,24.7767857 L25.7678571,23.6517857 L24.6026786,22.5267857 L19.5803571,27.5491071 L20.0625,29.7991071 L18.0133929,29.15625 L16.2857143,30.84375 L20.3839286,31.7276786 L21.0669643,36.5892857 L22.7544643,34.8616071 L22.2723214,31.9285714 L24.9642857,32.5714286 L26.6919643,30.84375 L21.9508929,30 L21.3080357,26.34375 L22.1919643,27.2678571 L23.3169643,26.1428571 L27.4151786,30.2008929 Z M36.7366071,19.03125 L37.9821429,19.6339286 L39.4285714,18.1875 L32.1964286,14.9330357 L30.7098214,16.4196429 L33.6830357,23.2098214 L30.5089286,22.8080357 C30.616072,22.6473206 30.7031247,22.4665189 30.7700893,22.265625 C30.8370539,22.0647311 30.8705357,21.8571439 30.8705357,21.6428571 L30.8705357,21.4419643 C30.8437499,21.1741058 30.7767863,20.9330368 30.6696429,20.71875 C30.5624995,20.5044632 30.4151795,20.3169651 30.2276786,20.15625 C30.1205352,20.0491066 30.006697,19.9486612 29.8861607,19.8549107 C29.7656244,19.7611602 29.6383935,19.6875003 29.5044643,19.6339286 C29.370535,19.5803569 29.2299115,19.5334823 29.0825893,19.4933036 C28.9352671,19.4531248 28.7946435,19.4330357 28.6607143,19.4330357 C28.4999992,19.4330357 28.3459829,19.4531248 28.1986607,19.4933036 C28.0513385,19.5334823 27.910715,19.5803569 27.7767857,19.6339286 C27.6160706,19.7142861 27.4620543,19.8080352 27.3147321,19.9151786 C27.16741,20.022322 27.0267864,20.1428565 26.8928571,20.2767857 L24.8035714,22.3660714 L30.0267857,27.5892857 L31.3526786,26.2232143 L29.34375,24.2544643 L32.6383929,24.9375 L35.4107143,22.2053571 L34.8080357,20.9598214 L36.7366071,19.03125 Z M34.1651786,19.59375 L33,17.2232143 L35.3705357,18.3883929 L34.1651786,19.59375 Z" id="proxtra-icon"></path>
            </g>
        </g>
    </g>
</svg>