<?xml version="1.0" encoding="UTF-8"?>
<svg width="62px" height="62px" viewBox="0 0 62 62" version="1.1" xmlns="http://www.w3.org/2000/svg" xmlns:xlink="http://www.w3.org/1999/xlink">
    <!-- Generator: Sketch 49.3 (51167) - http://www.bohemiancoding.com/sketch -->
    <title>sawblade</title>
    <desc>Created with Sketch.</desc>
    <defs></defs>
    <g id="Page-1" stroke="none" stroke-width="1" fill="none" fill-rule="evenodd">
        <g id="sawblade" transform="translate(1.000000, 1.000000)" stroke="#FFFFFF">
            <path d="M29.5,0 C29.8,0 30.2,0 30.5,0 C30.1,0.7 29.7,1.5 29.4,2.2 C29.2,2.6 29.1,3.4 29.2,3.5 C29.6,3.7 30.3,3.9 30.7,3.7 C31.5,3.5 32.2,3 32.9,2.6 C34.9,1.3 36.9,1.1 39.3,1.8 C39,2.2 38.9,2.3 38.8,2.5 C38.4,3.3 38,4 37.5,4.7 C38.4,4.8 39.3,5.1 40.2,5 C42.8,4.7 45.4,3.9 47.7,6.2 C47.1,6.5 46.5,6.6 46.1,7 C45.6,7.4 45.3,8 45,8.5 C45.5,8.8 45.9,9.2 46.4,9.4 C47.1,9.6 47.9,9.6 48.6,9.7 C50.9,9.9 52.9,10.7 54,12.6 C52.9,13.2 51.9,13.7 50.9,14.3 C51.8,15 52.6,15.8 53.5,16.3 C55.7,17.3 57.6,18.5 58.2,21.1 C57.8,21.1 57.4,21.1 57,21.1 C56.2,21.2 55.5,21.3 54.7,21.4 C55,22.1 55.2,22.9 55.8,23.4 C57.7,25.1 59.4,27 60,29.6 C60,29.9 60,30.3 60,30.6 C59.3,30.2 58.5,29.8 57.8,29.5 C57.4,29.3 56.6,29.2 56.5,29.3 C56.3,29.7 56.1,30.4 56.3,30.8 C56.5,31.6 57,32.3 57.4,33 C58.7,35 58.9,37 58.2,39.4 C57.8,39.1 57.7,39 57.5,38.9 C56.8,38.4 56,38 55.3,37.6 C55.2,38.5 54.9,39.4 55,40.3 C55.3,42.9 56.1,45.5 53.8,47.8 C53.5,47.2 53.4,46.6 53,46.2 C52.6,45.8 52.1,45.5 51.6,45.1 C51.3,45.6 50.9,46 50.7,46.5 C50.5,47.2 50.5,48 50.4,48.7 C50.2,51 49.4,53 47.5,54.1 C46.9,53 46.4,52 45.8,51 C45.1,51.9 44.3,52.7 43.8,53.6 C42.8,55.8 41.6,57.7 39,58.3 C39,57.9 39,57.5 39,57.1 C38.9,56.3 38.8,55.6 38.7,54.8 C38,55.1 37.2,55.3 36.7,55.9 C35,57.8 33.1,59.5 30.5,60.1 C30.2,60.1 29.8,60.1 29.5,60.1 C29.9,59.4 30.3,58.6 30.6,57.9 C30.8,57.5 30.9,56.7 30.8,56.6 C30.4,56.4 29.7,56.2 29.3,56.4 C28.5,56.6 27.8,57.1 27.1,57.5 C25.1,58.8 23.1,59 20.7,58.3 C21,57.9 21.1,57.8 21.2,57.6 C21.7,56.9 22.1,56.1 22.5,55.4 C21.6,55.3 20.7,55 19.8,55.1 C17.2,55.4 14.6,56.2 12.3,53.9 C12.9,53.6 13.5,53.5 13.9,53.1 C14.3,52.7 14.6,52.2 15,51.7 C14.5,51.4 14.1,51 13.6,50.8 C12.9,50.6 12.1,50.6 11.4,50.5 C9.1,50.3 7.1,49.5 6,47.6 C7.1,47 8.1,46.5 9.1,45.9 C8.2,45.2 7.4,44.4 6.5,43.9 C4.3,42.9 2.4,41.7 1.8,39.1 C2.2,39.1 2.6,39.1 3,39.1 C3.8,39 4.5,38.9 5.3,38.8 C5,38.1 4.8,37.3 4.2,36.8 C2.2,35 0.6,33.1 0,30.5 C0,30.2 0,29.8 0,29.5 C0.7,29.9 1.5,30.3 2.2,30.6 C2.6,30.8 3.4,30.9 3.5,30.8 C3.7,30.4 3.9,29.7 3.7,29.3 C3.5,28.5 3,27.8 2.6,27.1 C1.3,25.1 1.1,23.1 1.8,20.7 C2.2,21 2.3,21.1 2.5,21.2 C3.3,21.6 4,22 4.7,22.5 C4.8,21.6 5.1,20.7 5,19.8 C4.7,17.2 3.9,14.6 6.2,12.3 C6.5,12.9 6.6,13.5 7,13.9 C7.4,14.4 8,14.7 8.5,15 C8.8,14.5 9.2,14.1 9.4,13.6 C9.6,12.9 9.6,12.1 9.7,11.4 C9.9,9.1 10.7,7.1 12.6,6 C13.2,7.1 13.7,8.1 14.3,9.1 C15,8.2 15.8,7.4 16.3,6.5 C17.3,4.3 18.5,2.4 21.1,1.8 C21.1,2.2 21.1,2.6 21.1,3 C21.2,3.8 21.3,4.5 21.4,5.3 C22.1,5 22.9,4.8 23.4,4.2 C25,2.2 26.9,0.6 29.5,0 Z" id="Shape"></path>
            <g id="Group" transform="translate(13.000000, 24.000000)">
                <circle id="Oval" cx="17" cy="6" r="6"></circle>
                <circle id="Oval" cx="2.8" cy="6" r="2"></circle>
                <circle id="Oval" cx="31.2" cy="6" r="2"></circle>
            </g>
        </g>
    </g>
</svg>