<svg width="35" height="33" xmlns="http://www.w3.org/2000/svg"><path d="M17.15 14.254v15.311c-.181.463-.665.703-1.55.703-1.146 0-1.55-.547-1.55-1.656h-.85c0 1.537.721 2.513 2.4 2.513 1.253 0 2.083-.444 2.379-1.351L18 29.64V14.267c1.793.182 3.386 1.33 4.144 3.027.075.169.24.277.423.277h.19a.464.464 0 0 0 .424-.277c.828-1.854 2.65-3.052 4.645-3.052 1.993 0 3.816 1.198 4.644 3.052.075.169.24.277.423.277h.07c.147 0 .285-.07.373-.19a.483.483 0 0 0 .074-.418C31.372 9.866 24.7 4.714 17.547 4.714c-7.068 0-13.718 5.082-15.812 12.084a.477.477 0 0 0 .273.58.461.461 0 0 0 .588-.23c.868-1.793 2.622-2.906 4.578-2.906 1.993 0 3.816 1.198 4.644 3.052.075.169.24.277.423.277h.19a.464.464 0 0 0 .424-.277c.78-1.745 2.44-2.91 4.295-3.04zm.421-9.54c.237 0 .429-.284.429-.635V1.92c0-.35-.192-.635-.429-.635-.236 0-.428.285-.428.635V4.08c0 .35.192.635.428.635z" stroke="#E14046" stroke-width="2" fill="none" fill-rule="evenodd"/></svg>