<svg width="24" height="33" xmlns="http://www.w3.org/2000/svg"><path d="M12.336 28.464c1.05-1.224 2.208-2.788 3.473-4.69a47.208 47.208 0 0 0 3.442-6.165c1.018-2.155 1.52-4.13 1.52-5.925 0-1.334-.238-2.563-.715-3.7a9.058 9.058 0 0 0-1.965-2.987 9.7 9.7 0 0 0-2.97-2.02c-1.11-.48-2.315-.72-3.624-.72-1.286 0-2.48.24-3.58.716a9.713 9.713 0 0 0-2.98 2.024c-.833.836-1.487 1.83-1.967 2.994-.475 1.13-.713 2.359-.713 3.693 0 1.774.492 3.727 1.485 5.852a50.152 50.152 0 0 0 3.477 6.168c1.268 1.907 2.43 3.499 3.487 4.776l.8.97.83-.986zM11.497.2c1.585 0 3.068.296 4.448.892a11.768 11.768 0 0 1 3.603 2.452 11.103 11.103 0 0 1 2.408 3.65c.582 1.388.873 2.887.873 4.49 0 2.122-.578 4.39-1.717 6.8a49.243 49.243 0 0 1-3.59 6.429c-1.308 1.967-2.515 3.597-3.619 4.883l-2.414 2.868-.786-.953L9.12 29.79c-1.104-1.335-2.308-2.984-3.613-4.946a52.234 52.234 0 0 1-3.624-6.429C.765 16.024.2 13.781.2 11.684c0-1.603.29-3.102.87-4.483a11.113 11.113 0 0 1 2.411-3.657 11.78 11.78 0 0 1 3.61-2.455C8.464.496 9.935.2 11.498.2zm0 16.22a4.521 4.521 0 0 1-3.317-1.391c-.902-.916-1.364-2.05-1.364-3.345 0-1.316.46-2.462 1.364-3.38.905-.918 2.03-1.39 3.317-1.39 1.308 0 2.445.47 3.352 1.39.903.918 1.364 2.064 1.364 3.38 0 1.295-.462 2.43-1.364 3.345-.907.92-2.044 1.39-3.352 1.39zm0-2.058c.76 0 1.368-.251 1.886-.777.522-.53.772-1.144.772-1.9 0-.782-.251-1.408-.772-1.936-.518-.526-1.126-.778-1.886-.778-.735 0-1.333.25-1.852.778-.52.528-.772 1.154-.772 1.935 0 .757.25 1.371.772 1.901.52.527 1.117.777 1.852.777z" fill="#66686D" stroke="#66686D" stroke-width=".4"/></svg>