<svg width="32" height="25" xmlns="http://www.w3.org/2000/svg"><path d="M8.607 7.714h.08c.242 0 .456.094.643.282a.93.93 0 0 1 .282.683v.12a1.25 1.25 0 0 1-.161.442 1.36 1.36 0 0 1-.322.362l-.24.2-1.367-1.325.282-.282a1.36 1.36 0 0 1 .361-.321 1.25 1.25 0 0 1 .442-.16zm4.942-1.928a2.24 2.24 0 0 1-.281-.342 3.207 3.207 0 0 1-.201-.341 2.29 2.29 0 0 1-.12-.402 2.36 2.36 0 0 1 0-.864c.026-.147.066-.274.12-.382a2.071 2.071 0 0 1 1.165-1.165 2.29 2.29 0 0 1 .402-.12l.402-.08h.08c.134 0 .268.013.402.04.134.026.254.066.361.12.268.107.51.261.724.462.214.2.375.435.482.703.027.134.053.261.08.382.027.12.04.248.04.382v.08c0 .16-.013.308-.04.442a2.29 2.29 0 0 1-.12.402 2.197 2.197 0 0 1-.462.663c-.201.2-.436.368-.704.502-.133.027-.267.06-.401.1a1.533 1.533 0 0 1-.844 0 4.403 4.403 0 0 0-.402-.1 2.077 2.077 0 0 1-.382-.201 1.213 1.213 0 0 1-.3-.281zm6.67 3.576l-.04-.04h.08c.241 0 .449.093.623.28a.918.918 0 0 1 .26.644v.08a1.599 1.599 0 0 1-.14.402 1.088 1.088 0 0 1-.301.361l-.241.241-1.286-1.285.241-.241a1.86 1.86 0 0 1 .362-.282 1.25 1.25 0 0 1 .442-.16zM3.625 12.496c.509-.51.991-.536 1.446-.08.456.428.416.91-.12 1.446l-.442.482-1.366-1.366.482-.482zm7.554-9.684v-.04a4.295 4.295 0 0 0-.321 1.647c0 1.126.394 2.083 1.184 2.873.79.79 1.735 1.186 2.833 1.186.295 0 .583-.027.864-.08a3.16 3.16 0 0 0 .823-.282c.51-.241.971-.57 1.387-.984.415-.415.743-.878.984-1.386.107-.268.194-.536.261-.804s.1-.536.1-.804v-.08c0-.268-.026-.529-.08-.783a2.902 2.902 0 0 0-.24-.704 3.685 3.685 0 0 0-.865-1.346 4.178 4.178 0 0 0-1.346-.904A3.705 3.705 0 0 0 15.237 0h-.04c-.295 0-.576.033-.844.1a4.656 4.656 0 0 0-.764.262 4.597 4.597 0 0 0-1.426 1.004c-.415.429-.743.91-.984 1.446zM7.2 6.63L5.03 8.84l5.424 5.465 1.447-1.447-2.09-2.13 3.416.764 1.727-1.728-3.977-.522c.107-.16.194-.341.26-.542.068-.201.101-.422.101-.663v-.201a2.793 2.793 0 0 0-.26-.703 1.976 1.976 0 0 0-.463-.583 3.661 3.661 0 0 0-.341-.301 1.57 1.57 0 0 0-.382-.221 3.893 3.893 0 0 0-.422-.14 1.748 1.748 0 0 0-.462-.061c-.16 0-.315.02-.462.06-.147.04-.288.087-.422.14-.16.081-.321.168-.482.262a2.23 2.23 0 0 0-.442.341zM6.036 18.723l1.406-1.406-1.728-1.808.764-.924c.268-.214.482-.482.643-.804.16-.321.267-.656.321-1.004a2.818 2.818 0 0 0-.261-1.025 2.628 2.628 0 0 0-.623-.823 3.345 3.345 0 0 0-.824-.603 2.181 2.181 0 0 0-1.024-.241 2.75 2.75 0 0 0-1.045.281 2.83 2.83 0 0 0-.844.643l-2.25 2.25 5.465 5.464zm13.38-.522l1.325-1.326-4.098-4.098 1.125-1.125-1.165-1.125-5.023 5.022.482 2.25-2.049-.643-1.727 1.688 4.098.884.683 4.861 1.687-1.727-.482-2.933 2.692.642 1.728-1.727L13.951 18l-.643-3.656.884.924 1.125-1.125 4.098 4.058zm9.32-11.17l1.246.603 1.447-1.447-7.233-3.254L22.71 4.42l2.973 6.79-3.174-.402c.107-.16.194-.341.261-.542s.1-.409.1-.623v-.201a2.062 2.062 0 0 0-.2-.723 1.79 1.79 0 0 0-.442-.563 3.661 3.661 0 0 0-.342-.301 1.57 1.57 0 0 0-.382-.221 3.893 3.893 0 0 0-.421-.14 1.603 1.603 0 0 0-.422-.061c-.161 0-.315.02-.462.06-.148.04-.288.087-.422.14-.16.081-.315.175-.462.282a3.547 3.547 0 0 0-.422.362l-2.09 2.09 5.224 5.222 1.326-1.366-2.01-1.969 3.295.684 2.773-2.733-.603-1.245 1.929-1.929zm-2.57.563L25 5.224l2.37 1.164-1.205 1.206z" fill="#E14046" fill-rule="evenodd"/></svg>