<?xml version="1.0" encoding="UTF-8"?>
<svg width="19px" height="20px" viewBox="0 0 19 20" version="1.1" xmlns="http://www.w3.org/2000/svg" xmlns:xlink="http://www.w3.org/1999/xlink">
    <!-- Generator: Sketch 50.2 (55047) - http://www.bohemiancoding.com/sketch -->
    <title>Carpenter</title>
    <desc>Created with Sketch.</desc>
    <defs></defs>
    <g id="Page-1" stroke="none" stroke-width="1" fill="none" fill-rule="evenodd">
        <g id="Service-icons" transform="translate(-343.000000, -37.000000)" fill="#2AB68C">
            <path d="M358.164062,37 L360.976562,39.7890625 L360.859375,39.90625 L361.164062,41.1953125 L360.0625,40.890625 L360.0625,41.0078125 L360.671875,42.6015625 L359.570312,42.296875 L359.875,43.609375 L358.773438,43.3046875 L359.078125,44.5 L358.070312,44.1953125 L358.375,45.5078125 L357.273438,45.203125 L357.578125,46.4921875 L356.570312,46.2109375 L356.875,47.5 L355.773438,47.1953125 L356.078125,48.5078125 L354.976562,48.203125 L355.257812,49.4921875 L354.179688,49.2109375 L354.578125,50.59375 L353.570312,50.2890625 L353.875,51.6953125 L352.773438,51.390625 L353.078125,52.609375 L352.070312,52.3046875 L352.375,53.5 L351.273438,53.2890625 L351.273438,53.9921875 L348.367188,56.9921875 L347.171875,55.890625 L348.179688,54.90625 L345.273438,51.90625 L344.265625,52.890625 L343.164062,51.6953125 L347.664062,47.1015625 L348.0625,47.5 L358.164062,37 Z M349.375,53.59375 L350.359375,52.609375 L347.476562,49.609375 L346.46875,50.59375 L349.375,53.59375 Z" id="Carpenter"></path>
        </g>
    </g>
</svg>