<?xml version="1.0" encoding="UTF-8"?>
<svg width="20px" height="19px" viewBox="0 0 20 19" version="1.1" xmlns="http://www.w3.org/2000/svg" xmlns:xlink="http://www.w3.org/1999/xlink">
    <!-- Generator: Sketch 50.2 (55047) - http://www.bohemiancoding.com/sketch -->
    <title>Electrician Copy</title>
    <desc>Created with Sketch.</desc>
    <defs></defs>
    <g id="Page-1" stroke="none" stroke-width="1" fill="none" fill-rule="evenodd">
        <g id="Service-icons" transform="translate(-342.000000, -134.000000)" fill="#2AB68C">
            <path d="M354.695312,142.09375 L344.804688,152.5 L341.992188,149.804688 L352.492188,140.007812 L354.695312,142.09375 Z M360.109375,143.804688 C359.953124,143.945313 359.746095,144.015625 359.488281,144.015625 C359.230467,144.015625 359.000001,143.945313 358.796875,143.804688 L358.398438,143.40625 C358.242187,143.296874 358.144531,143.156251 358.105469,142.984375 C358.066406,142.812499 358.101562,142.648438 358.210938,142.492188 C358.351563,142.398437 358.398438,142.238282 358.351562,142.011719 C358.304687,141.785155 358.156251,141.546876 357.90625,141.296875 C357.546873,140.953123 357.160158,140.761719 356.746094,140.722656 C356.332029,140.683594 356.046876,140.742187 355.890625,140.898438 C355.796875,140.945313 355.675782,141.058593 355.527344,141.238281 L355.304688,141.507812 L353.007812,139.492188 L353.40625,139.210938 L353.476562,139.128906 C353.523438,139.074218 353.601562,139 353.710938,138.90625 C353.898438,138.703124 353.992188,138.468751 353.992188,138.203125 C353.992188,137.937499 353.898438,137.703126 353.710938,137.5 C353.054684,136.953122 352.312504,136.515627 351.484375,136.1875 C350.656246,135.859373 349.796879,135.695312 348.90625,135.695312 L348.90625,134.898438 C350.281257,134.554686 351.45312,134.414062 352.421875,134.476562 C353.39063,134.539063 354.203122,134.699217 354.859375,134.957031 C355.515628,135.214845 356.039061,135.507811 356.429688,135.835938 C356.804689,136.164064 357.093749,136.421874 357.296875,136.609375 L358.890625,138.203125 C359.093751,138.406251 359.171875,138.730467 359.125,139.175781 C359.078125,139.621096 359.203124,139.992186 359.5,140.289062 C359.59375,140.398438 359.718749,140.476562 359.875,140.523438 C360.031251,140.570313 360.203124,140.59375 360.390625,140.59375 C360.546876,140.5 360.730468,140.457031 360.941406,140.464844 C361.152345,140.472656 361.304687,140.554687 361.398438,140.710938 L361.703125,140.992188 C361.843751,141.148438 361.914062,141.335936 361.914062,141.554688 C361.914062,141.773439 361.843751,141.953124 361.703125,142.09375 L360.109375,143.804688 Z" id="Electrician-Copy"></path>
        </g>
    </g>
</svg>