<?xml version="1.0" encoding="UTF-8"?>
<svg width="13px" height="22px" viewBox="0 0 13 22" version="1.1" xmlns="http://www.w3.org/2000/svg" xmlns:xlink="http://www.w3.org/1999/xlink">
    <!-- Generator: Sketch 50.2 (55047) - http://www.bohemiancoding.com/sketch -->
    <title>Combined Shape</title>
    <desc>Created with Sketch.</desc>
    <defs></defs>
    <g id="Page-1" stroke="none" stroke-width="1" fill="none" fill-rule="evenodd">
        <g id="Service-icons" transform="translate(-344.000000, -236.000000)" fill="#2AB68C" fill-rule="nonzero">
            <path d="M349.764953,238.420049 L349.826319,238.420049 L349.769318,238.442849 C349.770308,238.450622 349.770818,238.458545 349.770818,238.466587 C349.770818,238.544918 349.721983,238.614041 349.65229,238.640031 L349.188415,238.825581 C349.092958,238.863763 348.984622,238.817334 348.94644,238.721877 C348.924402,238.666783 348.93055,238.607398 348.958043,238.559688 C348.942196,238.532302 348.933125,238.500504 348.933125,238.466587 C348.933125,238.363778 349.016469,238.280434 349.119279,238.280434 L349.580345,238.280465 C349.582524,238.280423 349.582524,238.280423 349.5847,238.280415 C349.67141,238.280431 349.744289,238.339759 349.764953,238.420049 Z M355.308893,257.500814 C354.79697,257.500814 351.958125,257.500814 351.399663,257.500814 C351.027356,257.500814 350.515433,257.454276 350.329279,256.988891 C350.189664,256.616584 350.096587,256.151199 349.956971,255.22043 C349.817356,254.289661 349.770818,253.498508 349.770818,253.1262 C349.724279,251.823123 349.584664,249.123893 350.00351,247.913893 C350.375817,246.79697 351.120433,245.633509 351.818509,245.121586 C352.609663,244.563125 352.470048,244.376971 352.656202,243.911586 C352.842355,243.446202 352.981971,242.422356 352.981971,242.236202 C352.981971,242.050048 353.214663,242.050048 353.214663,242.050048 L353.214663,241.956971 L353.028509,241.956971 L353.028509,241.770818 C353.028509,241.770818 353.075048,241.770818 353.075048,241.770818 C353.075048,241.491587 353.121586,240.421202 353.121586,240.421202 L353.261201,240.421202 L353.075048,240.18851 C353.075048,240.18851 352.656202,240.18851 352.609663,240.18851 C352.609663,240.18851 352.609663,240.002356 352.609663,240.002356 L351.771971,239.909279 C351.771971,239.909279 350.980817,241.072741 350.841202,241.258895 C350.701587,241.445048 350.143125,241.863894 350.050048,241.910433 C349.956971,241.956971 349.724279,242.00351 349.677741,241.863894 C349.631202,241.724279 349.910433,241.538125 350.00351,241.445048 C350.096587,241.351972 350.236202,241.026202 350.282741,240.886587 C350.329279,240.746972 350.375817,240.514279 350.515433,240.421202 C350.655048,240.328126 350.934279,239.909279 350.980817,239.816203 C351.027356,239.723126 351.260048,239.30428 351.260048,239.30428 C351.260048,239.30428 351.353125,239.164664 351.306587,239.164664 C351.260048,239.164664 351.21351,239.164664 351.21351,239.164664 C351.21351,239.164664 351.21351,239.118126 351.21351,239.118126 C351.21351,239.118126 351.166971,239.118126 351.166971,239.118126 C351.166971,239.118126 351.166971,239.164664 351.120433,239.164664 C351.073894,239.164664 350.468894,239.118126 350.422356,239.118126 C350.375817,239.118126 350.143125,239.025049 350.096587,238.931972 C350.050048,238.838895 350.096587,238.001203 350.096587,237.908126 C350.096587,237.815049 350.189664,237.721972 350.282741,237.721972 C350.375817,237.721972 350.980817,237.628895 350.980817,237.675434 C350.980817,237.721972 350.980817,237.768511 350.980817,237.768511 L351.027356,237.768511 C351.027356,237.768511 351.027356,237.628895 351.027356,237.582357 C351.027356,237.535818 352.563125,237.349665 352.842355,237.349665 C353.121586,237.349665 354.331586,237.303126 355.029663,237.582357 C355.727739,237.861588 356.379278,238.233895 356.518893,238.373511 C356.658508,238.513126 356.844662,238.838895 356.844662,238.97851 C356.844662,239.118126 356.844662,239.30428 356.658508,239.397357 C356.472355,239.490433 355.774278,239.723126 355.681201,239.769664 C355.588124,239.816203 355.40197,239.862741 355.40197,240.048895 C355.40197,240.18851 355.40197,240.235049 355.355432,240.235049 C355.308893,240.235049 355.308893,240.235049 355.308893,240.281587 C355.308893,240.328126 355.355432,240.328126 355.355432,240.374664 C355.355432,240.421202 355.355432,241.770818 355.355432,241.770818 C355.355432,241.770818 355.40197,241.770818 355.40197,241.770818 C355.40197,241.817356 355.40197,241.910433 355.40197,241.910433 C355.40197,241.910433 355.355432,241.956971 355.355432,241.956971 C355.355432,241.956971 355.169278,241.956971 355.169278,241.956971 C355.169278,241.956971 355.169278,242.050048 355.169278,242.050048 C355.215816,242.050048 355.448509,242.050048 355.448509,242.236202 C355.448509,242.422356 355.588124,243.911586 355.634663,244.330432 C355.820816,245.633509 356.100047,246.238509 356.705047,248.239662 C356.984278,249.077355 357.030816,250.659662 356.984278,252.055816 C356.937739,252.800431 356.937739,253.917354 356.705047,255.313507 C356.61197,255.685815 356.379278,256.802738 356.286201,257.03543 C356.239662,257.175045 356.286201,257.500814 355.308893,257.500814 Z M348.560818,238.280434 C348.663628,238.280434 348.746972,238.363778 348.746972,238.466587 C348.746972,238.569397 348.663628,238.652741 348.560818,238.652741 L347.45525,238.652741 C347.35244,238.652741 347.269097,238.569397 347.269097,238.466587 C347.269097,238.363778 347.35244,238.280434 347.45525,238.280434 L348.560818,238.280434 Z M346.902467,238.280434 C347.005276,238.280434 347.08862,238.363778 347.08862,238.466587 C347.08862,238.569397 347.005276,238.652741 346.902467,238.652741 L345.796899,238.652741 C345.694089,238.652741 345.610745,238.569397 345.610745,238.466587 C345.610745,238.363778 345.694089,238.280434 345.796899,238.280434 L346.902467,238.280434 Z M345.210049,238.280434 C345.312859,238.280434 345.396203,238.363778 345.396203,238.466587 C345.396203,238.569397 345.312859,238.652741 345.210049,238.652741 L344.744665,238.652741 C344.641855,238.652741 344.558511,238.569397 344.558511,238.466587 C344.558511,238.363778 344.641855,238.280434 344.744665,238.280434 L345.210049,238.280434 Z M344.013364,236.117068 C344.051546,236.021611 344.159883,235.975181 344.255339,236.013364 L344.720724,236.199518 C344.81618,236.2377 344.86261,236.346036 344.824427,236.441493 C344.786245,236.53695 344.677909,236.583379 344.582452,236.545197 L344.117068,236.359043 C344.021611,236.32086 343.975181,236.212524 344.013364,236.117068 Z M344.899224,236.485433 C344.939583,236.390877 345.048955,236.346941 345.143511,236.387301 L346.040909,236.770337 C346.135466,236.810696 346.179402,236.920067 346.139042,237.014624 C346.098683,237.109181 345.989311,237.153116 345.894754,237.112757 L344.997356,236.729721 C344.9028,236.689362 344.858864,236.57999 344.899224,236.485433 Z M346.245321,237.059987 C346.28568,236.96543 346.395052,236.921495 346.489609,236.961854 L347.387007,237.34489 C347.481563,237.38525 347.525499,237.494621 347.485139,237.589178 C347.44478,237.683735 347.335408,237.72767 347.240852,237.687311 L346.343454,237.304275 C346.248897,237.263915 346.204961,237.154544 346.245321,237.059987 Z M347.591418,237.634541 C347.631778,237.539984 347.741149,237.496048 347.835706,237.536408 L348.733104,237.919444 C348.82766,237.959803 348.871596,238.069175 348.831236,238.163731 C348.790877,238.258288 348.681505,238.302224 348.586949,238.261864 L347.689551,237.878828 C347.594994,237.838469 347.551058,237.729097 347.591418,237.634541 Z M348.872694,238.76833 C348.911666,238.863467 348.866135,238.972184 348.770998,239.011156 L347.868092,239.381021 C347.772955,239.419993 347.664238,239.374462 347.625266,239.279325 C347.586294,239.184188 347.631825,239.075471 347.726962,239.036499 L348.629868,238.666634 C348.725006,238.627662 348.833722,238.673193 348.872694,238.76833 Z M347.518335,239.323128 C347.557307,239.418265 347.511776,239.526982 347.416639,239.565954 L346.513733,239.935819 C346.418596,239.974791 346.309879,239.92926 346.270907,239.834123 C346.231935,239.738986 346.277466,239.630269 346.372603,239.591297 L347.275509,239.221432 C347.370646,239.18246 347.479363,239.227991 347.518335,239.323128 Z M346.163976,239.877926 C346.202948,239.973063 346.157417,240.08178 346.06228,240.120752 L345.159373,240.490617 C345.064236,240.529589 344.95552,240.484058 344.916548,240.38892 C344.877576,240.293783 344.923107,240.185067 345.018244,240.146095 L345.92115,239.77623 C346.016287,239.737258 346.125004,239.782789 346.163976,239.877926 Z M344.582452,240.34144 C344.677909,240.303257 344.786245,240.349687 344.824427,240.445144 C344.86261,240.5406 344.81618,240.648936 344.720724,240.687119 L344.255339,240.873273 C344.159883,240.911455 344.051546,240.865026 344.013364,240.769569 C343.975181,240.674112 344.021611,240.565776 344.117068,240.527594 L344.582452,240.34144 Z" id="Combined-Shape"></path>
        </g>
    </g>
</svg>