<?xml version="1.0" encoding="UTF-8"?>
<svg width="20px" height="19px" viewBox="0 0 20 19" version="1.1" xmlns="http://www.w3.org/2000/svg" xmlns:xlink="http://www.w3.org/1999/xlink">
    <!-- Generator: Sketch 50.2 (55047) - http://www.bohemiancoding.com/sketch -->
    <title>Landscaper</title>
    <desc>Created with Sketch.</desc>
    <defs></defs>
    <g id="Page-1" stroke="none" stroke-width="1" fill="none" fill-rule="evenodd">
        <g id="Service-icons" transform="translate(-342.000000, -187.000000)" fill="#2AB68C" fill-rule="nonzero">
            <path d="M361.574241,201.645235 C361.970816,201.391374 362.112916,200.879811 361.904089,200.457783 C361.787983,200.260754 361.59799,200.11826 361.376333,200.061966 C361.573449,199.990874 361.737716,199.850073 361.838119,199.666149 C362.046947,199.244121 361.904846,198.732558 361.508272,198.478697 C361.163886,198.295307 360.741407,198.348117 360.452759,198.610636 L360.452759,198.346758 C360.452759,197.836683 360.039262,197.423185 359.529186,197.423185 C359.019111,197.423185 358.605613,197.836683 358.605613,198.346758 L358.605613,198.610636 L358.407704,198.478697 C357.985676,198.26987 357.474114,198.411971 357.220253,198.808545 C357.011425,199.230573 357.153526,199.742135 357.5501,199.995997 C357.153526,200.249858 357.011425,200.76142 357.220253,201.183448 C357.474114,201.580022 357.985676,201.722123 358.407704,201.513296 L358.539643,201.513296 C358.522201,201.880572 358.697144,202.230457 359.00143,202.436869 L359.00143,203.030595 C358.378855,202.13833 357.382661,201.579489 356.296679,201.513296 C356.098771,203.030595 356.758466,204.086107 359.00143,204.020138 L359.00143,204.547894 L353.130142,204.547894 L353.130142,202.568808 C355.702954,202.041052 356.560557,200.391814 356.362649,198.808545 C354.962561,199.071517 353.76633,199.974793 353.130142,201.249417 L353.130142,198.544667 C354.066494,198.353737 354.732679,197.521006 354.713411,196.565581 C354.709702,196.40959 354.687558,196.254585 354.647441,196.103795 C355.303253,196.97821 356.543746,197.155423 357.418161,196.499612 C358.260409,195.825096 358.433672,194.612256 357.813978,193.728892 C357.555156,193.276737 357.12848,192.944878 356.626527,192.805318 C357.093073,192.667043 357.492325,192.361733 357.748009,191.947714 C358.265468,190.976197 357.949595,189.770135 357.022344,189.176994 C356.276649,188.756236 355.344944,188.862717 354.713411,189.440872 C354.709702,189.284881 354.687558,189.129876 354.647441,188.979086 C354.647441,187.886067 353.761374,187 352.668355,187 L352.602386,187 C351.509367,187 350.6233,187.886067 350.6233,188.979086 C350.621444,189.157171 350.643634,189.334693 350.68927,189.506842 L350.293453,189.242964 C349.363447,188.684367 348.157085,188.978601 347.588702,189.902659 C347.016719,190.872813 347.307027,192.121137 348.248397,192.739349 L348.710184,192.937257 L348.314367,193.069196 C347.387116,193.662337 347.071242,194.868399 347.588702,195.839916 C347.850937,196.295041 348.283344,196.627249 348.790669,196.763361 C349.297995,196.899473 349.83862,196.828322 350.293453,196.565581 L350.557331,196.367673 C350.52602,196.47555 350.50395,196.585898 350.491361,196.69752 C350.472093,197.652945 351.138278,198.485676 352.07463,198.676606 L352.07463,200.193905 C351.414934,199.006454 350.095544,197.489155 347.192885,197.093337 C346.731098,199.336301 347.720641,201.843143 352.140599,201.645235 L352.140599,204.613863 L344.883951,204.613863 L344.883951,203.756259 C347.126915,203.822229 347.786611,202.700747 347.588702,201.183448 C346.493923,201.274527 345.499358,201.856711 344.883951,202.766717 L344.883951,202.107021 C345.188238,201.90061 345.363181,201.550724 345.345738,201.183448 L345.477677,201.183448 C345.899705,201.392275 346.411268,201.250175 346.665129,200.8536 C346.873956,200.431572 346.731855,199.92001 346.335281,199.666149 C346.731855,199.412288 346.873956,198.900726 346.665129,198.478697 C346.411268,198.082123 345.899705,197.940022 345.477677,198.14885 L345.279769,198.280789 L345.279769,197.884972 C345.279769,197.374896 344.866271,196.961398 344.356195,196.961398 C343.84612,196.961398 343.432622,197.374896 343.432622,197.884972 L343.432622,198.14885 C343.143975,197.88633 342.721495,197.83352 342.377109,198.016911 C342.004104,198.290737 341.891306,198.79833 342.113231,199.204362 C342.213635,199.388286 342.377902,199.529087 342.575018,199.600179 C342.35336,199.656473 342.163368,199.798968 342.047262,199.995997 C341.927294,200.368632 342.055284,200.77642 342.366673,201.013669 C342.678061,201.250917 343.105194,201.26608 343.432622,201.051509 L343.432622,201.249417 C343.431594,201.543126 343.580943,201.816932 343.828439,201.975082 L343.828439,202.766717 C343.47458,202.303008 342.953996,201.99539 342.377109,201.909113 C342.256718,202.850022 342.894853,203.720206 343.828439,203.888199 L343.828439,204.481924 L342.706957,204.481924 C342.451919,204.481924 342.24517,204.688673 342.24517,204.943711 C342.24517,205.198749 342.451919,205.405498 342.706957,205.405498 L361.178424,205.405498 C361.433462,205.405498 361.640211,205.198749 361.640211,204.943711 C361.640211,204.688673 361.433462,204.481924 361.178424,204.481924 L360.122912,204.481924 L360.122912,204.349985 C361.101304,204.18229 361.788907,203.294136 361.70618,202.30493 C361.077699,202.436395 360.516484,202.787154 360.122912,203.294473 L360.122912,202.436869 C360.370408,202.278719 360.519757,202.004913 360.518729,201.711204 L360.518729,201.513296 C360.807376,201.775815 361.229856,201.828625 361.574241,201.645235 Z M350.227483,192.805318 C350.227483,191.53013 351.261228,190.496385 352.536416,190.496385 C353.811605,190.496385 354.84535,191.53013 354.84535,192.805318 C354.84535,194.080507 353.811605,195.114252 352.536416,195.114252 C351.261228,195.114252 350.227483,194.080507 350.227483,192.805318 Z M343.366652,199.600179 C343.366652,199.017236 343.839221,198.544667 344.422165,198.544667 C345.005108,198.544667 345.477677,199.017236 345.477677,199.600179 C345.477677,200.183123 345.005108,200.655692 344.422165,200.655692 C343.839221,200.655692 343.366652,200.183123 343.366652,199.600179 Z M359.595156,200.985539 C359.012212,200.985539 358.539643,200.51297 358.539643,199.930027 C358.539643,199.347084 359.012212,198.874515 359.595156,198.874515 C360.178099,198.874515 360.650668,199.347084 360.650668,199.930027 C360.650668,200.51297 360.178099,200.985539 359.595156,200.985539 Z" id="Landscaper"></path>
        </g>
    </g>
</svg>