<?xml version="1.0" encoding="UTF-8"?>
<svg width="22px" height="14px" viewBox="0 0 22 14" version="1.1" xmlns="http://www.w3.org/2000/svg" xmlns:xlink="http://www.w3.org/1999/xlink">
    <!-- Generator: Sketch 50.2 (55047) - http://www.bohemiancoding.com/sketch -->
    <title>Lawn</title>
    <desc>Created with Sketch.</desc>
    <defs></defs>
    <g id="Page-1" stroke="none" stroke-width="1" fill="none" fill-rule="evenodd">
        <g id="Service-icons" transform="translate(-28.000000, -240.000000)" fill="#2AB68C">
            <path d="M32.109375,252 C32.2968759,252.203126 32.390625,252.449217 32.390625,252.738281 C32.390625,253.027345 32.2968759,253.249999 32.109375,253.40625 C31.906249,253.656251 31.6523453,253.785156 31.3476562,253.792969 C31.0429672,253.800781 30.7968759,253.703126 30.609375,253.5 C30.3593737,253.296874 30.2304688,253.046876 30.2226562,252.75 C30.2148437,252.453124 30.3046866,252.203126 30.4921875,252 L30.4921875,251.90625 L30.609375,251.90625 L30.796875,251.695312 L31.8046875,251.695312 L32.109375,252 Z M41.5078125,243.890625 L41.5078125,246.304688 L32.90625,246.304688 L32.90625,244.59375 L41.5078125,243.890625 Z M41.6015625,247.710938 L49.0078125,240.210938 L49.0078125,242.695312 L48.1640625,243.515625 C47.6015597,244.078128 46.9492225,244.734371 46.2070312,245.484375 C45.46484,246.234379 44.7187538,246.992184 43.96875,247.757812 C43.2343713,248.539066 42.6796894,249.156248 42.3046875,249.609375 C42.1015615,249.859376 41.9648441,250.14453 41.8945312,250.464844 C41.8242184,250.785158 41.7890625,251.093749 41.7890625,251.390625 C41.7890625,251.593751 41.8124998,251.796874 41.859375,252 L42,252.609375 L40.8984375,252.609375 L40.8984375,253.5 L34.40625,253.5 L34.40625,252.609375 L33.4921875,252.609375 C33.398437,252.046872 33.1679706,251.582033 32.8007812,251.214844 C32.4335919,250.847654 32.0000025,250.640625 31.5,250.59375 C30.906247,250.546875 30.3554713,250.718748 29.8476562,251.109375 C29.3398412,251.500002 29.0546878,251.999997 28.9921875,252.609375 L28.9921875,249.492188 L34.59375,249.492188 L34.59375,247.710938 L41.6015625,247.710938 Z M45.4921875,248.695312 C46.195316,248.695312 46.8046849,248.941404 47.3203125,249.433594 C47.8359401,249.925784 48.09375,250.546871 48.09375,251.296875 C48.09375,252.046879 47.8476587,252.667966 47.3554688,253.160156 C46.8632788,253.652346 46.2421913,253.898438 45.4921875,253.898438 C44.7421837,253.898438 44.1210962,253.640628 43.6289062,253.125 C43.1367163,252.609372 42.890625,252.000004 42.890625,251.296875 C42.890625,250.546871 43.1523411,249.925784 43.6757812,249.433594 C44.1992214,248.941404 44.8046841,248.695312 45.4921875,248.695312 Z" id="Lawn"></path>
        </g>
    </g>
</svg>