<?xml version="1.0" encoding="UTF-8"?>
<svg width="20px" height="20px" viewBox="0 0 20 20" version="1.1" xmlns="http://www.w3.org/2000/svg" xmlns:xlink="http://www.w3.org/1999/xlink">
    <!-- Generator: Sketch 50.2 (55047) - http://www.bohemiancoding.com/sketch -->
    <title>Plumber</title>
    <desc>Created with Sketch.</desc>
    <defs></defs>
    <g id="Page-1" stroke="none" stroke-width="1" fill="none" fill-rule="evenodd">
        <g id="Service-icons" transform="translate(-29.000000, -86.000000)" fill="#2AB68C">
            <path d="M43.4765625,89.1640625 L48.375,89.1640625 L48.375,90.265625 L47.765625,90.265625 L47.765625,92.8671875 C47.765625,93.5546909 47.6328138,94.1953095 47.3671875,94.7890625 C47.1171863,95.3828155 46.7695335,95.9023415 46.3242188,96.3476562 C45.878904,96.792971 45.359378,97.1406238 44.765625,97.390625 C44.156247,97.6562513 43.5156284,97.7890625 42.84375,97.7890625 L40.4296875,97.7890625 L40.4296875,98.3984375 L39.328125,98.3984375 L39.328125,93.5 L40.4296875,93.5 L40.4296875,94.1328125 L42.8671875,94.1328125 C43.2109392,94.1328125 43.4999988,94.01172 43.734375,93.7695312 C43.9687512,93.5273425 44.0859375,93.2343767 44.0859375,92.890625 L44.0859375,90.265625 L43.4765625,90.265625 L43.4765625,89.1640625 Z M34.5,102.757812 L29.625,102.710938 L29.625,101.609375 L30.234375,101.609375 L30.234375,99.0078125 C30.2500001,98.3359341 30.3828112,97.703128 30.6328125,97.109375 C30.8984388,96.515622 31.253904,96.0000022 31.6992188,95.5625 C32.1445335,95.1249978 32.6640595,94.7734388 33.2578125,94.5078125 C33.8359404,94.2578113 34.4687466,94.1328125 35.15625,94.1328125 L37.5703125,94.1328125 L37.5703125,93.5 L38.671875,93.5 L38.671875,98.3984375 L37.5703125,98.3984375 L37.5703125,97.765625 L35.1328125,97.765625 C34.7890608,97.765625 34.496095,97.8867175 34.2539062,98.1289062 C34.0117175,98.371095 33.890625,98.6640608 33.890625,99.0078125 L33.890625,101.65625 L34.5,101.65625 L34.5,102.757812 Z M47.765625,87.5234375 L48.375,87.5234375 L48.375,88.6484375 L43.4765625,88.6484375 L43.4765625,87.5234375 L44.0859375,87.5234375 L44.0859375,86 L47.765625,86 L47.765625,87.5234375 Z M30.2578125,104.46875 L29.6484375,104.46875 L29.6484375,103.367188 L34.546875,103.367188 L34.546875,104.46875 L33.9375,104.46875 L33.9375,105.992188 L30.2578125,105.992188 L30.2578125,104.46875 Z" id="Plumber"></path>
        </g>
    </g>
</svg>