<?xml version="1.0" standalone="no"?>
<!DOCTYPE svg PUBLIC "-//W3C//DTD SVG 20010904//EN"
 "http://www.w3.org/TR/2001/REC-SVG-20010904/DTD/svg10.dtd">
<svg version="1.0" xmlns="http://www.w3.org/2000/svg"
 width="700.000000pt" height="700.000000pt" viewBox="0 0 700.000000 700.000000"
 preserveAspectRatio="xMidYMid meet">
<metadata>
Created by potrace 1.11, written by Peter Selinger 2001-2013
</metadata>
<g transform="translate(0.000000,700.000000) scale(0.100000,-0.100000)"
fill="#000000" stroke="none">
<path d="M0 3450 l0 -3450 3458 2 3457 3 3 3448 2 3447 -3460 0 -3460 0 0
-3450z m4345 2711 c203 -35 348 -82 509 -162 206 -104 289 -171 665 -543 197
-196 279 -283 293 -315 14 -31 24 -89 34 -199 22 -251 56 -322 192 -391 72
-37 128 -43 175 -18 51 26 124 25 181 -3 53 -25 170 -153 198 -216 26 -59 20
-137 -14 -194 -30 -52 -493 -515 -532 -534 -55 -26 -101 -29 -163 -11 -51 15
-68 27 -142 103 -128 133 -161 227 -106 302 49 66 26 173 -57 270 -57 65 -142
131 -217 167 -62 30 -87 36 -160 40 -118 7 -151 -9 -277 -131 l-99 -95 -290
287 c-159 158 -292 290 -293 295 -2 4 41 54 96 112 113 119 142 168 142 243 0
110 -61 206 -200 317 -273 218 -634 358 -1015 395 -66 7 -121 12 -121 13 -1 1
-3 42 -5 92 l-4 90 120 27 c136 32 337 65 470 78 146 14 493 4 620 -19z
m-2563 -30 c178 -47 319 -133 479 -291 97 -96 155 -187 195 -306 39 -118 45
-296 14 -469 -39 -221 -22 -289 119 -456 44 -52 225 -239 403 -417 l324 -323
399 406 399 406 285 -292 c158 -160 287 -295 289 -299 1 -4 -169 -182 -378
-395 -210 -213 -378 -391 -373 -395 109 -95 1968 -1797 1990 -1823 76 -87 115
-195 115 -322 1 -200 -105 -375 -281 -463 -165 -83 -341 -78 -496 13 -65 37
-70 42 -1076 1075 -479 492 -875 895 -879 895 -3 0 -387 -437 -853 -971 -465
-535 -865 -988 -889 -1008 -80 -69 -206 -84 -314 -37 -68 29 -425 392 -460
467 -46 97 -41 199 15 291 15 25 415 413 973 943 521 496 948 905 948 909 0
15 -734 713 -809 768 -139 105 -240 126 -391 81 -62 -18 -100 -22 -220 -23
-126 0 -154 3 -214 23 -372 125 -616 450 -668 892 -12 102 -8 132 19 167 l18
23 284 -180 c305 -193 337 -207 444 -198 222 18 471 370 429 606 -27 151 -53
178 -345 367 -136 88 -256 167 -268 176 l-22 16 22 36 c19 31 33 39 134 71
166 54 248 66 417 62 104 -3 167 -10 222 -25z"/>
<path d="M5448 1407 c-116 -33 -188 -131 -188 -257 0 -237 295 -360 456 -188
47 49 66 95 72 169 5 71 -14 131 -62 194 -55 71 -182 109 -278 82z"/>
</g>
</svg>
