<svg width="52" height="50" viewBox="0 0 52 50" xmlns="http://www.w3.org/2000/svg"><title>dollar-icon</title><path d="M26 0c3.438 0 6.68.664 9.727 1.992 3.046 1.29 5.703 3.067 7.968 5.332 2.266 2.266 4.043 4.922 5.332 7.969 1.328 3.008 1.993 6.25 1.993 9.727 0 3.437-.665 6.68-1.993 9.726-1.289 3.008-3.066 5.645-5.332 7.91-2.265 2.266-4.922 4.063-7.968 5.39-3.047 1.29-6.29 1.934-9.727 1.934-3.438 0-6.68-.644-9.727-1.933-3.046-1.328-5.703-3.125-7.968-5.39-2.266-2.266-4.043-4.903-5.332-7.91C1.645 31.698.98 28.456.98 25.02c0-3.477.665-6.72 1.993-9.727 1.289-3.047 3.066-5.703 5.332-7.969 2.265-2.265 4.922-4.043 7.968-5.332C19.32.664 22.563 0 26 0zm.234 45c2.735 0 5.313-.527 7.735-1.582 2.383-1.055 4.463-2.48 6.24-4.277 1.777-1.797 3.193-3.887 4.248-6.27 1.016-2.422 1.523-5 1.523-7.734v-.117c0-2.774-.507-5.372-1.523-7.793-1.055-2.422-2.49-4.541-4.307-6.358-1.816-1.816-3.935-3.252-6.357-4.306C31.371 5.508 28.773 4.98 26 4.98c-2.773 0-5.371.528-7.793 1.582-2.422 1.055-4.541 2.49-6.357 4.307-1.817 1.817-3.252 3.936-4.307 6.358-1.016 2.421-1.523 5.02-1.523 7.793 0 2.734.507 5.332 1.523 7.793 1.055 2.421 2.49 4.53 4.307 6.328 1.816 1.797 3.935 3.222 6.357 4.277C20.629 44.473 23.227 45 26 45h.234zm11.133-25.43h-10.02v-1.465c0-.312-.029-.625-.087-.937a4.179 4.179 0 0 0-.264-.879c-.234-.312-.723-.469-1.465-.469h-.176c-.234 0-.449.04-.644.117a4.1 4.1 0 0 0-.586.293 2.14 2.14 0 0 0-.293.557c-.078.215-.117.44-.117.674v.352c0 .39.078.742.234 1.054.156.313.39.586.703.82.743.391 1.543.772 2.403 1.143.86.371 1.757.732 2.695 1.084 1.172.43 2.217.84 3.135 1.23.918.391 1.787.782 2.607 1.172.352.235.703.528 1.055.88.351.35.683.761.996 1.23.312.469.547.986.703 1.553a6.47 6.47 0 0 1 .234 1.728v.586a6.155 6.155 0 0 1-.673 2.842c-.45.879-1.045 1.592-1.787 2.138a15.133 15.133 0 0 1-3.604 1.788c-1.309.449-2.666.693-4.072.732l-.059 2.52h-4.687V37.5c-1.29-.04-2.52-.234-3.692-.586a16.79 16.79 0 0 1-3.34-1.406 6.237 6.237 0 0 1-2.168-2.227 5.942 5.942 0 0 1-.82-3.047c0-.117.01-.224.03-.322.019-.098.029-.205.029-.322v-1.172h9.96v2.285c0 .43.03.86.089 1.29.058.429.146.839.263 1.23.196.39.684.586 1.465.586h.176c.273 0 .517-.04.732-.118.215-.078.42-.175.616-.293a1.56 1.56 0 0 0 .351-.527 1.72 1.72 0 0 0 .117-.644v-.118c0-.078.01-.156.03-.234a.963.963 0 0 0 .029-.234c0-.47-.049-.928-.147-1.377a7.914 7.914 0 0 0-.38-1.26c-.391-.469-.86-.87-1.407-1.201a6.322 6.322 0 0 0-1.758-.733c-3.046-1.21-5.136-2.11-6.27-2.695a10.542 10.542 0 0 1-1.552-1.084 6.992 6.992 0 0 1-1.26-1.377 5.562 5.562 0 0 1-.879-1.64 5.706 5.706 0 0 1-.292-1.817v-.117c0-.938.224-1.787.673-2.549a4.9 4.9 0 0 1 1.787-1.787 17.2 17.2 0 0 1 3.545-1.406 16.534 16.534 0 0 1 3.955-.586V10.02h4.63v1.992c1.288.039 2.519.234 3.69.586 1.173.351 2.266.84 3.282 1.464a4.9 4.9 0 0 1 1.611 1.729c.41.723.616 1.533.616 2.432v.175c.039.118.058.245.058.381v.791z" fill="#FFF" fill-rule="evenodd"/></svg>