<svg width="31" height="50" viewBox="0 0 31 50" xmlns="http://www.w3.org/2000/svg"><title>mobile-icon</title><path d="M23.438 0c1.796.117 3.33.82 4.6 2.11 1.269 1.288 1.942 2.831 2.02 4.628V43.36c0 1.758-.624 3.282-1.874 4.57-1.25 1.29-2.754 1.973-4.512 2.051H6.387c-1.758-.078-3.252-.761-4.483-2.05C.674 46.64.06 45.098.06 43.3V6.68c0-1.797.615-3.34 1.845-4.63C3.134.763 4.648.079 6.445 0h16.992zM19.16 45.527v-2.285h-8.496v2.285h8.496zm7.031-6.797V6.738h-22.5V38.73h22.5zm-3.164-18.75L13.007 30 7.56 24.55l2.46-2.46 2.989 2.93 7.558-7.5 2.461 2.46z" fill="#43484C" fill-rule="nonzero"/></svg>