<svg width="64" height="64" viewBox="0 0 64 64" xmlns="http://www.w3.org/2000/svg"><title>Proper licensing</title><g fill="none" fill-rule="evenodd"><path fill="#F9EDCA" d="M45.302 19h13.992v39H5.647V19h39.655"/><path fill="#B93B57" d="M59.294 59h-.941.941v-1 1"/><path d="M57.861 58H5.647h52.214m.492-.583V19v38.417" fill="#BA4961"/><path fill="#BBB59D" d="M59.294 58H5.647v-6.656h46.028V19h7.62v39"/><path fill="#FFFFFE" d="M12.235 50h15.06V30h-15.06z"/><path d="M19.764 44c-2.079 0-3.765-1.829-3.764-4.083v-.834C16 36.827 17.685 35 19.765 35s3.764 1.828 3.764 4.083v.834c0 2.255-1.686 4.083-3.765 4.083" fill="#F9EDCA"/><path d="M23.53 40a4.662 4.662 0 0 0-.942-2.827V37c.58.764.941 1.736.941 2.81V40" fill="#BEBFBA"/><path d="M19.764 44c-2.079 0-3.765-1.738-3.764-3.883v-.06c.69.852 1.714 1.406 2.875 1.406h.001c2.079 0 3.764-1.738 3.764-3.882V37c.553.673.887 1.542.89 2.492v.626c0 2.144-1.686 3.882-3.766 3.882" fill="#BBB59D"/><path d="M27.294 48.473c0-1.618-.953-3.054-2.363-3.564a15.139 15.139 0 0 0-10.332 0h-.001c-1.41.508-2.361 1.944-2.363 3.562V51h15.06v-2.527M49.882 0L37.406 24 32 13.497 39.016 0h10.866" fill="#8ACDCF"/><path fill="#BA4961" d="M32.143 13L32 12.64l.938-1.64.003.007L32.143 13"/><path fill="#67BCB5" d="M38.229 23l-5.288-9.938L34.05 11l5.48 10.3-1.3 1.7"/><path fill="#8ACDCF" d="M13.176 0l12.576 24h10.954L24.13 0H13.176"/><path fill="#1E2828" d="M59.294 59H4.706V18h14.623v1.73H6.317v37.54h51.366V19.73H44.671V18h14.623v41"/><path d="M12.895 49.319h13.74V30.68h-13.74V49.32zM11.295 51h16.94V29h-16.94v22z" fill="#1E2828"/><path d="M19.765 35.759c-1.695 0-3.075 1.486-3.075 3.312v.857c0 1.827 1.38 3.313 3.074 3.313 1.696 0 3.074-1.486 3.074-3.313v-.856c0-1.827-1.378-3.313-3.073-3.313zM19.764 45c-2.596 0-4.705-2.276-4.705-5.072v-.857c0-2.797 2.11-5.071 4.706-5.071 2.595 0 4.706 2.276 4.706 5.072v.856c0 2.796-2.113 5.072-4.707 5.072z" fill="#1E2828"/><path d="M28.235 48h-1.6a2.722 2.722 0 0 0-1.859-2.587 15.934 15.934 0 0 0-10.024 0 2.719 2.719 0 0 0-1.857 2.585h-1.6a4.324 4.324 0 0 1 2.955-4.11 17.582 17.582 0 0 1 11.031 0A4.33 4.33 0 0 1 28.235 48M16 25h2.824v-2H16zM45.176 25H48v-2h-2.824zM21.647 25h19.765v-2H21.647z" fill="#1E2828"/><path fill="#1E2828" d="M38.588 25H25.895L13.176.827 14.55 0l12.266 23.312h9.074L24.06.827 25.432 0l13.156 25"/><path fill="#1E2828" d="M39.046 25l-1.399-.842L50.366 0l1.399.842L39.045 25M33.384 14L32 13.183 39.085 0l1.386.817L33.384 14M32.941 31H48v-2H32.941zM32.941 41h11.294v-2H32.941zM32.941 37h17.883v-2H32.94zM34.46 50.2h7.315v-4.4H34.46v4.4zM32.94 52h10.353v-8H32.941v8zM64 25h-1.577V14.676h-9.717V13H64v12M64 64H52.706v-1.677h9.717V52H64v12M1.578 25H0V13h11.294v1.676H1.578V25M11.294 64H0V52h1.578v10.323h9.716V64"/></g></svg>