<svg width="52" height="50" viewBox="0 0 52 50" xmlns="http://www.w3.org/2000/svg"><title>growth-icon</title><path d="M39.77 14.473c0 .156.039.254.117.293.078.039.117.117.117.234v7.5c0 .117-.01.234-.03.352-.019.117-.087.175-.204.175-.157 0-.293-.02-.41-.058a.922.922 0 0 1-.352-.235l-1.992-1.992L26.527 31.23c0 .157-.048.245-.146.264l-.147.03-.117-.03c-.078-.02-.117-.107-.117-.264l-3.984-3.984-7.032 7.031-3.222-3.28 9.726-9.727c0-.157.04-.245.117-.264l.118-.03.146.03c.098.02.147.107.147.264L26 25.254l8.027-8.027-2.05-1.993c-.118 0-.186-.048-.206-.146a1.646 1.646 0 0 1-.029-.322c0-.118.049-.196.147-.235a1.04 1.04 0 0 1 .38-.058h7.5zM26 0c3.438 0 6.68.664 9.727 1.992 3.007 1.29 5.644 3.067 7.91 5.332 2.265 2.266 4.062 4.922 5.39 7.969 1.328 3.047 1.993 6.289 1.993 9.727 0 3.437-.665 6.66-1.993 9.668-1.328 3.046-3.125 5.703-5.39 7.968-2.266 2.266-4.903 4.063-7.91 5.39-3.047 1.29-6.29 1.934-9.727 1.934-3.438 0-6.68-.644-9.727-1.933-3.007-1.328-5.644-3.125-7.91-5.39-2.265-2.266-4.062-4.923-5.39-7.97C1.645 31.68.98 28.457.98 25.02c0-3.438.665-6.68 1.993-9.727C4.3 12.246 6.098 9.59 8.363 7.324c2.266-2.265 4.903-4.043 7.91-5.332C19.32.664 22.563 0 26 0zm0 45c2.734 0 5.332-.527 7.793-1.582 2.422-1.055 4.531-2.49 6.328-4.307 1.797-1.816 3.223-3.935 4.277-6.357 1.055-2.422 1.582-5 1.582-7.734 0-2.774-.527-5.372-1.582-7.793-1.054-2.422-2.48-4.541-4.277-6.358-1.797-1.816-3.906-3.252-6.328-4.306A19.576 19.576 0 0 0 26 4.98c-2.734 0-5.332.528-7.793 1.582-2.422 1.055-4.531 2.49-6.328 4.307-1.797 1.817-3.223 3.936-4.277 6.358-1.055 2.421-1.582 5.02-1.582 7.793 0 2.734.527 5.312 1.582 7.734 1.054 2.422 2.48 4.54 4.277 6.357 1.797 1.817 3.906 3.252 6.328 4.307A19.576 19.576 0 0 0 26 45z" fill="#FFF" fill-rule="evenodd"/></svg>