<svg width="162" height="80" viewBox="0 0 162 80" xmlns="http://www.w3.org/2000/svg"><title>pr-logo-tagline-white</title><g fill-rule="nonzero" fill="none"><path d="M2.076 72.536v-3.144h2.232c.648 0 1.122.134 1.422.402.3.268.45.658.45 1.17 0 .512-.15.904-.45 1.176-.3.272-.774.404-1.422.396H2.076zm-1.14-4.104V77h1.14v-3.504h2.616c.864.008 1.518-.212 1.962-.66.444-.448.666-1.072.666-1.872s-.222-1.422-.666-1.866c-.444-.444-1.098-.666-1.962-.666H.936zm8.352 5.472c0-.376.05-.71.15-1.002.1-.292.238-.538.414-.738.176-.2.382-.352.618-.456a1.84 1.84 0 0 1 .75-.156c.264 0 .514.052.75.156.236.104.442.256.618.456s.314.446.414.738c.1.292.15.626.15 1.002s-.05.71-.15 1.002c-.1.292-.238.536-.414.732a1.796 1.796 0 0 1-.618.45 1.84 1.84 0 0 1-.75.156 1.84 1.84 0 0 1-.75-.156 1.796 1.796 0 0 1-.618-.45 2.096 2.096 0 0 1-.414-.732c-.1-.292-.15-.626-.15-1.002zm-1.08 0c0 .456.064.88.192 1.272s.32.734.576 1.026c.256.292.572.52.948.684.376.164.808.246 1.296.246.496 0 .93-.082 1.302-.246.372-.164.686-.392.942-.684.256-.292.448-.634.576-1.026.128-.392.192-.816.192-1.272 0-.456-.064-.882-.192-1.278a2.896 2.896 0 0 0-.576-1.032 2.727 2.727 0 0 0-.942-.69c-.372-.168-.806-.252-1.302-.252-.488 0-.92.084-1.296.252a2.713 2.713 0 0 0-.948.69 2.896 2.896 0 0 0-.576 1.032 4.132 4.132 0 0 0-.192 1.278zM21.576 77l1.98-6.204H22.5l-1.392 5.076h-.024l-1.296-5.076h-1.116l-1.248 5.076H17.4l-1.404-5.076h-1.128L16.86 77h1.104l1.248-4.932h.024L20.496 77h1.08zm7.26-3.696h-3.564c.016-.24.068-.466.156-.678.088-.212.208-.398.36-.558.152-.16.334-.286.546-.378.212-.092.45-.138.714-.138a1.745 1.745 0 0 1 1.254.51c.156.156.28.342.372.558.092.216.146.444.162.684zm.984 1.728h-1.008c-.088.408-.27.712-.546.912-.276.2-.63.3-1.062.3-.336 0-.628-.056-.876-.168a1.717 1.717 0 0 1-.612-.45 1.753 1.753 0 0 1-.348-.648 2.463 2.463 0 0 1-.096-.774h4.644a4.94 4.94 0 0 0-.102-1.188 3.439 3.439 0 0 0-.456-1.152 2.717 2.717 0 0 0-.876-.87c-.364-.228-.822-.342-1.374-.342a2.75 2.75 0 0 0-2.094.912c-.26.288-.462.628-.606 1.02a3.733 3.733 0 0 0-.216 1.296c.016.472.086.908.21 1.308s.31.744.558 1.032c.248.288.554.512.918.672.364.16.794.24 1.29.24.704 0 1.288-.176 1.752-.528.464-.352.764-.876.9-1.572zm1.116-4.236V77h1.02v-2.76c0-.4.04-.754.12-1.062.08-.308.208-.57.384-.786.176-.216.408-.38.696-.492.288-.112.636-.168 1.044-.168v-1.08c-.552-.016-1.008.096-1.368.336-.36.24-.664.612-.912 1.116h-.024v-1.308h-.96zm8.34 2.508h-3.564c.016-.24.068-.466.156-.678.088-.212.208-.398.36-.558.152-.16.334-.286.546-.378.212-.092.45-.138.714-.138a1.745 1.745 0 0 1 1.254.51c.156.156.28.342.372.558.092.216.146.444.162.684zm.984 1.728h-1.008c-.088.408-.27.712-.546.912-.276.2-.63.3-1.062.3-.336 0-.628-.056-.876-.168a1.717 1.717 0 0 1-.612-.45 1.753 1.753 0 0 1-.348-.648 2.463 2.463 0 0 1-.096-.774h4.644a4.94 4.94 0 0 0-.102-1.188 3.439 3.439 0 0 0-.456-1.152 2.717 2.717 0 0 0-.876-.87c-.364-.228-.822-.342-1.374-.342a2.75 2.75 0 0 0-2.094.912c-.26.288-.462.628-.606 1.02a3.733 3.733 0 0 0-.216 1.296c.016.472.086.908.21 1.308s.31.744.558 1.032c.248.288.554.512.918.672.364.16.794.24 1.29.24.704 0 1.288-.176 1.752-.528.464-.352.764-.876.9-1.572zm1.896-1.08c0-.304.032-.6.096-.888a2.35 2.35 0 0 1 .312-.768c.144-.224.336-.404.576-.54.24-.136.532-.204.876-.204.352 0 .652.066.9.198s.45.306.606.522c.156.216.27.466.342.75a3.597 3.597 0 0 1 .006 1.734c-.068.28-.178.53-.33.75-.152.22-.348.398-.588.534s-.532.204-.876.204c-.328 0-.614-.064-.858-.192a1.705 1.705 0 0 1-.6-.516 2.283 2.283 0 0 1-.348-.738 3.172 3.172 0 0 1-.114-.846zm4.8 3.048v-8.568h-1.02v3.192h-.024a1.643 1.643 0 0 0-.414-.462 2.352 2.352 0 0 0-.522-.3 2.62 2.62 0 0 0-.552-.162 3.021 3.021 0 0 0-.516-.048c-.472 0-.886.086-1.242.258a2.55 2.55 0 0 0-.888.696 2.938 2.938 0 0 0-.528 1.026 4.377 4.377 0 0 0-.174 1.248c0 .44.06.856.18 1.248s.298.736.534 1.032c.236.296.532.532.888.708.356.176.774.264 1.254.264.432 0 .828-.076 1.188-.228.36-.152.624-.4.792-.744h.024V77h1.02zm4.944-8.568V77h1.02v-.828h.024c.112.184.25.338.414.462.164.124.338.222.522.294a3.066 3.066 0 0 0 1.068.204c.472 0 .886-.084 1.242-.252a2.49 2.49 0 0 0 .888-.69c.236-.292.412-.634.528-1.026.116-.392.174-.808.174-1.248 0-.44-.06-.856-.18-1.248a3.153 3.153 0 0 0-.534-1.038 2.55 2.55 0 0 0-.888-.714c-.356-.176-.774-.264-1.254-.264-.432 0-.828.078-1.188.234-.36.156-.624.406-.792.75h-.024v-3.204H51.9zm4.8 5.412c0 .304-.032.6-.096.888a2.35 2.35 0 0 1-.312.768 1.64 1.64 0 0 1-.57.54c-.236.136-.53.204-.882.204s-.652-.066-.9-.198a1.747 1.747 0 0 1-.606-.522 2.183 2.183 0 0 1-.342-.75 3.597 3.597 0 0 1-.006-1.734c.068-.28.178-.53.33-.75.152-.22.348-.398.588-.534s.532-.204.876-.204c.328 0 .614.064.858.192s.444.3.6.516c.156.216.272.462.348.738.076.276.114.558.114.846zm4.716 3.984c-.12.304-.238.56-.354.768a2.1 2.1 0 0 1-.384.51c-.14.132-.296.228-.468.288a1.8 1.8 0 0 1-.594.09c-.12 0-.24-.008-.36-.024a1.7 1.7 0 0 1-.348-.084v-.936a1.713 1.713 0 0 0 .6.144c.208 0 .382-.05.522-.15.14-.1.246-.242.318-.426l.42-1.044-2.46-6.168h1.152l1.812 5.076h.024l1.74-5.076h1.08l-2.7 7.032zm9.012-8.436V77h1.14v-7.608h2.856v-.96h-6.852v.96h2.856zm4.776-.96V77h1.02v-3.504c0-.28.038-.538.114-.774.076-.236.19-.442.342-.618.152-.176.342-.312.57-.408.228-.096.498-.144.81-.144.392 0 .7.112.924.336.224.224.336.528.336.912V77h1.02v-4.08a3.84 3.84 0 0 0-.102-.918 1.739 1.739 0 0 0-.354-.714 1.677 1.677 0 0 0-.66-.468c-.272-.112-.612-.168-1.02-.168-.184 0-.374.02-.57.06-.196.04-.384.102-.564.186a1.91 1.91 0 0 0-.486.324 1.357 1.357 0 0 0-.336.486h-.024v-3.276h-1.02zm10.98 4.872H82.62c.016-.24.068-.466.156-.678.088-.212.208-.398.36-.558.152-.16.334-.286.546-.378.212-.092.45-.138.714-.138a1.745 1.745 0 0 1 1.254.51c.156.156.28.342.372.558.092.216.146.444.162.684zm.984 1.728H86.16c-.088.408-.27.712-.546.912-.276.2-.63.3-1.062.3-.336 0-.628-.056-.876-.168a1.717 1.717 0 0 1-.612-.45 1.753 1.753 0 0 1-.348-.648 2.463 2.463 0 0 1-.096-.774h4.644a4.94 4.94 0 0 0-.102-1.188 3.439 3.439 0 0 0-.456-1.152 2.717 2.717 0 0 0-.876-.87c-.364-.228-.822-.342-1.374-.342a2.75 2.75 0 0 0-2.094.912c-.26.288-.462.628-.606 1.02a3.733 3.733 0 0 0-.216 1.296c.016.472.086.908.21 1.308s.31.744.558 1.032c.248.288.554.512.918.672.364.16.794.24 1.29.24.704 0 1.288-.176 1.752-.528.464-.352.764-.876.9-1.572zm4.656-6.6V77h1.14v-3.924h4.512V77h1.14v-8.568h-1.14v3.684h-4.512v-3.684h-1.14zm9.24 5.472c0-.376.05-.71.15-1.002.1-.292.238-.538.414-.738.176-.2.382-.352.618-.456a1.84 1.84 0 0 1 .75-.156c.264 0 .514.052.75.156.236.104.442.256.618.456s.314.446.414.738c.1.292.15.626.15 1.002s-.05.71-.15 1.002c-.1.292-.238.536-.414.732a1.796 1.796 0 0 1-.618.45 1.84 1.84 0 0 1-.75.156 1.84 1.84 0 0 1-.75-.156 1.796 1.796 0 0 1-.618-.45 2.096 2.096 0 0 1-.414-.732c-.1-.292-.15-.626-.15-1.002zm-1.08 0c0 .456.064.88.192 1.272s.32.734.576 1.026c.256.292.572.52.948.684.376.164.808.246 1.296.246.496 0 .93-.082 1.302-.246.372-.164.686-.392.942-.684.256-.292.448-.634.576-1.026.128-.392.192-.816.192-1.272 0-.456-.064-.882-.192-1.278a2.896 2.896 0 0 0-.576-1.032 2.727 2.727 0 0 0-.942-.69c-.372-.168-.806-.252-1.302-.252-.488 0-.92.084-1.296.252a2.713 2.713 0 0 0-.948.69 2.896 2.896 0 0 0-.576 1.032 4.132 4.132 0 0 0-.192 1.278zm7.224-3.108V77h1.02v-3.864c0-.12.03-.27.09-.45a1.732 1.732 0 0 1 .804-.954c.212-.12.466-.18.762-.18.232 0 .422.034.57.102a.869.869 0 0 1 .354.288c.088.124.15.27.186.438.036.168.054.352.054.552V77h1.02v-3.864c0-.48.144-.864.432-1.152.288-.288.684-.432 1.188-.432.248 0 .45.036.606.108.156.072.278.17.366.294.088.124.148.27.18.438.032.168.048.348.048.54V77h1.02v-4.548c0-.32-.05-.594-.15-.822-.1-.228-.24-.414-.42-.558a1.755 1.755 0 0 0-.648-.318 3.248 3.248 0 0 0-.846-.102 2.32 2.32 0 0 0-1.122.276c-.34.184-.614.444-.822.78-.128-.384-.348-.656-.66-.816-.312-.16-.66-.24-1.044-.24-.872 0-1.54.352-2.004 1.056h-.024v-.912h-.96zm14.544 2.508h-3.564c.016-.24.068-.466.156-.678.088-.212.208-.398.36-.558.152-.16.334-.286.546-.378.212-.092.45-.138.714-.138a1.745 1.745 0 0 1 1.254.51c.156.156.28.342.372.558.092.216.146.444.162.684zm.984 1.728h-1.008c-.088.408-.27.712-.546.912-.276.2-.63.3-1.062.3-.336 0-.628-.056-.876-.168a1.717 1.717 0 0 1-.612-.45 1.753 1.753 0 0 1-.348-.648 2.463 2.463 0 0 1-.096-.774h4.644a4.94 4.94 0 0 0-.102-1.188 3.439 3.439 0 0 0-.456-1.152 2.717 2.717 0 0 0-.876-.87c-.364-.228-.822-.342-1.374-.342a2.75 2.75 0 0 0-2.094.912c-.26.288-.462.628-.606 1.02a3.733 3.733 0 0 0-.216 1.296c.016.472.086.908.21 1.308s.31.744.558 1.032c.248.288.554.512.918.672.364.16.794.24 1.29.24.704 0 1.288-.176 1.752-.528.464-.352.764-.876.9-1.572zm5.796 1.008v-6.648h1.92c.528 0 .972.074 1.332.222.36.148.654.364.882.648.228.284.392.628.492 1.032.1.404.15.862.15 1.374 0 .528-.054.978-.162 1.35a3.288 3.288 0 0 1-.414.93 2.166 2.166 0 0 1-.57.588 2.797 2.797 0 0 1-1.254.474c-.192.02-.352.03-.48.03h-1.896zm-1.14-7.608V77h2.94c.712 0 1.328-.1 1.848-.3.52-.2.948-.49 1.284-.87.336-.38.584-.848.744-1.404.16-.556.24-1.194.24-1.914 0-1.376-.356-2.4-1.068-3.072-.712-.672-1.728-1.008-3.048-1.008h-2.94zm12.588 4.872h-3.564c.016-.24.068-.466.156-.678.088-.212.208-.398.36-.558.152-.16.334-.286.546-.378.212-.092.45-.138.714-.138a1.745 1.745 0 0 1 1.254.51c.156.156.28.342.372.558.092.216.146.444.162.684zm.984 1.728h-1.008c-.088.408-.27.712-.546.912-.276.2-.63.3-1.062.3-.336 0-.628-.056-.876-.168a1.717 1.717 0 0 1-.612-.45 1.753 1.753 0 0 1-.348-.648 2.463 2.463 0 0 1-.096-.774h4.644a4.94 4.94 0 0 0-.102-1.188 3.439 3.439 0 0 0-.456-1.152 2.717 2.717 0 0 0-.876-.87c-.364-.228-.822-.342-1.374-.342a2.75 2.75 0 0 0-2.094.912c-.26.288-.462.628-.606 1.02a3.733 3.733 0 0 0-.216 1.296c.016.472.086.908.21 1.308s.31.744.558 1.032c.248.288.554.512.918.672.364.16.794.24 1.29.24.704 0 1.288-.176 1.752-.528.464-.352.764-.876.9-1.572zm1.188-4.236v8.568h1.02v-3.192h.024c.112.184.25.338.414.462.164.124.338.222.522.294a3.066 3.066 0 0 0 1.068.204c.472 0 .886-.084 1.242-.252a2.49 2.49 0 0 0 .888-.69c.236-.292.412-.634.528-1.026.116-.392.174-.808.174-1.248 0-.44-.06-.856-.18-1.248a3.153 3.153 0 0 0-.534-1.038 2.55 2.55 0 0 0-.888-.714c-.356-.176-.774-.264-1.254-.264-.432 0-.828.078-1.188.234-.36.156-.624.406-.792.75h-.024v-.84h-1.02zm4.8 3.048c0 .304-.032.6-.096.888a2.35 2.35 0 0 1-.312.768 1.64 1.64 0 0 1-.57.54c-.236.136-.53.204-.882.204s-.652-.066-.9-.198a1.747 1.747 0 0 1-.606-.522 2.183 2.183 0 0 1-.342-.75 3.597 3.597 0 0 1-.006-1.734c.068-.28.178-.53.33-.75.152-.22.348-.398.588-.534s.532-.204.876-.204c.328 0 .614.064.858.192s.444.3.6.516c.156.216.272.462.348.738.076.276.114.558.114.846zm3.024.06c0-.376.05-.71.15-1.002.1-.292.238-.538.414-.738.176-.2.382-.352.618-.456a1.84 1.84 0 0 1 .75-.156c.264 0 .514.052.75.156.236.104.442.256.618.456s.314.446.414.738c.1.292.15.626.15 1.002s-.05.71-.15 1.002c-.1.292-.238.536-.414.732a1.796 1.796 0 0 1-.618.45 1.84 1.84 0 0 1-.75.156 1.84 1.84 0 0 1-.75-.156 1.796 1.796 0 0 1-.618-.45 2.096 2.096 0 0 1-.414-.732c-.1-.292-.15-.626-.15-1.002zm-1.08 0c0 .456.064.88.192 1.272s.32.734.576 1.026c.256.292.572.52.948.684.376.164.808.246 1.296.246.496 0 .93-.082 1.302-.246.372-.164.686-.392.942-.684.256-.292.448-.634.576-1.026.128-.392.192-.816.192-1.272 0-.456-.064-.882-.192-1.278a2.896 2.896 0 0 0-.576-1.032 2.727 2.727 0 0 0-.942-.69c-.372-.168-.806-.252-1.302-.252-.488 0-.92.084-1.296.252a2.713 2.713 0 0 0-.948.69 2.896 2.896 0 0 0-.576 1.032 4.132 4.132 0 0 0-.192 1.278zm8.64-3.108v-1.86h-1.02v1.86h-1.056v.9h1.056v3.948c0 .288.028.52.084.696a.846.846 0 0 0 .258.408.996.996 0 0 0 .456.198c.188.036.414.054.678.054h.78v-.9h-.468c-.16 0-.29-.006-.39-.018a.504.504 0 0 1-.234-.078.297.297 0 0 1-.114-.168 1.113 1.113 0 0 1-.03-.288v-3.852h1.236v-.9h-1.236z" fill="#FFF"/><g fill="#FFF"><path d="M152.734 63V46.392h4.347v13.07h4.533V63zM138.412 63l3.97-16.607h5.468L151.946 63h-4.656l-.444-2.89h-3.458l-.445 2.89H138.412zm5.49-6.176h2.43l-1.208-7.03h-.023l-1.198 7.03h-.001zM126.192 63V46.392h7.085c.807.015 1.522.178 2.146.487.266.138.527.312.782.524.255.214.485.478.69.79.205.317.368.688.49 1.116.122.428.183.923.183 1.485 0 .977-.147 1.73-.443 2.257-.295.528-.627.923-.995 1.19a2.867 2.867 0 0 1-1.426.51v.045c.207 0 .418.03.632.092.192.045.395.116.61.21.215.095.418.23.61.403.238.22.45.566.627 1.036.18.47.27 1.075.27 1.818v4.64h-4.347v-4.818c0-.138-.007-.312-.023-.524a2.044 2.044 0 0 0-.136-.608 1.265 1.265 0 0 0-.36-.5c-.163-.142-.4-.21-.714-.21h-1.334v6.664h-4.35l.003.001zm4.37-9.453h1.104c.31 0 .595-.072.857-.216.217-.12.42-.322.604-.6.184-.282.276-.704.276-1.264 0-.5-.057-.88-.172-1.143-.112-.262-.26-.453-.444-.574a1.421 1.421 0 0 0-.61-.224 4.51 4.51 0 0 0-.542-.04h-1.072v4.06l-.001.001zM113.035 63V46.392h7.085c.808.015 1.52.178 2.146.487.267.138.528.312.78.524.256.214.486.478.693.79.204.317.367.688.488 1.116.123.428.184.923.184 1.485 0 .977-.148 1.73-.443 2.257-.296.528-.628.923-.996 1.19a2.87 2.87 0 0 1-1.427.51v.045c.207 0 .418.03.633.092.192.045.395.116.61.21.214.095.418.23.61.403.237.22.446.566.627 1.036.18.47.27 1.075.27 1.818v4.64h-4.347v-4.818c0-.138-.008-.312-.023-.524a2.141 2.141 0 0 0-.136-.608 1.265 1.265 0 0 0-.36-.5c-.163-.142-.4-.21-.713-.21h-1.335v6.664h-4.347l.001.001zm4.37-9.453h1.105c.308 0 .594-.072.857-.216.217-.12.418-.322.602-.6.183-.282.275-.704.275-1.264 0-.5-.056-.88-.17-1.143-.114-.262-.26-.453-.445-.574a1.426 1.426 0 0 0-.61-.224c-.217-.027-.4-.04-.543-.04h-1.072v4.06l.001.001zM101.921 63V46.392h9.05l.023 3.536h-4.725v2.82h4.35v3.38h-4.35v3.333h4.907V63h-9.254zM91.06 63V46.392h9.072v3.536h-4.725v2.8h4.37v3.42h-4.37V63zM79.946 63V46.392h9.05l.022 3.536H84.29v2.82h4.35v3.38h-4.35v3.333h4.91V63h-9.256zM66.787 63V46.392h7.088c.805.015 1.52.178 2.143.487.267.138.528.312.783.524.256.214.486.478.69.79.206.317.37.688.492 1.116.12.428.182.923.182 1.485 0 .977-.147 1.73-.443 2.257-.294.528-.626.923-.994 1.19a2.867 2.867 0 0 1-1.427.51v.045c.206 0 .417.03.632.092.194.045.395.116.61.21.215.095.418.23.61.403.24.22.447.566.627 1.036.18.47.27 1.075.27 1.818v4.64h-4.348v-4.818c0-.138-.008-.312-.023-.524a2.045 2.045 0 0 0-.137-.608 1.265 1.265 0 0 0-.36-.5c-.164-.142-.4-.21-.714-.21h-1.336v6.664h-4.347l.002.001zm4.372-9.453h1.105c.31 0 .594-.072.857-.216.218-.12.42-.322.603-.6.184-.282.276-.704.276-1.264 0-.5-.058-.88-.17-1.143-.116-.262-.264-.453-.446-.574a1.43 1.43 0 0 0-.612-.224 4.508 4.508 0 0 0-.54-.04h-1.075v4.06l.002.001z"/></g><g fill="#FFF"><path d="M143.51 20.37c0 2.03.008 4.055.025 6.078.02 2.022.17 3.752.45 5.19.223 1.184.555 2.08.992 2.68.44.603 1.19.903 2.254.903.99 0 1.736-.375 2.24-1.13.505-.755.848-1.816 1.036-3.18.167-1.242.25-2.69.25-4.34v-.485a634.2 634.2 0 0 1-.028-6.094c0-1.507-.017-2.97-.055-4.392-.037-1.42-.112-2.605-.225-3.56a41.316 41.316 0 0 0-.25-1.467 4.812 4.812 0 0 0-.463-1.348 2.587 2.587 0 0 0-.95-.996c-.42-.262-.975-.392-1.666-.392-.766 0-1.387.23-1.863.688-.475.457-.843 1.195-1.104 2.21-.26 1.017-.433 2.315-.518 3.895-.084 1.58-.126 3.496-.126 5.742m-11.112.053c0-3.96.345-7.195 1.036-9.71.69-2.518 1.674-4.51 2.953-5.977a9.757 9.757 0 0 1 4.728-3.022c1.876-.547 4.016-.82 6.424-.82 2.475 0 4.617.35 6.423 1.05 1.806.697 3.3 1.844 4.483 3.438 1.184 1.592 2.062 3.702 2.64 6.327.578 2.62.866 5.86.866 9.71 0 3.718-.23 6.884-.683 9.497-.46 2.613-1.26 4.744-2.406 6.397-1.144 1.652-2.7 2.856-4.665 3.61-1.967.752-4.438 1.13-7.418 1.13-2.947 0-5.354-.44-7.22-1.318-1.866-.88-3.334-2.223-4.408-4.028-1.072-1.806-1.8-4.06-2.182-6.762-.384-2.703-.574-5.878-.574-9.523M110.416 18.586h2.74c.765 0 1.473-.178 2.127-.535.538-.3 1.037-.798 1.495-1.494.457-.696.685-1.74.685-3.133 0-1.24-.142-2.186-.424-2.836-.285-.646-.653-1.122-1.105-1.422a3.586 3.586 0 0 0-1.513-.55c-.54-.068-.988-.1-1.346-.1h-2.66v10.07h.001zM99.576 42.03V.842h17.576c1.998.036 3.774.442 5.322 1.212.66.338 1.305.772 1.936 1.298a8.732 8.732 0 0 1 1.713 1.96c.51.78.916 1.702 1.217 2.765.3 1.063.453 2.29.453 3.683 0 2.426-.366 4.29-1.097 5.6-.734 1.306-1.557 2.29-2.47 2.946-1.045.734-2.224 1.157-3.538 1.27v.114c.514 0 1.038.075 1.57.226.476.112.98.286 1.514.52a5.67 5.67 0 0 1 1.513 1.003c.588.544 1.106 1.4 1.555 2.566.447 1.166.67 2.67.67 4.513v11.51h-10.783v-11.96c0-.338-.02-.77-.056-1.298a5.087 5.087 0 0 0-.338-1.508 3.161 3.161 0 0 0-.892-1.242c-.407-.348-.995-.522-1.768-.522h-3.312V42.03H99.576zM66.75 42.03V.898h16.526c2.17.038 4.094.497 5.774 1.38a10.31 10.31 0 0 1 2.15 1.49c.7.62 1.317 1.38 1.854 2.28.54.902.972 1.976 1.302 3.224.33 1.248.496 2.697.496 4.348 0 1.696-.184 3.177-.552 4.44-.368 1.262-.86 2.348-1.473 3.252-.61.904-1.296 1.653-2.05 2.248a13.113 13.113 0 0 1-2.35 1.483c-1.85.887-3.972 1.33-6.37 1.33h-4.526V42.03H66.75zm10.78-23.105h3.2a2.953 2.953 0 0 0 1.725-.652c.434-.302.84-.793 1.218-1.476.376-.68.566-1.653.566-2.92 0-1.363-.19-2.403-.567-3.122-.378-.718-.803-1.23-1.275-1.53a3.75 3.75 0 0 0-1.866-.655h-3v10.355h-.001z"/></g><path fill="#F96302" d="M62.26 62.966H0V.904h62.26z"/><path d="M51.427 54.393c.942-.866.942-2.525 0-3.463-.94-.94-2.46-.94-3.475 0-.866.938-.866 2.525 0 3.39 1.015.94 2.534 1.082 3.475.073zm-16.065-21.17l17.73 16.19c1.81 1.805 1.737 4.692-.07 6.567-1.884 1.804-4.78 1.804-6.588-.07L29.79 38.85 14.4 56.512c-1.014 1.082-2.824 1.082-3.91 0l-2.824-2.886c-1.085-1.01-1.085-2.814 0-3.898L24.65 33.58l-6.007-5.77c-1.956-1.876-3.113-2.453-4.706-1.95-1.592.576-3.835.576-5.935-.792-4.487-2.886-4.198-8.298-4.198-8.298l.36-.577s4.055 2.598 4.563 2.886c.65.506 2.895 1.517 4.92-1.587 2.1-3.102.363-5.05-.216-5.41-.506-.29-4.56-2.958-4.56-2.958l.363-.577s4.704-2.382 9.12.216c0 .145 1.085.793 1.52 1.154 2.823 2.525 2.823 5.34 2.317 7.648-.435 2.093 0 2.813 1.664 4.618l6.008 5.988 7.164-7.288 5.212 5.34-6.876 6.998-.001.002zm23.524-9.74c.796.792.796 2.02 0 2.885l-3.91 3.968c-.795.795-2.026.795-2.893 0l-.87-.94c-.65-.576-.94-1.658-.578-2.162.65-.434.433-1.732-.798-2.887-1.735-1.802-3.98-1.875-4.847-.938-.363.288-1.52 1.515-1.52 1.515l-5.357-5.266.867-.867s.22-.218.652-.723c1.667-1.66-.073-3.534-.073-3.534C34.855 9.918 28.27 9.99 28.27 9.99l-.074-1.66c13.246-3.39 18.24 2.38 20.05 4.186l3.837 3.823c.94.937 0 3.605 1.375 5.12.65.65 1.518.94 2.17.94.725-.65 1.884-.432 2.463.216l.796.866-.001.002z" fill="#FFF"/></g></svg>