<svg width="63" height="63" viewBox="0 0 63 63" xmlns="http://www.w3.org/2000/svg"><title>pr-logo-white</title><g fill-rule="nonzero" fill="none"><path fill="#F96302" d="M62.26 62.966H0V.904h62.26z"/><path d="M51.427 54.393c.942-.866.942-2.525 0-3.463-.94-.94-2.46-.94-3.475 0-.866.938-.866 2.525 0 3.39 1.015.94 2.534 1.082 3.475.073zm-16.065-21.17l17.73 16.19c1.81 1.805 1.737 4.692-.07 6.567-1.884 1.804-4.78 1.804-6.588-.07L29.79 38.85 14.4 56.512c-1.014 1.082-2.824 1.082-3.91 0l-2.824-2.886c-1.085-1.01-1.085-2.814 0-3.898L24.65 33.58l-6.007-5.77c-1.956-1.876-3.113-2.453-4.706-1.95-1.592.576-3.835.576-5.935-.792-4.487-2.886-4.198-8.298-4.198-8.298l.36-.577s4.055 2.598 4.563 2.886c.65.506 2.895 1.517 4.92-1.587 2.1-3.102.363-5.05-.216-5.41-.506-.29-4.56-2.958-4.56-2.958l.363-.577s4.704-2.382 9.12.216c0 .145 1.085.793 1.52 1.154 2.823 2.525 2.823 5.34 2.317 7.648-.435 2.093 0 2.813 1.664 4.618l6.008 5.988 7.164-7.288 5.212 5.34-6.876 6.998-.001.002zm23.524-9.74c.796.792.796 2.02 0 2.885l-3.91 3.968c-.795.795-2.026.795-2.893 0l-.87-.94c-.65-.576-.94-1.658-.578-2.162.65-.434.433-1.732-.798-2.887-1.735-1.802-3.98-1.875-4.847-.938-.363.288-1.52 1.515-1.52 1.515l-5.357-5.266.867-.867s.22-.218.652-.723c1.667-1.66-.073-3.534-.073-3.534C34.855 9.918 28.27 9.99 28.27 9.99l-.074-1.66c13.246-3.39 18.24 2.38 20.05 4.186l3.837 3.823c.94.937 0 3.605 1.375 5.12.65.65 1.518.94 2.17.94.725-.65 1.884-.432 2.463.216l.796.866-.001.002z" fill="#FFF"/></g></svg>