<svg width="64" height="64" viewBox="0 0 64 64" xmlns="http://www.w3.org/2000/svg"><title>ID verification</title><g fill="none" fill-rule="evenodd"><path d="M32 64C14.327 64 0 49.673 0 32 0 14.327 14.327 0 32 0c17.673 0 32 14.327 32 32 0 17.673-14.327 32-32 32m-.57-3.51h.003c7.819 0 14.823-3.398 19.095-6.936l.036-.03a21.956 21.956 0 0 0 1.777-1.652l.003-.003c5.69-5.89 7.334-13.804 7.458-14.44l.008-.042a28.24 28.24 0 0 0 .475-5.172 28.198 28.198 0 0 0-2.238-11.046l-.004-.009a2.724 2.724 0 0 0-.012-.029l-.004-.009-.03-.071-.005-.01-.011-.027-.005-.011-.015-.035-.003-.005a1.903 1.903 0 0 0-.012-.029l-.006-.015-.009-.02-.007-.017-.008-.015a12.458 12.458 0 0 0-.031-.073l-.002-.005A28.342 28.342 0 0 0 52 12.214 28.194 28.194 0 0 0 32 3.93a28.195 28.195 0 0 0-20.001 8.285 28.196 28.196 0 0 0-8.285 20c0 1.768.163 3.497.475 5.173.329 8.064 9.282 16.167 9.282 16.167 5.91 5.066 12.155 6.935 17.955 6.936h.003" fill="#50B47D"/><path d="M4.294 37.159a28.166 28.166 0 0 1-.473-5.153 28.1 28.1 0 0 1 2.214-10.971 28.232 28.232 0 0 1 6.04-8.959A28.084 28.084 0 0 1 32 3.821a28.084 28.084 0 0 1 19.925 8.255 28.23 28.23 0 0 1 6.039 8.959 28.102 28.102 0 0 1 2.214 10.97 28.17 28.17 0 0 1-.473 5.154s-1.834 9.969-9.247 16.11c-7.413 6.14-23.09 11.854-36.918 0 0 0-8.92-8.075-9.247-16.11" fill="#87C487"/><path d="M31.526 61.134h-.004.004m.004 0c7.893-.001 14.966-3.433 19.278-7.008-4.313 3.575-11.384 7.008-19.278 7.008m21.108-8.707l.004-.004-.004.003m7.533-14.597l.008-.041-.008.041m-1.757-16.394l-.015-.037.015.037M58.38 21.351l-.031-.072.03.072m-.035-.083l-.01-.026.01.026m-.016-.037l-.015-.035.015.035M58.29 21.146l-.008-.02.008.02m-.016-.037l-.007-.016.007.016m-.025-.057l-.002-.006.002.006m-.014-.032l-.002-.005.002.005" fill="#2EA56B"/><path d="M31.19 60.18h-.003c-5.825-.002-12.101-1.856-18.037-6.877 0 0-4.689-4.205-7.419-9.552 2.093 2.625 4.007 4.344 4.007 4.344a32.048 32.048 0 0 0 3.412 2.527v2.462a28.495 28.495 0 0 0 18.614 6.887 28.493 28.493 0 0 0 18.614-6.887v-3.057a5.323 5.323 0 0 0-1.498-3.696c5.884-6.08 7.41-14.266 7.41-14.266.313-1.662.477-3.376.477-5.129 0-3.872-.795-7.561-2.233-10.916-.248-.58-.54-1.134-.825-1.692a27.996 27.996 0 0 1 4.056 6.487l.003.005.011.026.003.006.018.04.007.015.007.017.009.02.006.014.013.029.002.005.015.035.005.01.011.027.005.01.03.071.005.009.012.028.004.01.015.035a27.646 27.646 0 0 1 2.232 11.163 27.661 27.661 0 0 1-.476 4.882l-.008.04c-.125.632-1.777 8.479-7.492 14.32l-.003.003a22.574 22.574 0 0 1-1.785 1.638l-.037.03c-4.29 3.507-11.329 6.875-19.183 6.876h-.003" fill="#65B97B"/><path d="M47.313 45.036l-9.314-3.961c-.239 2.263-2.817 4.052-5.999 4.052-3.18 0-5.76-1.789-5.998-4.052l-9.314 3.96a5.456 5.456 0 0 0-3.315 5.024v3.11c4.992 4.355 11.494 7.01 18.627 7.01 7.133 0 13.635-2.655 18.627-7.01v-3.11a5.456 5.456 0 0 0-3.314-5.023" fill="#337FAA"/><path d="M34.832 39.678a7.64 7.64 0 0 1-5.664 0c-1.25-.5-2.411-1.362-3.377-2.424v4.692l.047-.02c.245 2.193 2.894 3.925 6.162 3.925s5.916-1.732 6.162-3.924l.047.019v-4.692c-.966 1.062-2.128 1.924-3.377 2.424" fill="#F9EDCA"/><path d="M31.522 44.896c-3.039 0-5.503-1.687-5.731-3.821.228 2.134 2.692 3.82 5.731 3.82" fill="#65B97B"/><path d="M32 44.896c3.268 0 5.916-1.687 6.162-3.821l.047.018v1.901l-.047-.009c-.246 1.067-2.894 1.91-6.162 1.91s-5.917-.843-6.162-1.91l-.047.01v-1.902l.047-.018c.245 2.134 2.894 3.82 6.161 3.82" fill="#2B6889"/><path d="M32 45.85c-3.268 0-5.917-1.924-6.162-4.36l-.047.022v-.437c.966.59 2.128 1.069 3.377 1.347.905.201 1.868.302 2.832.302.963 0 1.927-.1 2.832-.302a11.232 11.232 0 0 0 3.377-1.347v.437l-.047-.021c-.246 2.435-2.894 4.36-6.162 4.36" fill="#BBB59D"/><path d="M23.298 24.34c-1.228 0-1.493-.093-1.242 1.12l.461 3.463c.142.685.088 1.176.781 1.176 0 3.373 2.52 7.21 5.598 8.527a6.677 6.677 0 0 0 5.253 0c3.079-1.316 5.598-5.154 5.598-8.527.693 0 .639-.491.78-1.176l.462-3.463c.25-1.213-.014-1.12-1.242-1.12v-3.623c0-4.584-3.682-8.3-8.225-8.3-4.542 0-8.224 3.716-8.224 8.3v3.623" fill="#F9EDCA"/><path d="M33.744 39.042a6.907 6.907 0 0 1 0 0m-4.02-.442l-.017-.008.017.008m-.02-.01c-.006-.001-.01-.003-.016-.006l.015.007m-.018-.008l-.035-.016.035.016m-.037-.016l-.017-.008.017.008m-.018-.008l-.037-.017.037.017m-.037-.017l-.018-.008.018.008M29.537 38.516l-.017-.008.017.008m-.02-.01l-.034-.016.035.017M29.46 38.479c-.005-.001-.01-.004-.014-.006a.632.632 0 0 0 .014.007m-.017-.008l-.015-.008.015.008m-.024-.012l-.007-.004.007.004m-.017-.008l-.004-.003.004.003m6.746-.358h.001m-9.68-.904c-.237-.26-.464-.533-.679-.817.036.017.07.042.105.058.189.081.38.154.573.22v.54m11.97-.722v-.381a11.539 11.539 0 0 0 1.68-2.655 11.424 11.424 0 0 1-1.68 3.036" fill="#65B97B"/><path d="M31.671 41.075a7.425 7.425 0 0 1-2.832-.56c-1.116-.461-2.153-1.227-3.048-2.167v-.536c.243.078.489.144.737.199a9.127 9.127 0 0 0 2.302 1.587l.005.002a.361.361 0 0 1 .01.005l.007.003a.597.597 0 0 0 .01.004l.015.008.004.001.013.007a.07.07 0 0 1 .006.002l.014.007.003.001.037.017h.002l.017.009h.001l.038.017h.001l.019.008.038.017h.001l.018.008h.002l.037.017h.003l.015.007.004.002.018.007a7.454 7.454 0 0 0 6.653-.495l.013-.007h.001a10.014 10.014 0 0 0 2.374-1.991v.378c-1.025 1.27-2.312 2.308-3.705 2.882a7.425 7.425 0 0 1-2.833.56" fill="#BBB59D"/><path d="M32.162 40.12a7.298 7.298 0 0 1-2.821-.567l-.004-.001a.766.766 0 0 1-.015-.007l-.003-.001a4.483 4.483 0 0 0-.036-.016h-.002a4.86 4.86 0 0 1-.056-.025l-.02-.008a4.797 4.797 0 0 1-.039-.018l-.017-.007-.002-.002a3.07 3.07 0 0 1-.036-.016l-.003-.002a.652.652 0 0 0-.02-.008l-.013-.007a.044.044 0 0 1-.004-.002l-.015-.007-.01-.004-.007-.003a.356.356 0 0 0-.01-.005l-.004-.002a9.03 9.03 0 0 1-2.279-1.584 7.881 7.881 0 0 0 4.719-.416c3.537-1.471 6.432-5.762 6.432-9.533.797 0 .735-.55.897-1.316l.53-3.87c.25-1.176.055-1.254-.92-1.254l-.507.001v-4.05a9.12 9.12 0 0 0-.254-2.106c1.818 1.578 2.97 3.879 2.97 6.448v3.762l.471-.001c.905 0 1.086.073.854 1.164l-.492 3.595c-.026.123-.046.241-.065.35-.103.069-.244.105-.443.105 0 .242-.013.486-.038.731-.08.023-.174.035-.287.035 0 .975-.209 1.987-.58 2.97a11.38 11.38 0 0 1-1.726 2.63 9.93 9.93 0 0 1-2.35 1.986l-.013.008c-.32.19-.646.355-.98.494a7.283 7.283 0 0 1-2.802.558" fill="#BBB59D"/><path d="M23.164 29.422c.37.054.703.37.703.745 0 3.108 2.41 6.758 5.264 7.971a6.15 6.15 0 0 0 4.785 0c2.852-1.213 5.263-4.863 5.263-7.97 0-.4.311-.726.704-.748.017-.075.032-.17.045-.246l.064-.354.462-3.463c.025-.12.042-.215.054-.29a9.465 9.465 0 0 0-.327 0l-.255.001a.748.748 0 0 1-.747-.749v-3.68c0-4.234-3.434-7.678-7.656-7.678-4.221 0-7.656 3.444-7.656 7.678v3.68c0 .414-.334.75-.746.75l-.256-.002c-.105-.002-.223 0-.327 0 .01.064.025.141.044.237l.536 3.87c.014.078.03.173.046.248zm8.36 10.697c-1.016 0-2.03-.2-2.976-.601-3.224-1.371-5.878-5.204-6.15-8.756-.577-.295-.686-.945-.752-1.34l-.055-.296-.48-3.57c-.113-.538-.194-1.105.163-1.543.273-.335.644-.42 1.1-.44V20.64c0-5.06 4.104-9.176 9.15-9.176 5.044 0 9.148 4.117 9.148 9.176v2.935c.456.02.827.104 1.1.44.357.437.276 1.004.153 1.595l-.524 3.814c-.066.394-.176 1.044-.752 1.339-.273 3.552-2.927 7.385-6.15 8.756a7.616 7.616 0 0 1-2.976.601z" fill="#1E2828"/><path d="M27.297 40.243a.57.57 0 0 1 .04.156c.196 1.73 2.454 3.084 5.14 3.084 2.687 0 4.945-1.354 5.14-3.084a.637.637 0 0 1 .041-.165v-2.502a9.017 9.017 0 0 1-2.18 1.263 8.208 8.208 0 0 1-6 0 8.992 8.992 0 0 1-2.18-1.263v2.511zm5.18 4.653c-3.385 0-6.163-1.745-6.6-4.098a.605.605 0 0 1-.086-.306v-4.443c0-.295.196-.559.491-.662a.786.786 0 0 1 .833.202c.882.96 1.903 1.69 2.95 2.106 1.533.61 3.291.61 4.825 0 1.047-.416 2.067-1.145 2.95-2.107a.79.79 0 0 1 .833-.201.71.71 0 0 1 .491.662v4.443c0 .12-.033.236-.093.339-.456 2.336-3.224 4.065-6.594 4.065z" fill="#1E2828"/><path d="M13.93 52.99c4.927 4.26 11.161 6.602 17.592 6.602 6.433 0 12.666-2.341 17.593-6.602v-2.76c0-1.887-1.1-3.582-2.803-4.319l-8.352-3.61c-.786 2.201-3.362 3.762-6.438 3.762-3.075 0-5.65-1.561-6.436-3.762l-8.352 3.61c-1.704.737-2.805 2.432-2.805 4.32v2.76zm17.592 8.144c-6.91 0-13.602-2.56-18.844-7.207l-.26-.23V50.23c0-2.508 1.463-4.761 3.727-5.74l10.113-4.372.107 1.035c.196 1.888 2.462 3.367 5.157 3.367 2.697 0 4.962-1.479 5.159-3.367l.107-1.035L46.9 44.491c2.263.979 3.726 3.231 3.726 5.74v3.465l-.26.23c-5.242 4.648-11.934 7.208-18.845 7.208zM60.646 36.299l-1.506-.272c.307-1.606.464-3.254.464-4.899 0-3.617-.73-7.124-2.17-10.426a26.68 26.68 0 0 0-5.915-8.516 27.591 27.591 0 0 0-8.774-5.74c-6.805-2.794-14.684-2.794-21.489 0a27.585 27.585 0 0 0-8.775 5.74 26.681 26.681 0 0 0-5.916 8.516 25.932 25.932 0 0 0-2.169 10.426c0 1.645.157 3.293.464 4.899l-1.506.27a27.562 27.562 0 0 1-.488-5.169c0-3.816.77-7.519 2.29-11.005a28.158 28.158 0 0 1 6.243-8.987 29.106 29.106 0 0 1 9.26-6.059c7.185-2.949 15.499-2.949 22.682 0a29.117 29.117 0 0 1 9.26 6.059 28.158 28.158 0 0 1 6.243 8.987 27.379 27.379 0 0 1 2.29 11.005c0 1.736-.164 3.475-.488 5.17zM3.959 37.32l-.138-.748 1.504-.274.275 1.495-1.503.29-.138-.763zm1.243 4.532l-.261-.717 1.442-.519.522 1.434-1.442.519-.261-.717zm1.964 4.272l-.384-.655 1.35-.749.369.672v-.015l.368.671-1.335.747-.368-.67zm2.624 3.907l-.475-.596 1.196-.945.952 1.19-1.198.946-.475-.595zm48.597-12.238l.291-1.495 1.501.274-.276 1.51-1.516-.29zm-1.286 4.257l.52-1.434 1.44.534-.52 1.419-1.44-.519zm-1.975 3.998l.75-1.328 1.332.749-.367.655-.383.671-1.332-.747zm-2.589 3.632l.95-1.19 1.21.945-.95 1.19-1.21-.945z" fill="#1E2828"/><path d="M41.075 31.522c.049-.28.075-.559.075-.835.395 0 .675-.043.88-.12-.146.487-.26.841-.955.955" fill="#65B97B"/></g></svg>