<svg width="64" height="64" viewBox="0 0 64 64" xmlns="http://www.w3.org/2000/svg"><title>requirements-background-check</title><g fill="none" fill-rule="evenodd"><path d="M32 64C14.326 64 0 49.673 0 32 0 14.327 14.327 0 32 0c17.673 0 32 14.327 32 32 0 17.673-14.327 32-32 32m.04-7.624l10.668-8.239c4.948-3.822 7.903-9.837 7.903-16.09v-13.09l-.024-.008h-.002a10.497 10.497 0 0 1-2.904-1.37v.024a10.578 10.578 0 0 1-4.317-5.893H20.718a10.583 10.583 0 0 1-7.247 7.246v13.092c0 6.252 2.953 12.267 7.903 16.09l10.666 8.238" fill="#EFA345"/><path d="M20.987 48.313c-4.892-3.787-7.81-9.744-7.81-15.936V19.412a10.47 10.47 0 0 0 7.162-7.177H42.72a10.468 10.468 0 0 0 7.162 7.177v12.964c0 6.193-2.92 12.15-7.81 15.935l-10.543 8.16-10.542-8.158" fill="#7FCAD4"/><path d="M50.824 18.824l-.024-.005.024.005m-.025-.006A12.406 12.406 0 0 1 48 17.9v-.017c.854.404 1.789.73 2.799.936" fill="#BD8239"/><path d="M31.597 56.47l-3.362-2.624 10.117-7.896c5.413-4.226 8.645-10.878 8.645-17.794V17.882c.87.585 1.832 1.04 2.86 1.34h.001l.024.007v13.028c0 6.224-2.909 12.21-7.78 16.014l-10.505 8.2" fill="#66AAAF"/><path d="M44.235 32c0 6.757-5.478 12.235-12.234 12.235-6.758 0-12.236-5.478-12.236-12.235S25.243 19.765 32 19.765c6.756 0 12.234 5.478 12.234 12.235" fill="#FFFFFE"/><path fill="#87C487" d="M30.332 32.418l-3.362-3.517-2.5 2.614 5.862 6.132 9.197-9.62-2.499-2.615-6.698 7.006"/><path fill="#BEBFBA" d="M30.097 37.647l-5.626-6.193 1.213-1.336.02.021-1.195 1.315 5.609 6.172-.02.021"/><path fill="#65B97B" d="M30.328 37.647l-5.857-5.792 1.248-1.234 4.588 4.537 7.954-7.864 1.268 1.254-9.201 9.1"/><path fill="#1E2828" d="M20.706 9.412h16.941V7.529H20.706zM18.887 51.765c-5.934-4.663-9.475-11.999-9.475-19.624v-4.847h1.436v4.847c0 7.176 3.333 14.08 8.917 18.467l-.878 1.157M45.115 50.824l-.88-1.132c5.584-4.292 8.917-11.05 8.917-18.076v-3.38h1.436v3.38c0 7.466-3.541 14.647-9.473 19.208"/><path d="M22.254 47.716l10.215 7.857 10.219-7.859c4.768-3.669 7.615-9.442 7.615-15.445V19.771c-3.291-1.118-5.927-3.743-7.05-7.022H21.69a11.353 11.353 0 0 1-7.051 7.022v12.5c0 6.001 2.847 11.774 7.616 15.445zm10.215 9.696l-11.108-8.545c-5.125-3.943-8.185-10.148-8.185-16.596V18.688l.53-.15c3.236-.921 5.82-3.494 6.744-6.717l.151-.527h23.74l.151.527c.924 3.223 3.508 5.796 6.744 6.717l.529.15V32.27c0 6.451-3.06 12.655-8.185 16.596l-11.11 8.547z" fill="#1E2828"/><path d="M32 20.255c-6.446 0-11.692 5.057-11.692 11.274 0 6.218 5.246 11.275 11.693 11.275 6.448 0 11.692-5.057 11.692-11.275 0-6.217-5.244-11.274-11.692-11.274zm0 23.98c-7.266 0-13.176-5.7-13.176-12.706 0-7.005 5.91-12.705 13.177-12.705 7.265 0 13.175 5.7 13.175 12.705 0 7.006-5.91 12.706-13.175 12.706zM20.706 52.956l.918-1.191 1.206.92-.92 1.19-1.204-.92zm2.757 2.125l.918-1.19 1.19.918-.917 1.19-1.19-.918zm2.742 2.125l.905-1.19 1.206.918-.92 1.19-1.191-.918zm2.744 2.11l.92-1.191 1.19.92-.92 1.19-1.19-.92zM53.647 19.381v-1.499h1.882v1.5h-1.882zm0 3.487v-1.515h1.882v1.515h-1.882zm0 3.485v-1.516h1.882v1.516h-1.882zM38.588 9.412V7.529h1.427v1.883h-1.427zm3.28 0V7.529h1.426v1.883h-1.426z" fill="#1E2828"/><path d="M25.634 31.515l5.087 5.004 8.586-8.439-1.567-1.54-7.019 6.898-3.522-3.463-1.565 1.54zm5.087 7.073l-7.192-7.073 3.67-3.61 3.522 3.464 7.019-6.898 3.672 3.61-10.69 10.507z" fill="#1E2828"/></g></svg>