<svg width="64" height="64" viewBox="0 0 64 64" xmlns="http://www.w3.org/2000/svg"><title>General Liability insurance</title><g fill="none" fill-rule="evenodd"><path d="M32.017 63.047C14.362 63.047.049 48.955.049 31.57.049 14.186 14.362.093 32.017.093c17.656 0 31.969 14.093 31.969 31.477 0 17.385-14.313 31.477-31.97 31.477M17.604 5.633c0 4.34-3.574 7.86-7.984 7.86v16.01c0 7.391 3.48 14.365 9.421 18.884l11.215 8.53c.519.394 1.14.592 1.762.592.594 0 1.189-.18 1.693-.541.122-.068.24-.144.353-.23l11.216-8.53a23.768 23.768 0 0 0 9.175-15.654c-.13.373-.266.744-.41 1.11.246-1.363.371-2.755.371-4.162v-15.45c.101.266.199.532.285.804v-1.542c-.204 0-.396-.045-.596-.06l.092.236c-4.308-.114-7.764-3.588-7.764-7.857h-28.83" fill="#F8C457"/><path d="M46.432 6.618h-28.83c0 4.34-3.573 7.86-7.983 7.86v16.009c0 7.392 3.48 14.366 9.421 18.885l11.215 8.53c1.038.789 2.486.789 3.523 0l11.217-8.53c5.941-4.52 9.42-11.494 9.42-18.886V14.478c-4.408 0-7.983-3.52-7.983-7.86" fill="#F9EDCA"/><path d="M54.7 15.84a14.412 14.412 0 0 0-.285-.803v-.56a8.45 8.45 0 0 1-.219-.002l-.092-.236c.2.015.392.06.596.06v1.542" fill="#BA9848"/><path d="M54.696 15.037c-.163-.188-.333-.375-.5-.562l.5.003v.56" fill="#BBB59D"/><path d="M33.71 57.952l.068-.05 11.217-8.53c4.81-3.659 8.006-8.927 9.05-14.723.143-.366.28-.737.409-1.11a23.768 23.768 0 0 1-9.175 15.653l-11.216 8.53a2.977 2.977 0 0 1-.353.23" fill="#BA9848"/><path d="M32.302 58.314a2.904 2.904 0 0 1-1.761-.592l-6.49-4.935a29.79 29.79 0 0 0 2.94.146c12.338 0 22.856-7.592 27.053-18.284-1.043 5.796-4.24 11.064-9.05 14.722l-11.216 8.53a1.742 1.742 0 0 1-.068.051 2.914 2.914 0 0 1-1.408.362" fill="#BBB59D"/><path d="M23.374 43.846C19.2 40.673 16.71 35.68 16.71 30.487V19.711a15.058 15.058 0 0 0 6.21-6.112h18.197a15.058 15.058 0 0 0 6.21 6.112v10.775c0 5.192-2.493 10.187-6.666 13.36l-8.643 6.574-8.643-6.574" fill="#337FAA"/><path d="M32.017 50.42l-.018-11.955s8.284-.283 8.4-8.253h6.926s.15 9.439-6.665 13.634c0 0-7.36 5.825-8.643 6.574M32.017 13.599v8.36s-7.158-.664-8.382 8.253H16.71v-10.5s5.192-3.31 6.21-6.113h9.098" fill="#FFFFFE"/><path d="M40.4 30.212c0 4.558-3.754 8.253-8.382 8.253-4.63 0-8.383-3.695-8.383-8.253s3.753-8.253 8.383-8.253c4.628 0 8.381 3.695 8.381 8.253" fill="#F9EDCA"/><path d="M24.023 32.7a8.812 8.812 0 0 1-.183-.482l.059.055c.037.143.08.286.124.427m15.708-5.722a8.278 8.278 0 0 0-2.01-2.813 7.628 7.628 0 0 0-.17-.561 8.26 8.26 0 0 1 2.18 3.374" fill="#2B6889"/><path d="M31.776 37.828c-3.506 0-6.502-2.12-7.753-5.128a7.987 7.987 0 0 1-.124-.427 8.414 8.414 0 0 0 5.716 2.227c4.63 0 8.382-3.695 8.382-8.253 0-.72-.097-1.417-.275-2.082a8.278 8.278 0 0 1 2.01 2.813 8.08 8.08 0 0 1 .425 2.597c0 4.558-3.753 8.253-8.381 8.253" fill="#BBB59D"/><path d="M35.398 30.212c0 1.838-1.514 3.329-3.38 3.329-1.868 0-3.382-1.49-3.382-3.33 0-1.838 1.514-3.328 3.382-3.328 1.866 0 3.38 1.49 3.38 3.329" fill="#FFFFFE"/><path d="M10.382 15.196v15.29c0 7.109 3.41 13.946 9.124 18.292l11.215 8.53c.763.578 1.83.578 2.591 0l11.217-8.53c5.712-4.345 9.123-11.183 9.123-18.291V15.196c-4.215-.361-7.582-3.678-7.948-7.828H18.332c-.366 4.151-3.735 7.467-7.95 7.828zm21.635 44.047c-.786 0-1.57-.249-2.228-.747l-11.215-8.53c-6.084-4.628-9.718-11.91-9.718-19.48v-16.76h.763c3.981 0 7.22-3.189 7.22-7.109v-.75h30.356v.75c0 3.92 3.238 7.11 7.22 7.11h.762v16.76c0 7.57-3.633 14.852-9.717 19.479l-11.216 8.53a3.672 3.672 0 0 1-2.227.747z" fill="#1E2828"/><path d="M26.665 10.864V9.363h1.51v1.5h-1.51zm9.133 0V9.363h1.524v1.5h-1.524zM31.254 54.846V53.36h1.524v1.485h-1.524M12.394 20.876v-1.501h1.525v1.501h-1.525zm0 9.757v-.75l1.525-.015.015 1.501-1.524.015-.016-.75zm2.883 10.404l-.382-.661 1.325-.751.382.645v.016l.381.645-1.325.75-.381-.644zm6.86 7.309l.976-1.17 1.172.96-.975 1.157-1.172-.947zM17.47 20.155v10.333c0 4.96 2.382 9.732 6.37 12.765l8.177 6.219 8.178-6.219c3.987-3.033 6.368-7.804 6.368-12.766V20.155a15.744 15.744 0 0 1-5.896-5.805H23.369a15.757 15.757 0 0 1-5.898 5.805zm14.547 31.213l-9.109-6.927c-4.358-3.315-6.962-8.532-6.962-13.953V19.262l.402-.211a14.251 14.251 0 0 0 5.9-5.806l.213-.396h19.112l.215.396a14.248 14.248 0 0 0 5.897 5.806l.402.211v11.225c0 5.423-2.602 10.64-6.96 13.954l-9.11 6.927zM50.112 20.876v-1.501h1.524v1.501h-1.524zm-.015 10.493l.015-.75v.014-.765l1.524.015v.75l-.015.75-1.524-.014zm-3.05 9.562l.382-.645.382-.661 1.326.75-.382.662h-.015l-.365.645-1.327-.75zm-7.348 7.1l1.205-.915.93 1.2-1.204.9-.93-1.185z" fill="#1E2828"/><path fill="#1E2828" d="M31.255 22.727h1.525V13.6h-1.525zM31.255 50.42h1.525V37.696h-1.525zM16.71 30.963h7.705v-1.501h-7.706zM39.619 30.963h7.706v-1.501H39.62z"/><path d="M32.017 22.71c-4.201 0-7.62 3.366-7.62 7.502 0 4.137 3.419 7.503 7.62 7.503 4.202 0 7.62-3.366 7.62-7.503 0-4.136-3.418-7.502-7.62-7.502zm0 16.506c-5.042 0-9.145-4.038-9.145-9.004 0-4.965 4.103-9.003 9.145-9.003 5.043 0 9.144 4.038 9.144 9.003 0 4.966-4.101 9.004-9.144 9.004z" fill="#1E2828"/><path d="M32.017 27.634c-1.443 0-2.618 1.157-2.618 2.578 0 1.42 1.175 2.577 2.618 2.577 1.445 0 2.619-1.156 2.619-2.577s-1.174-2.578-2.62-2.578zm0 6.657c-2.284 0-4.142-1.83-4.142-4.079 0-2.25 1.858-4.08 4.142-4.08 2.286 0 4.143 1.83 4.143 4.08s-1.857 4.079-4.143 4.079z" fill="#1E2828"/></g></svg>